<?xml version="1.0" encoding="utf-8"?>
<svg xmlns="http://www.w3.org/2000/svg" xmlns:xlink="http://www.w3.org/1999/xlink" width="600" height="400" viewBox="0 0 2400 1600">
<defs>
  <clipPath id="clip550">
    <rect x="0" y="0" width="2400" height="1600"/>
  </clipPath>
</defs>
<path clip-path="url(#clip550)" d="M0 1600 L2400 1600 L2400 0 L0 0  Z" fill="#ffffff" fill-rule="evenodd" fill-opacity="1"/>
<defs>
  <clipPath id="clip551">
    <rect x="480" y="0" width="1681" height="1600"/>
  </clipPath>
</defs>
<path clip-path="url(#clip550)" d="M247.459 1423.18 L2352.76 1423.18 L2352.76 123.472 L247.459 123.472  Z" fill="#ffffff" fill-rule="evenodd" fill-opacity="1"/>
<defs>
  <clipPath id="clip552">
    <rect x="247" y="123" width="2106" height="1301"/>
  </clipPath>
</defs>
<polyline clip-path="url(#clip552)" style="stroke:#000000; stroke-linecap:round; stroke-linejoin:round; stroke-width:2; stroke-opacity:0.1; fill:none" points="307.043,1423.18 307.043,123.472 "/>
<polyline clip-path="url(#clip552)" style="stroke:#000000; stroke-linecap:round; stroke-linejoin:round; stroke-width:2; stroke-opacity:0.1; fill:none" points="803.575,1423.18 803.575,123.472 "/>
<polyline clip-path="url(#clip552)" style="stroke:#000000; stroke-linecap:round; stroke-linejoin:round; stroke-width:2; stroke-opacity:0.1; fill:none" points="1300.11,1423.18 1300.11,123.472 "/>
<polyline clip-path="url(#clip552)" style="stroke:#000000; stroke-linecap:round; stroke-linejoin:round; stroke-width:2; stroke-opacity:0.1; fill:none" points="1796.64,1423.18 1796.64,123.472 "/>
<polyline clip-path="url(#clip552)" style="stroke:#000000; stroke-linecap:round; stroke-linejoin:round; stroke-width:2; stroke-opacity:0.1; fill:none" points="2293.17,1423.18 2293.17,123.472 "/>
<polyline clip-path="url(#clip550)" style="stroke:#000000; stroke-linecap:round; stroke-linejoin:round; stroke-width:4; stroke-opacity:1; fill:none" points="247.459,1423.18 2352.76,1423.18 "/>
<polyline clip-path="url(#clip550)" style="stroke:#000000; stroke-linecap:round; stroke-linejoin:round; stroke-width:4; stroke-opacity:1; fill:none" points="307.043,1423.18 307.043,1404.28 "/>
<polyline clip-path="url(#clip550)" style="stroke:#000000; stroke-linecap:round; stroke-linejoin:round; stroke-width:4; stroke-opacity:1; fill:none" points="803.575,1423.18 803.575,1404.28 "/>
<polyline clip-path="url(#clip550)" style="stroke:#000000; stroke-linecap:round; stroke-linejoin:round; stroke-width:4; stroke-opacity:1; fill:none" points="1300.11,1423.18 1300.11,1404.28 "/>
<polyline clip-path="url(#clip550)" style="stroke:#000000; stroke-linecap:round; stroke-linejoin:round; stroke-width:4; stroke-opacity:1; fill:none" points="1796.64,1423.18 1796.64,1404.28 "/>
<polyline clip-path="url(#clip550)" style="stroke:#000000; stroke-linecap:round; stroke-linejoin:round; stroke-width:4; stroke-opacity:1; fill:none" points="2293.17,1423.18 2293.17,1404.28 "/>
<path clip-path="url(#clip550)" d="M284.427 1454.1 Q280.816 1454.1 278.987 1457.66 Q277.182 1461.2 277.182 1468.33 Q277.182 1475.44 278.987 1479.01 Q280.816 1482.55 284.427 1482.55 Q288.061 1482.55 289.867 1479.01 Q291.695 1475.44 291.695 1468.33 Q291.695 1461.2 289.867 1457.66 Q288.061 1454.1 284.427 1454.1 M284.427 1450.39 Q290.237 1450.39 293.293 1455 Q296.371 1459.58 296.371 1468.33 Q296.371 1477.06 293.293 1481.67 Q290.237 1486.25 284.427 1486.25 Q278.617 1486.25 275.538 1481.67 Q272.483 1477.06 272.483 1468.33 Q272.483 1459.58 275.538 1455 Q278.617 1450.39 284.427 1450.39 Z" fill="#000000" fill-rule="nonzero" fill-opacity="1" /><path clip-path="url(#clip550)" d="M304.589 1479.7 L309.473 1479.7 L309.473 1485.58 L304.589 1485.58 L304.589 1479.7 Z" fill="#000000" fill-rule="nonzero" fill-opacity="1" /><path clip-path="url(#clip550)" d="M329.658 1454.1 Q326.047 1454.1 324.218 1457.66 Q322.413 1461.2 322.413 1468.33 Q322.413 1475.44 324.218 1479.01 Q326.047 1482.55 329.658 1482.55 Q333.292 1482.55 335.098 1479.01 Q336.927 1475.44 336.927 1468.33 Q336.927 1461.2 335.098 1457.66 Q333.292 1454.1 329.658 1454.1 M329.658 1450.39 Q335.468 1450.39 338.524 1455 Q341.603 1459.58 341.603 1468.33 Q341.603 1477.06 338.524 1481.67 Q335.468 1486.25 329.658 1486.25 Q323.848 1486.25 320.769 1481.67 Q317.714 1477.06 317.714 1468.33 Q317.714 1459.58 320.769 1455 Q323.848 1450.39 329.658 1450.39 Z" fill="#000000" fill-rule="nonzero" fill-opacity="1" /><path clip-path="url(#clip550)" d="M775.311 1481.64 L791.631 1481.64 L791.631 1485.58 L769.686 1485.58 L769.686 1481.64 Q772.348 1478.89 776.932 1474.26 Q781.538 1469.61 782.719 1468.27 Q784.964 1465.74 785.844 1464.01 Q786.746 1462.25 786.746 1460.56 Q786.746 1457.8 784.802 1456.07 Q782.881 1454.33 779.779 1454.33 Q777.58 1454.33 775.126 1455.09 Q772.695 1455.86 769.918 1457.41 L769.918 1452.69 Q772.742 1451.55 775.195 1450.97 Q777.649 1450.39 779.686 1450.39 Q785.057 1450.39 788.251 1453.08 Q791.445 1455.77 791.445 1460.26 Q791.445 1462.39 790.635 1464.31 Q789.848 1466.2 787.742 1468.8 Q787.163 1469.47 784.061 1472.69 Q780.959 1475.88 775.311 1481.64 Z" fill="#000000" fill-rule="nonzero" fill-opacity="1" /><path clip-path="url(#clip550)" d="M801.445 1479.7 L806.33 1479.7 L806.33 1485.58 L801.445 1485.58 L801.445 1479.7 Z" fill="#000000" fill-rule="nonzero" fill-opacity="1" /><path clip-path="url(#clip550)" d="M816.561 1451.02 L834.917 1451.02 L834.917 1454.96 L820.843 1454.96 L820.843 1463.43 Q821.862 1463.08 822.88 1462.92 Q823.899 1462.73 824.917 1462.73 Q830.704 1462.73 834.084 1465.9 Q837.464 1469.08 837.464 1474.49 Q837.464 1480.07 833.991 1483.17 Q830.519 1486.25 824.2 1486.25 Q822.024 1486.25 819.755 1485.88 Q817.51 1485.51 815.103 1484.77 L815.103 1480.07 Q817.186 1481.2 819.408 1481.76 Q821.63 1482.32 824.107 1482.32 Q828.112 1482.32 830.45 1480.21 Q832.788 1478.1 832.788 1474.49 Q832.788 1470.88 830.45 1468.77 Q828.112 1466.67 824.107 1466.67 Q822.232 1466.67 820.357 1467.08 Q818.505 1467.5 816.561 1468.38 L816.561 1451.02 Z" fill="#000000" fill-rule="nonzero" fill-opacity="1" /><path clip-path="url(#clip550)" d="M1267.27 1451.02 L1285.63 1451.02 L1285.63 1454.96 L1271.55 1454.96 L1271.55 1463.43 Q1272.57 1463.08 1273.59 1462.92 Q1274.61 1462.73 1275.63 1462.73 Q1281.42 1462.73 1284.79 1465.9 Q1288.17 1469.08 1288.17 1474.49 Q1288.17 1480.07 1284.7 1483.17 Q1281.23 1486.25 1274.91 1486.25 Q1272.73 1486.25 1270.47 1485.88 Q1268.22 1485.51 1265.81 1484.77 L1265.81 1480.07 Q1267.9 1481.2 1270.12 1481.76 Q1272.34 1482.32 1274.82 1482.32 Q1278.82 1482.32 1281.16 1480.21 Q1283.5 1478.1 1283.5 1474.49 Q1283.5 1470.88 1281.16 1468.77 Q1278.82 1466.67 1274.82 1466.67 Q1272.94 1466.67 1271.07 1467.08 Q1269.22 1467.5 1267.27 1468.38 L1267.27 1451.02 Z" fill="#000000" fill-rule="nonzero" fill-opacity="1" /><path clip-path="url(#clip550)" d="M1297.39 1479.7 L1302.27 1479.7 L1302.27 1485.58 L1297.39 1485.58 L1297.39 1479.7 Z" fill="#000000" fill-rule="nonzero" fill-opacity="1" /><path clip-path="url(#clip550)" d="M1322.46 1454.1 Q1318.85 1454.1 1317.02 1457.66 Q1315.21 1461.2 1315.21 1468.33 Q1315.21 1475.44 1317.02 1479.01 Q1318.85 1482.55 1322.46 1482.55 Q1326.09 1482.55 1327.9 1479.01 Q1329.73 1475.44 1329.73 1468.33 Q1329.73 1461.2 1327.9 1457.66 Q1326.09 1454.1 1322.46 1454.1 M1322.46 1450.39 Q1328.27 1450.39 1331.32 1455 Q1334.4 1459.58 1334.4 1468.33 Q1334.4 1477.06 1331.32 1481.67 Q1328.27 1486.25 1322.46 1486.25 Q1316.65 1486.25 1313.57 1481.67 Q1310.51 1477.06 1310.51 1468.33 Q1310.51 1459.58 1313.57 1455 Q1316.65 1450.39 1322.46 1450.39 Z" fill="#000000" fill-rule="nonzero" fill-opacity="1" /><path clip-path="url(#clip550)" d="M1762.96 1451.02 L1785.18 1451.02 L1785.18 1453.01 L1772.64 1485.58 L1767.75 1485.58 L1779.56 1454.96 L1762.96 1454.96 L1762.96 1451.02 Z" fill="#000000" fill-rule="nonzero" fill-opacity="1" /><path clip-path="url(#clip550)" d="M1794.3 1479.7 L1799.19 1479.7 L1799.19 1485.58 L1794.3 1485.58 L1794.3 1479.7 Z" fill="#000000" fill-rule="nonzero" fill-opacity="1" /><path clip-path="url(#clip550)" d="M1809.42 1451.02 L1827.77 1451.02 L1827.77 1454.96 L1813.7 1454.96 L1813.7 1463.43 Q1814.72 1463.08 1815.74 1462.92 Q1816.76 1462.73 1817.77 1462.73 Q1823.56 1462.73 1826.94 1465.9 Q1830.32 1469.08 1830.32 1474.49 Q1830.32 1480.07 1826.85 1483.17 Q1823.38 1486.25 1817.06 1486.25 Q1814.88 1486.25 1812.61 1485.88 Q1810.37 1485.51 1807.96 1484.77 L1807.96 1480.07 Q1810.04 1481.2 1812.26 1481.76 Q1814.49 1482.32 1816.96 1482.32 Q1820.97 1482.32 1823.31 1480.21 Q1825.64 1478.1 1825.64 1474.49 Q1825.64 1470.88 1823.31 1468.77 Q1820.97 1466.67 1816.96 1466.67 Q1815.09 1466.67 1813.21 1467.08 Q1811.36 1467.5 1809.42 1468.38 L1809.42 1451.02 Z" fill="#000000" fill-rule="nonzero" fill-opacity="1" /><path clip-path="url(#clip550)" d="M2245.24 1481.64 L2252.88 1481.64 L2252.88 1455.28 L2244.57 1456.95 L2244.57 1452.69 L2252.84 1451.02 L2257.51 1451.02 L2257.51 1481.64 L2265.15 1481.64 L2265.15 1485.58 L2245.24 1485.58 L2245.24 1481.64 Z" fill="#000000" fill-rule="nonzero" fill-opacity="1" /><path clip-path="url(#clip550)" d="M2284.6 1454.1 Q2280.98 1454.1 2279.16 1457.66 Q2277.35 1461.2 2277.35 1468.33 Q2277.35 1475.44 2279.16 1479.01 Q2280.98 1482.55 2284.6 1482.55 Q2288.23 1482.55 2290.04 1479.01 Q2291.86 1475.44 2291.86 1468.33 Q2291.86 1461.2 2290.04 1457.66 Q2288.23 1454.1 2284.6 1454.1 M2284.6 1450.39 Q2290.41 1450.39 2293.46 1455 Q2296.54 1459.58 2296.54 1468.33 Q2296.54 1477.06 2293.46 1481.67 Q2290.41 1486.25 2284.6 1486.25 Q2278.79 1486.25 2275.71 1481.67 Q2272.65 1477.06 2272.65 1468.33 Q2272.65 1459.58 2275.71 1455 Q2278.79 1450.39 2284.6 1450.39 Z" fill="#000000" fill-rule="nonzero" fill-opacity="1" /><path clip-path="url(#clip550)" d="M2304.76 1479.7 L2309.64 1479.7 L2309.64 1485.58 L2304.76 1485.58 L2304.76 1479.7 Z" fill="#000000" fill-rule="nonzero" fill-opacity="1" /><path clip-path="url(#clip550)" d="M2329.83 1454.1 Q2326.22 1454.1 2324.39 1457.66 Q2322.58 1461.2 2322.58 1468.33 Q2322.58 1475.44 2324.39 1479.01 Q2326.22 1482.55 2329.83 1482.55 Q2333.46 1482.55 2335.27 1479.01 Q2337.1 1475.44 2337.1 1468.33 Q2337.1 1461.2 2335.27 1457.66 Q2333.46 1454.1 2329.83 1454.1 M2329.83 1450.39 Q2335.64 1450.39 2338.69 1455 Q2341.77 1459.58 2341.77 1468.33 Q2341.77 1477.06 2338.69 1481.67 Q2335.64 1486.25 2329.83 1486.25 Q2324.02 1486.25 2320.94 1481.67 Q2317.88 1477.06 2317.88 1468.33 Q2317.88 1459.58 2320.94 1455 Q2324.02 1450.39 2329.83 1450.39 Z" fill="#000000" fill-rule="nonzero" fill-opacity="1" /><path clip-path="url(#clip550)" d="M1221.98 1520.52 L1262.18 1520.52 L1262.18 1525.93 L1245.31 1525.93 L1245.31 1568.04 L1238.85 1568.04 L1238.85 1525.93 L1221.98 1525.93 L1221.98 1520.52 Z" fill="#000000" fill-rule="nonzero" fill-opacity="1" /><path clip-path="url(#clip550)" d="M1266.13 1532.4 L1271.99 1532.4 L1271.99 1568.04 L1266.13 1568.04 L1266.13 1532.4 M1266.13 1518.52 L1271.99 1518.52 L1271.99 1525.93 L1266.13 1525.93 L1266.13 1518.52 Z" fill="#000000" fill-rule="nonzero" fill-opacity="1" /><path clip-path="url(#clip550)" d="M1312 1539.24 Q1314.19 1535.29 1317.25 1533.41 Q1320.3 1531.54 1324.44 1531.54 Q1330.01 1531.54 1333.03 1535.45 Q1336.06 1539.33 1336.06 1546.53 L1336.06 1568.04 L1330.17 1568.04 L1330.17 1546.72 Q1330.17 1541.59 1328.36 1539.11 Q1326.54 1536.63 1322.82 1536.63 Q1318.27 1536.63 1315.62 1539.65 Q1312.98 1542.68 1312.98 1547.9 L1312.98 1568.04 L1307.09 1568.04 L1307.09 1546.72 Q1307.09 1541.56 1305.28 1539.11 Q1303.47 1536.63 1299.68 1536.63 Q1295.19 1536.63 1292.55 1539.68 Q1289.91 1542.71 1289.91 1547.9 L1289.91 1568.04 L1284.02 1568.04 L1284.02 1532.4 L1289.91 1532.4 L1289.91 1537.93 Q1291.91 1534.66 1294.71 1533.1 Q1297.51 1531.54 1301.36 1531.54 Q1305.25 1531.54 1307.95 1533.51 Q1310.69 1535.48 1312 1539.24 Z" fill="#000000" fill-rule="nonzero" fill-opacity="1" /><path clip-path="url(#clip550)" d="M1378.23 1548.76 L1378.23 1551.62 L1351.3 1551.62 Q1351.69 1557.67 1354.93 1560.85 Q1358.21 1564 1364.03 1564 Q1367.41 1564 1370.56 1563.17 Q1373.74 1562.35 1376.86 1560.69 L1376.86 1566.23 Q1373.71 1567.57 1370.4 1568.27 Q1367.09 1568.97 1363.68 1568.97 Q1355.15 1568.97 1350.16 1564 Q1345.19 1559.04 1345.19 1550.57 Q1345.19 1541.82 1349.9 1536.69 Q1354.65 1531.54 1362.67 1531.54 Q1369.86 1531.54 1374.03 1536.18 Q1378.23 1540.8 1378.23 1548.76 M1372.37 1547.04 Q1372.31 1542.23 1369.67 1539.37 Q1367.06 1536.5 1362.73 1536.5 Q1357.83 1536.5 1354.87 1539.27 Q1351.94 1542.04 1351.49 1547.07 L1372.37 1547.04 Z" fill="#000000" fill-rule="nonzero" fill-opacity="1" /><polyline clip-path="url(#clip552)" style="stroke:#000000; stroke-linecap:round; stroke-linejoin:round; stroke-width:2; stroke-opacity:0.1; fill:none" points="247.459,1386.4 2352.76,1386.4 "/>
<polyline clip-path="url(#clip552)" style="stroke:#000000; stroke-linecap:round; stroke-linejoin:round; stroke-width:2; stroke-opacity:0.1; fill:none" points="247.459,1077.62 2352.76,1077.62 "/>
<polyline clip-path="url(#clip552)" style="stroke:#000000; stroke-linecap:round; stroke-linejoin:round; stroke-width:2; stroke-opacity:0.1; fill:none" points="247.459,768.848 2352.76,768.848 "/>
<polyline clip-path="url(#clip552)" style="stroke:#000000; stroke-linecap:round; stroke-linejoin:round; stroke-width:2; stroke-opacity:0.1; fill:none" points="247.459,460.075 2352.76,460.075 "/>
<polyline clip-path="url(#clip552)" style="stroke:#000000; stroke-linecap:round; stroke-linejoin:round; stroke-width:2; stroke-opacity:0.1; fill:none" points="247.459,151.301 2352.76,151.301 "/>
<polyline clip-path="url(#clip550)" style="stroke:#000000; stroke-linecap:round; stroke-linejoin:round; stroke-width:4; stroke-opacity:1; fill:none" points="247.459,1423.18 247.459,123.472 "/>
<polyline clip-path="url(#clip550)" style="stroke:#000000; stroke-linecap:round; stroke-linejoin:round; stroke-width:4; stroke-opacity:1; fill:none" points="247.459,1386.4 266.356,1386.4 "/>
<polyline clip-path="url(#clip550)" style="stroke:#000000; stroke-linecap:round; stroke-linejoin:round; stroke-width:4; stroke-opacity:1; fill:none" points="247.459,1077.62 266.356,1077.62 "/>
<polyline clip-path="url(#clip550)" style="stroke:#000000; stroke-linecap:round; stroke-linejoin:round; stroke-width:4; stroke-opacity:1; fill:none" points="247.459,768.848 266.356,768.848 "/>
<polyline clip-path="url(#clip550)" style="stroke:#000000; stroke-linecap:round; stroke-linejoin:round; stroke-width:4; stroke-opacity:1; fill:none" points="247.459,460.075 266.356,460.075 "/>
<polyline clip-path="url(#clip550)" style="stroke:#000000; stroke-linecap:round; stroke-linejoin:round; stroke-width:4; stroke-opacity:1; fill:none" points="247.459,151.301 266.356,151.301 "/>
<path clip-path="url(#clip550)" d="M154.283 1372.19 Q150.672 1372.19 148.843 1375.76 Q147.038 1379.3 147.038 1386.43 Q147.038 1393.54 148.843 1397.1 Q150.672 1400.64 154.283 1400.64 Q157.917 1400.64 159.723 1397.1 Q161.552 1393.54 161.552 1386.43 Q161.552 1379.3 159.723 1375.76 Q157.917 1372.19 154.283 1372.19 M154.283 1368.49 Q160.093 1368.49 163.149 1373.1 Q166.227 1377.68 166.227 1386.43 Q166.227 1395.16 163.149 1399.76 Q160.093 1404.35 154.283 1404.35 Q148.473 1404.35 145.394 1399.76 Q142.339 1395.16 142.339 1386.43 Q142.339 1377.68 145.394 1373.1 Q148.473 1368.49 154.283 1368.49 Z" fill="#000000" fill-rule="nonzero" fill-opacity="1" /><path clip-path="url(#clip550)" d="M174.445 1397.8 L179.329 1397.8 L179.329 1403.68 L174.445 1403.68 L174.445 1397.8 Z" fill="#000000" fill-rule="nonzero" fill-opacity="1" /><path clip-path="url(#clip550)" d="M199.514 1372.19 Q195.903 1372.19 194.075 1375.76 Q192.269 1379.3 192.269 1386.43 Q192.269 1393.54 194.075 1397.1 Q195.903 1400.64 199.514 1400.64 Q203.149 1400.64 204.954 1397.1 Q206.783 1393.54 206.783 1386.43 Q206.783 1379.3 204.954 1375.76 Q203.149 1372.19 199.514 1372.19 M199.514 1368.49 Q205.324 1368.49 208.38 1373.1 Q211.459 1377.68 211.459 1386.43 Q211.459 1395.16 208.38 1399.76 Q205.324 1404.35 199.514 1404.35 Q193.704 1404.35 190.625 1399.76 Q187.57 1395.16 187.57 1386.43 Q187.57 1377.68 190.625 1373.1 Q193.704 1368.49 199.514 1368.49 Z" fill="#000000" fill-rule="nonzero" fill-opacity="1" /><path clip-path="url(#clip550)" d="M149.306 1090.97 L165.626 1090.97 L165.626 1094.9 L143.681 1094.9 L143.681 1090.97 Q146.343 1088.21 150.927 1083.58 Q155.533 1078.93 156.714 1077.59 Q158.959 1075.06 159.839 1073.33 Q160.741 1071.57 160.741 1069.88 Q160.741 1067.12 158.797 1065.39 Q156.876 1063.65 153.774 1063.65 Q151.575 1063.65 149.121 1064.42 Q146.691 1065.18 143.913 1066.73 L143.913 1062.01 Q146.737 1060.87 149.191 1060.3 Q151.644 1059.72 153.681 1059.72 Q159.052 1059.72 162.246 1062.4 Q165.44 1065.09 165.44 1069.58 Q165.44 1071.71 164.63 1073.63 Q163.843 1075.53 161.737 1078.12 Q161.158 1078.79 158.056 1082.01 Q154.954 1085.2 149.306 1090.97 Z" fill="#000000" fill-rule="nonzero" fill-opacity="1" /><path clip-path="url(#clip550)" d="M175.44 1089.02 L180.325 1089.02 L180.325 1094.9 L175.44 1094.9 L175.44 1089.02 Z" fill="#000000" fill-rule="nonzero" fill-opacity="1" /><path clip-path="url(#clip550)" d="M190.556 1060.34 L208.912 1060.34 L208.912 1064.28 L194.838 1064.28 L194.838 1072.75 Q195.857 1072.4 196.875 1072.24 Q197.894 1072.05 198.912 1072.05 Q204.699 1072.05 208.079 1075.23 Q211.459 1078.4 211.459 1083.81 Q211.459 1089.39 207.987 1092.49 Q204.514 1095.57 198.195 1095.57 Q196.019 1095.57 193.75 1095.2 Q191.505 1094.83 189.098 1094.09 L189.098 1089.39 Q191.181 1090.53 193.403 1091.08 Q195.625 1091.64 198.102 1091.64 Q202.107 1091.64 204.445 1089.53 Q206.783 1087.43 206.783 1083.81 Q206.783 1080.2 204.445 1078.1 Q202.107 1075.99 198.102 1075.99 Q196.227 1075.99 194.352 1076.41 Q192.5 1076.82 190.556 1077.7 L190.556 1060.34 Z" fill="#000000" fill-rule="nonzero" fill-opacity="1" /><path clip-path="url(#clip550)" d="M144.329 751.568 L162.686 751.568 L162.686 755.503 L148.612 755.503 L148.612 763.976 Q149.63 763.628 150.649 763.466 Q151.667 763.281 152.686 763.281 Q158.473 763.281 161.852 766.452 Q165.232 769.624 165.232 775.04 Q165.232 780.619 161.76 783.721 Q158.288 786.8 151.968 786.8 Q149.792 786.8 147.524 786.429 Q145.279 786.059 142.871 785.318 L142.871 780.619 Q144.954 781.753 147.177 782.309 Q149.399 782.864 151.876 782.864 Q155.88 782.864 158.218 780.758 Q160.556 778.651 160.556 775.04 Q160.556 771.429 158.218 769.323 Q155.88 767.216 151.876 767.216 Q150.001 767.216 148.126 767.633 Q146.274 768.05 144.329 768.929 L144.329 751.568 Z" fill="#000000" fill-rule="nonzero" fill-opacity="1" /><path clip-path="url(#clip550)" d="M174.445 780.249 L179.329 780.249 L179.329 786.128 L174.445 786.128 L174.445 780.249 Z" fill="#000000" fill-rule="nonzero" fill-opacity="1" /><path clip-path="url(#clip550)" d="M199.514 754.647 Q195.903 754.647 194.075 758.212 Q192.269 761.753 192.269 768.883 Q192.269 775.989 194.075 779.554 Q195.903 783.096 199.514 783.096 Q203.149 783.096 204.954 779.554 Q206.783 775.989 206.783 768.883 Q206.783 761.753 204.954 758.212 Q203.149 754.647 199.514 754.647 M199.514 750.943 Q205.324 750.943 208.38 755.55 Q211.459 760.133 211.459 768.883 Q211.459 777.61 208.38 782.216 Q205.324 786.8 199.514 786.8 Q193.704 786.8 190.625 782.216 Q187.57 777.61 187.57 768.883 Q187.57 760.133 190.625 755.55 Q193.704 750.943 199.514 750.943 Z" fill="#000000" fill-rule="nonzero" fill-opacity="1" /><path clip-path="url(#clip550)" d="M144.098 442.795 L166.32 442.795 L166.32 444.785 L153.774 477.355 L148.89 477.355 L160.695 446.73 L144.098 446.73 L144.098 442.795 Z" fill="#000000" fill-rule="nonzero" fill-opacity="1" /><path clip-path="url(#clip550)" d="M175.44 471.475 L180.325 471.475 L180.325 477.355 L175.44 477.355 L175.44 471.475 Z" fill="#000000" fill-rule="nonzero" fill-opacity="1" /><path clip-path="url(#clip550)" d="M190.556 442.795 L208.912 442.795 L208.912 446.73 L194.838 446.73 L194.838 455.202 Q195.857 454.855 196.875 454.693 Q197.894 454.507 198.912 454.507 Q204.699 454.507 208.079 457.679 Q211.459 460.85 211.459 466.267 Q211.459 471.845 207.987 474.947 Q204.514 478.026 198.195 478.026 Q196.019 478.026 193.75 477.655 Q191.505 477.285 189.098 476.544 L189.098 471.845 Q191.181 472.98 193.403 473.535 Q195.625 474.091 198.102 474.091 Q202.107 474.091 204.445 471.984 Q206.783 469.878 206.783 466.267 Q206.783 462.656 204.445 460.549 Q202.107 458.443 198.102 458.443 Q196.227 458.443 194.352 458.859 Q192.5 459.276 190.556 460.156 L190.556 442.795 Z" fill="#000000" fill-rule="nonzero" fill-opacity="1" /><path clip-path="url(#clip550)" d="M114.931 164.646 L122.57 164.646 L122.57 138.28 L114.26 139.947 L114.26 135.687 L122.524 134.021 L127.2 134.021 L127.2 164.646 L134.839 164.646 L134.839 168.581 L114.931 168.581 L114.931 164.646 Z" fill="#000000" fill-rule="nonzero" fill-opacity="1" /><path clip-path="url(#clip550)" d="M154.283 137.099 Q150.672 137.099 148.843 140.664 Q147.038 144.206 147.038 151.336 Q147.038 158.442 148.843 162.007 Q150.672 165.548 154.283 165.548 Q157.917 165.548 159.723 162.007 Q161.552 158.442 161.552 151.336 Q161.552 144.206 159.723 140.664 Q157.917 137.099 154.283 137.099 M154.283 133.396 Q160.093 133.396 163.149 138.002 Q166.227 142.586 166.227 151.336 Q166.227 160.062 163.149 164.669 Q160.093 169.252 154.283 169.252 Q148.473 169.252 145.394 164.669 Q142.339 160.062 142.339 151.336 Q142.339 142.586 145.394 138.002 Q148.473 133.396 154.283 133.396 Z" fill="#000000" fill-rule="nonzero" fill-opacity="1" /><path clip-path="url(#clip550)" d="M174.445 162.701 L179.329 162.701 L179.329 168.581 L174.445 168.581 L174.445 162.701 Z" fill="#000000" fill-rule="nonzero" fill-opacity="1" /><path clip-path="url(#clip550)" d="M199.514 137.099 Q195.903 137.099 194.075 140.664 Q192.269 144.206 192.269 151.336 Q192.269 158.442 194.075 162.007 Q195.903 165.548 199.514 165.548 Q203.149 165.548 204.954 162.007 Q206.783 158.442 206.783 151.336 Q206.783 144.206 204.954 140.664 Q203.149 137.099 199.514 137.099 M199.514 133.396 Q205.324 133.396 208.38 138.002 Q211.459 142.586 211.459 151.336 Q211.459 160.062 208.38 164.669 Q205.324 169.252 199.514 169.252 Q193.704 169.252 190.625 164.669 Q187.57 160.062 187.57 151.336 Q187.57 142.586 190.625 138.002 Q193.704 133.396 199.514 133.396 Z" fill="#000000" fill-rule="nonzero" fill-opacity="1" /><path clip-path="url(#clip550)" d="M28.3562 881.702 L28.3562 875.496 L58.275 864.356 L28.3562 853.216 L28.3562 847.009 L64.0042 860.377 L64.0042 868.334 L28.3562 881.702 Z" fill="#000000" fill-rule="nonzero" fill-opacity="1" /><path clip-path="url(#clip550)" d="M46.0847 822.724 Q46.0847 829.822 47.7079 832.559 Q49.3312 835.296 53.2461 835.296 Q56.3653 835.296 58.2114 833.259 Q60.0256 831.19 60.0256 827.657 Q60.0256 822.788 56.5881 819.859 Q53.1188 816.899 47.3897 816.899 L46.0847 816.899 L46.0847 822.724 M43.6657 811.043 L64.0042 811.043 L64.0042 816.899 L58.5933 816.899 Q61.8398 818.904 63.3994 821.896 Q64.9272 824.888 64.9272 829.217 Q64.9272 834.691 61.8716 837.938 Q58.7843 841.153 53.6281 841.153 Q47.6125 841.153 44.5569 837.142 Q41.5014 833.1 41.5014 825.111 L41.5014 816.899 L40.9285 816.899 Q36.8862 816.899 34.6901 819.573 Q32.4621 822.215 32.4621 827.021 Q32.4621 830.076 33.1941 832.973 Q33.9262 835.869 35.3903 838.543 L29.9795 838.543 Q28.7381 835.328 28.1334 832.304 Q27.4968 829.281 27.4968 826.416 Q27.4968 818.682 31.5072 814.862 Q35.5176 811.043 43.6657 811.043 Z" fill="#000000" fill-rule="nonzero" fill-opacity="1" /><path clip-path="url(#clip550)" d="M33.8307 778.323 Q33.2578 779.31 33.0032 780.487 Q32.7167 781.633 32.7167 783.034 Q32.7167 787.999 35.9632 790.673 Q39.1779 793.314 45.2253 793.314 L64.0042 793.314 L64.0042 799.203 L28.3562 799.203 L28.3562 793.314 L33.8944 793.314 Q30.6479 791.468 29.0883 788.508 Q27.4968 785.548 27.4968 781.315 Q27.4968 780.71 27.5923 779.978 Q27.656 779.246 27.8151 778.355 L33.8307 778.323 Z" fill="#000000" fill-rule="nonzero" fill-opacity="1" /><path clip-path="url(#clip550)" d="M70.0516 744.999 L74.6349 744.999 L74.6349 746.972 Q74.6349 754.897 72.2796 757.603 Q69.9243 760.276 62.8902 760.276 L55.2831 760.276 Q50.477 760.276 48.631 761.995 Q46.7849 763.714 46.7849 768.233 L46.7849 770.175 L42.2334 770.175 L42.2334 768.233 Q42.2334 763.682 40.4192 761.995 Q38.5732 760.276 33.8307 760.276 L26.1919 760.276 Q19.1578 760.276 16.8343 757.603 Q14.479 754.897 14.479 746.972 L14.479 744.999 L19.0304 744.999 L19.0304 747.163 Q19.0304 751.651 20.4309 753.019 Q21.8314 754.388 26.3192 754.388 L34.2127 754.388 Q39.2097 754.388 41.4696 755.852 Q43.7294 757.284 44.5251 760.786 Q45.3845 757.253 47.6443 755.82 Q49.9041 754.388 54.8694 754.388 L62.7628 754.388 Q67.2507 754.388 68.6511 753.019 Q70.0516 751.651 70.0516 747.163 L70.0516 744.999 Z" fill="#000000" fill-rule="nonzero" fill-opacity="1" /><path clip-path="url(#clip550)" d="M28.3562 701.075 L45.7028 713.966 L64.0042 700.407 L64.0042 707.314 L49.9996 717.69 L64.0042 728.066 L64.0042 734.973 L45.3526 721.127 L28.3562 733.795 L28.3562 726.888 L41.0558 717.435 L28.3562 707.982 L28.3562 701.075 Z" fill="#000000" fill-rule="nonzero" fill-opacity="1" /><path clip-path="url(#clip550)" d="M70.0516 690.126 L70.0516 687.898 Q70.0516 683.442 68.683 682.105 Q67.3143 680.737 62.7628 680.737 L54.8694 680.737 Q49.9041 680.737 47.6443 679.304 Q45.3845 677.872 44.5251 674.339 Q43.7294 677.872 41.4696 679.304 Q39.2097 680.737 34.2127 680.737 L26.3192 680.737 Q21.7995 680.737 20.4309 682.105 Q19.0304 683.442 19.0304 687.898 L19.0304 690.126 L14.479 690.126 L14.479 688.121 Q14.479 680.196 16.8343 677.554 Q19.1578 674.88 26.1919 674.88 L33.8307 674.88 Q38.5732 674.88 40.4192 673.162 Q42.2334 671.443 42.2334 666.923 L42.2334 664.95 L46.7849 664.95 L46.7849 666.923 Q46.7849 671.443 48.631 673.162 Q50.477 674.88 55.2831 674.88 L62.8902 674.88 Q69.9243 674.88 72.2796 677.554 Q74.6349 680.196 74.6349 688.121 L74.6349 690.126 L70.0516 690.126 Z" fill="#000000" fill-rule="nonzero" fill-opacity="1" /><path clip-path="url(#clip550)" d="M634.382 72.576 L611.292 12.096 L619.839 12.096 L639 63.0159 L658.201 12.096 L666.708 12.096 L643.658 72.576 L634.382 72.576 Z" fill="#000000" fill-rule="nonzero" fill-opacity="1" /><path clip-path="url(#clip550)" d="M689.393 49.7694 Q680.359 49.7694 676.876 51.8354 Q673.392 53.9013 673.392 58.8839 Q673.392 62.8538 675.984 65.2034 Q678.618 67.5124 683.114 67.5124 Q689.312 67.5124 693.039 63.1374 Q696.806 58.7219 696.806 51.4303 L696.806 49.7694 L689.393 49.7694 M704.26 46.6907 L704.26 72.576 L696.806 72.576 L696.806 65.6895 Q694.254 69.8214 690.446 71.8063 Q686.638 73.7508 681.129 73.7508 Q674.162 73.7508 670.03 69.8619 Q665.938 65.9325 665.938 59.3701 Q665.938 51.7138 671.042 47.825 Q676.187 43.9361 686.355 43.9361 L696.806 43.9361 L696.806 43.2069 Q696.806 38.0623 693.403 35.2672 Q690.041 32.4315 683.924 32.4315 Q680.035 32.4315 676.349 33.3632 Q672.663 34.295 669.26 36.1584 L669.26 29.2718 Q673.351 27.692 677.2 26.9223 Q681.048 26.1121 684.694 26.1121 Q694.538 26.1121 699.399 31.2163 Q704.26 36.3204 704.26 46.6907 Z" fill="#000000" fill-rule="nonzero" fill-opacity="1" /><path clip-path="url(#clip550)" d="M745.903 34.1734 Q744.647 33.4443 743.148 33.1202 Q741.69 32.7556 739.908 32.7556 Q733.588 32.7556 730.186 36.8875 Q726.823 40.9789 726.823 48.6757 L726.823 72.576 L719.329 72.576 L719.329 27.2059 L726.823 27.2059 L726.823 34.2544 Q729.173 30.1225 732.94 28.1376 Q736.708 26.1121 742.095 26.1121 Q742.865 26.1121 743.797 26.2337 Q744.728 26.3147 745.863 26.5172 L745.903 34.1734 Z" fill="#000000" fill-rule="nonzero" fill-opacity="1" /><path clip-path="url(#clip550)" d="M753.721 27.2059 L761.175 27.2059 L761.175 72.576 L753.721 72.576 L753.721 27.2059 M753.721 9.54393 L761.175 9.54393 L761.175 18.9825 L753.721 18.9825 L753.721 9.54393 Z" fill="#000000" fill-rule="nonzero" fill-opacity="1" /><path clip-path="url(#clip550)" d="M797.39 49.7694 Q788.357 49.7694 784.873 51.8354 Q781.389 53.9013 781.389 58.8839 Q781.389 62.8538 783.982 65.2034 Q786.615 67.5124 791.111 67.5124 Q797.309 67.5124 801.036 63.1374 Q804.803 58.7219 804.803 51.4303 L804.803 49.7694 L797.39 49.7694 M812.257 46.6907 L812.257 72.576 L804.803 72.576 L804.803 65.6895 Q802.251 69.8214 798.443 71.8063 Q794.635 73.7508 789.126 73.7508 Q782.159 73.7508 778.027 69.8619 Q773.935 65.9325 773.935 59.3701 Q773.935 51.7138 779.039 47.825 Q784.184 43.9361 794.352 43.9361 L804.803 43.9361 L804.803 43.2069 Q804.803 38.0623 801.4 35.2672 Q798.038 32.4315 791.921 32.4315 Q788.033 32.4315 784.346 33.3632 Q780.66 34.295 777.257 36.1584 L777.257 29.2718 Q781.349 27.692 785.197 26.9223 Q789.045 26.1121 792.691 26.1121 Q802.535 26.1121 807.396 31.2163 Q812.257 36.3204 812.257 46.6907 Z" fill="#000000" fill-rule="nonzero" fill-opacity="1" /><path clip-path="url(#clip550)" d="M865.324 45.1919 L865.324 72.576 L857.87 72.576 L857.87 45.4349 Q857.87 38.994 855.359 35.7938 Q852.847 32.5936 847.824 32.5936 Q841.788 32.5936 838.304 36.4419 Q834.82 40.2903 834.82 46.9338 L834.82 72.576 L827.326 72.576 L827.326 27.2059 L834.82 27.2059 L834.82 34.2544 Q837.494 30.163 841.099 28.1376 Q844.745 26.1121 849.485 26.1121 Q857.303 26.1121 861.313 30.9732 Q865.324 35.7938 865.324 45.1919 Z" fill="#000000" fill-rule="nonzero" fill-opacity="1" /><path clip-path="url(#clip550)" d="M912.841 28.9478 L912.841 35.9153 Q909.681 34.1734 906.481 33.3227 Q903.321 32.4315 900.081 32.4315 Q892.829 32.4315 888.819 37.0496 Q884.809 41.6271 884.809 49.9314 Q884.809 58.2358 888.819 62.8538 Q892.829 67.4314 900.081 67.4314 Q903.321 67.4314 906.481 66.5807 Q909.681 65.6895 912.841 63.9476 L912.841 70.8341 Q909.722 72.2924 906.359 73.0216 Q903.038 73.7508 899.27 73.7508 Q889.022 73.7508 882.986 67.3098 Q876.95 60.8689 876.95 49.9314 Q876.95 38.832 883.026 32.472 Q889.143 26.1121 899.756 26.1121 Q903.2 26.1121 906.481 26.8413 Q909.762 27.5299 912.841 28.9478 Z" fill="#000000" fill-rule="nonzero" fill-opacity="1" /><path clip-path="url(#clip550)" d="M964.611 48.0275 L964.611 51.6733 L930.341 51.6733 Q930.827 59.3701 934.959 63.421 Q939.131 67.4314 946.544 67.4314 Q950.838 67.4314 954.849 66.3781 Q958.9 65.3249 962.87 63.2184 L962.87 70.267 Q958.859 71.9684 954.646 72.8596 Q950.433 73.7508 946.099 73.7508 Q935.242 73.7508 928.882 67.4314 Q922.563 61.1119 922.563 50.3365 Q922.563 39.1965 928.558 32.6746 Q934.594 26.1121 944.802 26.1121 Q953.958 26.1121 959.264 32.0264 Q964.611 37.9003 964.611 48.0275 M957.158 45.84 Q957.077 39.7232 953.714 36.0774 Q950.393 32.4315 944.884 32.4315 Q938.645 32.4315 934.878 35.9558 Q931.151 39.4801 930.584 45.8805 L957.158 45.84 Z" fill="#000000" fill-rule="nonzero" fill-opacity="1" /><path clip-path="url(#clip550)" d="M1020.8 32.4315 Q1014.8 32.4315 1011.32 37.1306 Q1007.83 41.7891 1007.83 49.9314 Q1007.83 58.0738 1011.28 62.7728 Q1014.76 67.4314 1020.8 67.4314 Q1026.75 67.4314 1030.24 62.7323 Q1033.72 58.0333 1033.72 49.9314 Q1033.72 41.8701 1030.24 37.1711 Q1026.75 32.4315 1020.8 32.4315 M1020.8 26.1121 Q1030.52 26.1121 1036.07 32.4315 Q1041.62 38.7509 1041.62 49.9314 Q1041.62 61.0714 1036.07 67.4314 Q1030.52 73.7508 1020.8 73.7508 Q1011.03 73.7508 1005.49 67.4314 Q999.976 61.0714 999.976 49.9314 Q999.976 38.7509 1005.49 32.4315 Q1011.03 26.1121 1020.8 26.1121 Z" fill="#000000" fill-rule="nonzero" fill-opacity="1" /><path clip-path="url(#clip550)" d="M1076.94 9.54393 L1076.94 15.7418 L1069.81 15.7418 Q1065.8 15.7418 1064.22 17.3622 Q1062.68 18.9825 1062.68 23.1955 L1062.68 27.2059 L1074.96 27.2059 L1074.96 32.9987 L1062.68 32.9987 L1062.68 72.576 L1055.19 72.576 L1055.19 32.9987 L1048.06 32.9987 L1048.06 27.2059 L1055.19 27.2059 L1055.19 24.0462 Q1055.19 16.471 1058.71 13.0277 Q1062.24 9.54393 1069.89 9.54393 L1076.94 9.54393 Z" fill="#000000" fill-rule="nonzero" fill-opacity="1" /><path clip-path="url(#clip550)" d="M1139.41 34.0924 L1139.41 9.54393 L1146.86 9.54393 L1146.86 72.576 L1139.41 72.576 L1139.41 65.7705 Q1137.06 69.8214 1133.45 71.8063 Q1129.89 73.7508 1124.87 73.7508 Q1116.64 73.7508 1111.46 67.1883 Q1106.31 60.6258 1106.31 49.9314 Q1106.31 39.2371 1111.46 32.6746 Q1116.64 26.1121 1124.87 26.1121 Q1129.89 26.1121 1133.45 28.0971 Q1137.06 30.0415 1139.41 34.0924 M1114.01 49.9314 Q1114.01 58.1548 1117.37 62.8538 Q1120.77 67.5124 1126.69 67.5124 Q1132.6 67.5124 1136.01 62.8538 Q1139.41 58.1548 1139.41 49.9314 Q1139.41 41.7081 1136.01 37.0496 Q1132.6 32.3505 1126.69 32.3505 Q1120.77 32.3505 1117.37 37.0496 Q1114.01 41.7081 1114.01 49.9314 Z" fill="#000000" fill-rule="nonzero" fill-opacity="1" /><path clip-path="url(#clip550)" d="M1162.21 27.2059 L1169.67 27.2059 L1169.67 72.576 L1162.21 72.576 L1162.21 27.2059 M1162.21 9.54393 L1169.67 9.54393 L1169.67 18.9825 L1162.21 18.9825 L1162.21 9.54393 Z" fill="#000000" fill-rule="nonzero" fill-opacity="1" /><path clip-path="url(#clip550)" d="M1214.19 28.5427 L1214.19 35.5912 Q1211.03 33.9709 1207.63 33.1607 Q1204.22 32.3505 1200.58 32.3505 Q1195.03 32.3505 1192.23 34.0519 Q1189.48 35.7533 1189.48 39.156 Q1189.48 41.7486 1191.46 43.2475 Q1193.45 44.7058 1199.44 46.0426 L1201.99 46.6097 Q1209.93 48.3111 1213.26 51.4303 Q1216.62 54.509 1216.62 60.0587 Q1216.62 66.3781 1211.6 70.0644 Q1206.61 73.7508 1197.86 73.7508 Q1194.22 73.7508 1190.25 73.0216 Q1186.32 72.3329 1181.94 70.9151 L1181.94 63.2184 Q1186.07 65.3654 1190.08 66.4591 Q1194.1 67.5124 1198.02 67.5124 Q1203.29 67.5124 1206.13 65.73 Q1208.96 63.9071 1208.96 60.6258 Q1208.96 57.5877 1206.9 55.9673 Q1204.87 54.3469 1197.94 52.8481 L1195.35 52.2405 Q1188.42 50.7821 1185.35 47.7845 Q1182.27 44.7463 1182.27 39.4801 Q1182.27 33.0797 1186.8 29.5959 Q1191.34 26.1121 1199.69 26.1121 Q1203.82 26.1121 1207.46 26.7198 Q1211.11 27.3274 1214.19 28.5427 Z" fill="#000000" fill-rule="nonzero" fill-opacity="1" /><path clip-path="url(#clip550)" d="M1235.7 65.7705 L1235.7 89.8329 L1228.2 89.8329 L1228.2 27.2059 L1235.7 27.2059 L1235.7 34.0924 Q1238.05 30.0415 1241.61 28.0971 Q1245.22 26.1121 1250.2 26.1121 Q1258.46 26.1121 1263.61 32.6746 Q1268.79 39.2371 1268.79 49.9314 Q1268.79 60.6258 1263.61 67.1883 Q1258.46 73.7508 1250.2 73.7508 Q1245.22 73.7508 1241.61 71.8063 Q1238.05 69.8214 1235.7 65.7705 M1261.06 49.9314 Q1261.06 41.7081 1257.65 37.0496 Q1254.29 32.3505 1248.38 32.3505 Q1242.46 32.3505 1239.06 37.0496 Q1235.7 41.7081 1235.7 49.9314 Q1235.7 58.1548 1239.06 62.8538 Q1242.46 67.5124 1248.38 67.5124 Q1254.29 67.5124 1257.65 62.8538 Q1261.06 58.1548 1261.06 49.9314 Z" fill="#000000" fill-rule="nonzero" fill-opacity="1" /><path clip-path="url(#clip550)" d="M1281.15 9.54393 L1288.6 9.54393 L1288.6 72.576 L1281.15 72.576 L1281.15 9.54393 Z" fill="#000000" fill-rule="nonzero" fill-opacity="1" /><path clip-path="url(#clip550)" d="M1324.82 49.7694 Q1315.78 49.7694 1312.3 51.8354 Q1308.82 53.9013 1308.82 58.8839 Q1308.82 62.8538 1311.41 65.2034 Q1314.04 67.5124 1318.54 67.5124 Q1324.74 67.5124 1328.46 63.1374 Q1332.23 58.7219 1332.23 51.4303 L1332.23 49.7694 L1324.82 49.7694 M1339.68 46.6907 L1339.68 72.576 L1332.23 72.576 L1332.23 65.6895 Q1329.68 69.8214 1325.87 71.8063 Q1322.06 73.7508 1316.55 73.7508 Q1309.59 73.7508 1305.45 69.8619 Q1301.36 65.9325 1301.36 59.3701 Q1301.36 51.7138 1306.47 47.825 Q1311.61 43.9361 1321.78 43.9361 L1332.23 43.9361 L1332.23 43.2069 Q1332.23 38.0623 1328.83 35.2672 Q1325.47 32.4315 1319.35 32.4315 Q1315.46 32.4315 1311.77 33.3632 Q1308.09 34.295 1304.68 36.1584 L1304.68 29.2718 Q1308.78 27.692 1312.62 26.9223 Q1316.47 26.1121 1320.12 26.1121 Q1329.96 26.1121 1334.82 31.2163 Q1339.68 36.3204 1339.68 46.6907 Z" fill="#000000" fill-rule="nonzero" fill-opacity="1" /><path clip-path="url(#clip550)" d="M1387.69 28.9478 L1387.69 35.9153 Q1384.53 34.1734 1381.33 33.3227 Q1378.17 32.4315 1374.93 32.4315 Q1367.68 32.4315 1363.67 37.0496 Q1359.66 41.6271 1359.66 49.9314 Q1359.66 58.2358 1363.67 62.8538 Q1367.68 67.4314 1374.93 67.4314 Q1378.17 67.4314 1381.33 66.5807 Q1384.53 65.6895 1387.69 63.9476 L1387.69 70.8341 Q1384.57 72.2924 1381.21 73.0216 Q1377.88 73.7508 1374.12 73.7508 Q1363.87 73.7508 1357.83 67.3098 Q1351.8 60.8689 1351.8 49.9314 Q1351.8 38.832 1357.87 32.472 Q1363.99 26.1121 1374.6 26.1121 Q1378.05 26.1121 1381.33 26.8413 Q1384.61 27.5299 1387.69 28.9478 Z" fill="#000000" fill-rule="nonzero" fill-opacity="1" /><path clip-path="url(#clip550)" d="M1439.46 48.0275 L1439.46 51.6733 L1405.19 51.6733 Q1405.67 59.3701 1409.81 63.421 Q1413.98 67.4314 1421.39 67.4314 Q1425.69 67.4314 1429.7 66.3781 Q1433.75 65.3249 1437.72 63.2184 L1437.72 70.267 Q1433.71 71.9684 1429.49 72.8596 Q1425.28 73.7508 1420.95 73.7508 Q1410.09 73.7508 1403.73 67.4314 Q1397.41 61.1119 1397.41 50.3365 Q1397.41 39.1965 1403.41 32.6746 Q1409.44 26.1121 1419.65 26.1121 Q1428.8 26.1121 1434.11 32.0264 Q1439.46 37.9003 1439.46 48.0275 M1432 45.84 Q1431.92 39.7232 1428.56 36.0774 Q1425.24 32.4315 1419.73 32.4315 Q1413.49 32.4315 1409.72 35.9558 Q1406 39.4801 1405.43 45.8805 L1432 45.84 Z" fill="#000000" fill-rule="nonzero" fill-opacity="1" /><path clip-path="url(#clip550)" d="M1487.02 35.9153 Q1489.81 30.8922 1493.7 28.5022 Q1497.59 26.1121 1502.86 26.1121 Q1509.94 26.1121 1513.79 31.0947 Q1517.64 36.0368 1517.64 45.1919 L1517.64 72.576 L1510.15 72.576 L1510.15 45.4349 Q1510.15 38.913 1507.84 35.7533 Q1505.53 32.5936 1500.79 32.5936 Q1495 32.5936 1491.63 36.4419 Q1488.27 40.2903 1488.27 46.9338 L1488.27 72.576 L1480.78 72.576 L1480.78 45.4349 Q1480.78 38.8725 1478.47 35.7533 Q1476.16 32.5936 1471.34 32.5936 Q1465.63 32.5936 1462.27 36.4824 Q1458.9 40.3308 1458.9 46.9338 L1458.9 72.576 L1451.41 72.576 L1451.41 27.2059 L1458.9 27.2059 L1458.9 34.2544 Q1461.45 30.082 1465.02 28.0971 Q1468.58 26.1121 1473.49 26.1121 Q1478.43 26.1121 1481.87 28.6237 Q1485.36 31.1352 1487.02 35.9153 Z" fill="#000000" fill-rule="nonzero" fill-opacity="1" /><path clip-path="url(#clip550)" d="M1571.32 48.0275 L1571.32 51.6733 L1537.04 51.6733 Q1537.53 59.3701 1541.66 63.421 Q1545.84 67.4314 1553.25 67.4314 Q1557.54 67.4314 1561.55 66.3781 Q1565.6 65.3249 1569.57 63.2184 L1569.57 70.267 Q1565.56 71.9684 1561.35 72.8596 Q1557.14 73.7508 1552.8 73.7508 Q1541.95 73.7508 1535.59 67.4314 Q1529.27 61.1119 1529.27 50.3365 Q1529.27 39.1965 1535.26 32.6746 Q1541.3 26.1121 1551.51 26.1121 Q1560.66 26.1121 1565.97 32.0264 Q1571.32 37.9003 1571.32 48.0275 M1563.86 45.84 Q1563.78 39.7232 1560.42 36.0774 Q1557.1 32.4315 1551.59 32.4315 Q1545.35 32.4315 1541.58 35.9558 Q1537.85 39.4801 1537.29 45.8805 L1563.86 45.84 Z" fill="#000000" fill-rule="nonzero" fill-opacity="1" /><path clip-path="url(#clip550)" d="M1621.26 45.1919 L1621.26 72.576 L1613.81 72.576 L1613.81 45.4349 Q1613.81 38.994 1611.3 35.7938 Q1608.79 32.5936 1603.76 32.5936 Q1597.73 32.5936 1594.24 36.4419 Q1590.76 40.2903 1590.76 46.9338 L1590.76 72.576 L1583.27 72.576 L1583.27 27.2059 L1590.76 27.2059 L1590.76 34.2544 Q1593.43 30.163 1597.04 28.1376 Q1600.68 26.1121 1605.42 26.1121 Q1613.24 26.1121 1617.25 30.9732 Q1621.26 35.7938 1621.26 45.1919 Z" fill="#000000" fill-rule="nonzero" fill-opacity="1" /><path clip-path="url(#clip550)" d="M1643.5 14.324 L1643.5 27.2059 L1658.86 27.2059 L1658.86 32.9987 L1643.5 32.9987 L1643.5 57.6282 Q1643.5 63.1779 1645 64.7578 Q1646.54 66.3376 1651.2 66.3376 L1658.86 66.3376 L1658.86 72.576 L1651.2 72.576 Q1642.57 72.576 1639.29 69.3758 Q1636.01 66.1351 1636.01 57.6282 L1636.01 32.9987 L1630.54 32.9987 L1630.54 27.2059 L1636.01 27.2059 L1636.01 14.324 L1643.5 14.324 Z" fill="#000000" fill-rule="nonzero" fill-opacity="1" /><path clip-path="url(#clip550)" d="M1689.68 27.2059 L1697.58 27.2059 L1711.76 65.2844 L1725.94 27.2059 L1733.84 27.2059 L1716.82 72.576 L1706.7 72.576 L1689.68 27.2059 Z" fill="#000000" fill-rule="nonzero" fill-opacity="1" /><path clip-path="url(#clip550)" d="M1773.05 28.5427 L1773.05 35.5912 Q1769.89 33.9709 1766.49 33.1607 Q1763.09 32.3505 1759.44 32.3505 Q1753.89 32.3505 1751.09 34.0519 Q1748.34 35.7533 1748.34 39.156 Q1748.34 41.7486 1750.32 43.2475 Q1752.31 44.7058 1758.31 46.0426 L1760.86 46.6097 Q1768.8 48.3111 1772.12 51.4303 Q1775.48 54.509 1775.48 60.0587 Q1775.48 66.3781 1770.46 70.0644 Q1765.48 73.7508 1756.73 73.7508 Q1753.08 73.7508 1749.11 73.0216 Q1745.18 72.3329 1740.81 70.9151 L1740.81 63.2184 Q1744.94 65.3654 1748.95 66.4591 Q1752.96 67.5124 1756.89 67.5124 Q1762.15 67.5124 1764.99 65.73 Q1767.82 63.9071 1767.82 60.6258 Q1767.82 57.5877 1765.76 55.9673 Q1763.73 54.3469 1756.81 52.8481 L1754.21 52.2405 Q1747.29 50.7821 1744.21 47.7845 Q1741.13 44.7463 1741.13 39.4801 Q1741.13 33.0797 1745.67 29.5959 Q1750.2 26.1121 1758.55 26.1121 Q1762.68 26.1121 1766.33 26.7198 Q1769.97 27.3274 1773.05 28.5427 Z" fill="#000000" fill-rule="nonzero" fill-opacity="1" /><path clip-path="url(#clip550)" d="M1821.09 14.324 L1821.09 27.2059 L1836.45 27.2059 L1836.45 32.9987 L1821.09 32.9987 L1821.09 57.6282 Q1821.09 63.1779 1822.59 64.7578 Q1824.13 66.3376 1828.79 66.3376 L1836.45 66.3376 L1836.45 72.576 L1828.79 72.576 Q1820.16 72.576 1816.88 69.3758 Q1813.6 66.1351 1813.6 57.6282 L1813.6 32.9987 L1808.13 32.9987 L1808.13 27.2059 L1813.6 27.2059 L1813.6 14.324 L1821.09 14.324 Z" fill="#000000" fill-rule="nonzero" fill-opacity="1" /><path clip-path="url(#clip550)" d="M1846.25 27.2059 L1853.7 27.2059 L1853.7 72.576 L1846.25 72.576 L1846.25 27.2059 M1846.25 9.54393 L1853.7 9.54393 L1853.7 18.9825 L1846.25 18.9825 L1846.25 9.54393 Z" fill="#000000" fill-rule="nonzero" fill-opacity="1" /><path clip-path="url(#clip550)" d="M1904.62 35.9153 Q1907.42 30.8922 1911.31 28.5022 Q1915.2 26.1121 1920.46 26.1121 Q1927.55 26.1121 1931.4 31.0947 Q1935.25 36.0368 1935.25 45.1919 L1935.25 72.576 L1927.75 72.576 L1927.75 45.4349 Q1927.75 38.913 1925.45 35.7533 Q1923.14 32.5936 1918.4 32.5936 Q1912.6 32.5936 1909.24 36.4419 Q1905.88 40.2903 1905.88 46.9338 L1905.88 72.576 L1898.39 72.576 L1898.39 45.4349 Q1898.39 38.8725 1896.08 35.7533 Q1893.77 32.5936 1888.95 32.5936 Q1883.23 32.5936 1879.87 36.4824 Q1876.51 40.3308 1876.51 46.9338 L1876.51 72.576 L1869.02 72.576 L1869.02 27.2059 L1876.51 27.2059 L1876.51 34.2544 Q1879.06 30.082 1882.63 28.0971 Q1886.19 26.1121 1891.09 26.1121 Q1896.04 26.1121 1899.48 28.6237 Q1902.96 31.1352 1904.62 35.9153 Z" fill="#000000" fill-rule="nonzero" fill-opacity="1" /><path clip-path="url(#clip550)" d="M1988.92 48.0275 L1988.92 51.6733 L1954.65 51.6733 Q1955.14 59.3701 1959.27 63.421 Q1963.44 67.4314 1970.86 67.4314 Q1975.15 67.4314 1979.16 66.3781 Q1983.21 65.3249 1987.18 63.2184 L1987.18 70.267 Q1983.17 71.9684 1978.96 72.8596 Q1974.74 73.7508 1970.41 73.7508 Q1959.55 73.7508 1953.19 67.4314 Q1946.87 61.1119 1946.87 50.3365 Q1946.87 39.1965 1952.87 32.6746 Q1958.91 26.1121 1969.11 26.1121 Q1978.27 26.1121 1983.58 32.0264 Q1988.92 37.9003 1988.92 48.0275 M1981.47 45.84 Q1981.39 39.7232 1978.03 36.0774 Q1974.7 32.4315 1969.2 32.4315 Q1962.96 32.4315 1959.19 35.9558 Q1955.46 39.4801 1954.9 45.8805 L1981.47 45.84 Z" fill="#000000" fill-rule="nonzero" fill-opacity="1" /><polyline clip-path="url(#clip552)" style="stroke:#009af9; stroke-linecap:round; stroke-linejoin:round; stroke-width:4; stroke-opacity:1; fill:none" points="307.043,1386.4 307.043,1386.4 307.044,1386.39 307.045,1386.39 307.046,1386.39 307.048,1386.39 307.049,1386.39 307.051,1386.39 307.053,1386.39 307.055,1386.39 307.057,1386.39 307.06,1386.38 307.063,1386.38 307.066,1386.38 307.07,1386.38 307.074,1386.38 307.079,1386.37 307.084,1386.37 307.09,1386.37 307.097,1386.36 307.105,1386.36 307.113,1386.35 307.123,1386.35 307.134,1386.34 307.146,1386.33 307.159,1386.32 307.175,1386.31 307.192,1386.3 307.212,1386.29 307.234,1386.28 307.258,1386.26 307.286,1386.24 307.317,1386.22 307.352,1386.2 307.392,1386.18 307.436,1386.15 307.486,1386.12 307.543,1386.08 307.606,1386.05 307.677,1386 307.757,1385.95 307.848,1385.89 307.949,1385.83 308.063,1385.76 308.192,1385.68 308.336,1385.59 308.498,1385.48 308.681,1385.37 308.887,1385.24 309.118,1385.1 309.378,1384.94 309.671,1384.75 310.001,1384.54 310.371,1384.32 310.788,1384.06 311.257,1383.78 311.785,1383.46 312.378,1383.09 313.046,1382.67 313.797,1382.19 314.642,1381.65 315.593,1381.06 316.663,1380.37 317.866,1379.63 319.22,1378.79 320.743,1377.85 322.456,1376.79 324.384,1375.58 326.552,1374.21 328.992,1372.74 331.736,1371.03 334.824,1369.12 338.297,1366.91 342.205,1364.47 346.601,1361.76 351.546,1358.67 357.11,1355.28 363.37,1351.3 370.411,1346.97 378.333,1342.03 387.245,1336.51 397.271,1330.3 408.551,1322.96 421.24,1314.93 435.516,1306.04 451.576,1295.85 469.643,1284.78 489.969,1272.32 512.835,1258.27 538.56,1242.07 567.501,1223.83 600.059,1204.03 636.687,1181.81 677.893,1157.17 724.25,1128.96 776.402,1096.41 835.073,1059.96 901.077,1018.77 975.332,972.841 1058.87,921.093 1152.85,862.527 1258.58,797.508 1377.52,723 1511.33,642.654 1661.86,548.81 1831.22,443.003 2021.74,326.134 2236.08,194.258 2293.17,160.256 "/>
<path clip-path="url(#clip550)" d="M317.635 270.476 L580.595 270.476 L580.595 166.796 L317.635 166.796  Z" fill="#ffffff" fill-rule="evenodd" fill-opacity="1"/>
<polyline clip-path="url(#clip550)" style="stroke:#000000; stroke-linecap:round; stroke-linejoin:round; stroke-width:4; stroke-opacity:1; fill:none" points="317.635,270.476 580.595,270.476 580.595,166.796 317.635,166.796 317.635,270.476 "/>
<polyline clip-path="url(#clip550)" style="stroke:#009af9; stroke-linecap:round; stroke-linejoin:round; stroke-width:4; stroke-opacity:1; fill:none" points="341.027,218.636 481.381,218.636 "/>
<path clip-path="url(#clip550)" d="M518.615 238.323 Q516.81 242.953 515.097 244.365 Q513.384 245.777 510.514 245.777 L507.111 245.777 L507.111 242.212 L509.611 242.212 Q511.37 242.212 512.342 241.379 Q513.314 240.545 514.495 237.443 L515.259 235.499 L504.773 209.99 L509.287 209.99 L517.388 230.268 L525.49 209.99 L530.004 209.99 L518.615 238.323 Z" fill="#000000" fill-rule="nonzero" fill-opacity="1" /><path clip-path="url(#clip550)" d="M537.296 231.981 L544.935 231.981 L544.935 205.615 L536.624 207.282 L536.624 203.022 L544.888 201.356 L549.564 201.356 L549.564 231.981 L557.203 231.981 L557.203 235.916 L537.296 235.916 L537.296 231.981 Z" fill="#000000" fill-rule="nonzero" fill-opacity="1" /></svg>
