<?xml version="1.0" encoding="utf-8"?>
<svg xmlns="http://www.w3.org/2000/svg" xmlns:xlink="http://www.w3.org/1999/xlink" width="600" height="400" viewBox="0 0 2400 1600">
<defs>
  <clipPath id="clip390">
    <rect x="0" y="0" width="2400" height="1600"/>
  </clipPath>
</defs>
<path clip-path="url(#clip390)" d="M0 1600 L2400 1600 L2400 0 L0 0  Z" fill="#ffffff" fill-rule="evenodd" fill-opacity="1"/>
<defs>
  <clipPath id="clip391">
    <rect x="480" y="0" width="1681" height="1600"/>
  </clipPath>
</defs>
<path clip-path="url(#clip390)" d="M175.445 1423.18 L2352.76 1423.18 L2352.76 123.472 L175.445 123.472  Z" fill="#ffffff" fill-rule="evenodd" fill-opacity="1"/>
<defs>
  <clipPath id="clip392">
    <rect x="175" y="123" width="2178" height="1301"/>
  </clipPath>
</defs>
<polyline clip-path="url(#clip392)" style="stroke:#000000; stroke-linecap:round; stroke-linejoin:round; stroke-width:2; stroke-opacity:0.1; fill:none" points="595.185,1423.18 595.185,123.472 "/>
<polyline clip-path="url(#clip392)" style="stroke:#000000; stroke-linecap:round; stroke-linejoin:round; stroke-width:2; stroke-opacity:0.1; fill:none" points="1095.62,1423.18 1095.62,123.472 "/>
<polyline clip-path="url(#clip392)" style="stroke:#000000; stroke-linecap:round; stroke-linejoin:round; stroke-width:2; stroke-opacity:0.1; fill:none" points="1596.05,1423.18 1596.05,123.472 "/>
<polyline clip-path="url(#clip392)" style="stroke:#000000; stroke-linecap:round; stroke-linejoin:round; stroke-width:2; stroke-opacity:0.1; fill:none" points="2096.49,1423.18 2096.49,123.472 "/>
<polyline clip-path="url(#clip390)" style="stroke:#000000; stroke-linecap:round; stroke-linejoin:round; stroke-width:4; stroke-opacity:1; fill:none" points="175.445,1423.18 2352.76,1423.18 "/>
<polyline clip-path="url(#clip390)" style="stroke:#000000; stroke-linecap:round; stroke-linejoin:round; stroke-width:4; stroke-opacity:1; fill:none" points="595.185,1423.18 595.185,1404.28 "/>
<polyline clip-path="url(#clip390)" style="stroke:#000000; stroke-linecap:round; stroke-linejoin:round; stroke-width:4; stroke-opacity:1; fill:none" points="1095.62,1423.18 1095.62,1404.28 "/>
<polyline clip-path="url(#clip390)" style="stroke:#000000; stroke-linecap:round; stroke-linejoin:round; stroke-width:4; stroke-opacity:1; fill:none" points="1596.05,1423.18 1596.05,1404.28 "/>
<polyline clip-path="url(#clip390)" style="stroke:#000000; stroke-linecap:round; stroke-linejoin:round; stroke-width:4; stroke-opacity:1; fill:none" points="2096.49,1423.18 2096.49,1404.28 "/>
<path clip-path="url(#clip390)" d="M589.838 1481.64 L606.157 1481.64 L606.157 1485.58 L584.213 1485.58 L584.213 1481.64 Q586.875 1478.89 591.458 1474.26 Q596.065 1469.61 597.245 1468.27 Q599.491 1465.74 600.37 1464.01 Q601.273 1462.25 601.273 1460.56 Q601.273 1457.8 599.329 1456.07 Q597.407 1454.33 594.305 1454.33 Q592.106 1454.33 589.653 1455.09 Q587.222 1455.86 584.444 1457.41 L584.444 1452.69 Q587.268 1451.55 589.722 1450.97 Q592.176 1450.39 594.213 1450.39 Q599.583 1450.39 602.778 1453.08 Q605.972 1455.77 605.972 1460.26 Q605.972 1462.39 605.162 1464.31 Q604.375 1466.2 602.268 1468.8 Q601.69 1469.47 598.588 1472.69 Q595.486 1475.88 589.838 1481.64 Z" fill="#000000" fill-rule="nonzero" fill-opacity="1" /><path clip-path="url(#clip390)" d="M1098.63 1455.09 L1086.82 1473.54 L1098.63 1473.54 L1098.63 1455.09 M1097.4 1451.02 L1103.28 1451.02 L1103.28 1473.54 L1108.21 1473.54 L1108.21 1477.43 L1103.28 1477.43 L1103.28 1485.58 L1098.63 1485.58 L1098.63 1477.43 L1083.03 1477.43 L1083.03 1472.92 L1097.4 1451.02 Z" fill="#000000" fill-rule="nonzero" fill-opacity="1" /><path clip-path="url(#clip390)" d="M1596.46 1466.44 Q1593.31 1466.44 1591.46 1468.59 Q1589.63 1470.74 1589.63 1474.49 Q1589.63 1478.22 1591.46 1480.39 Q1593.31 1482.55 1596.46 1482.55 Q1599.61 1482.55 1601.43 1480.39 Q1603.29 1478.22 1603.29 1474.49 Q1603.29 1470.74 1601.43 1468.59 Q1599.61 1466.44 1596.46 1466.44 M1605.74 1451.78 L1605.74 1456.04 Q1603.98 1455.21 1602.18 1454.77 Q1600.39 1454.33 1598.63 1454.33 Q1594 1454.33 1591.55 1457.45 Q1589.12 1460.58 1588.77 1466.9 Q1590.14 1464.89 1592.2 1463.82 Q1594.26 1462.73 1596.74 1462.73 Q1601.94 1462.73 1604.95 1465.9 Q1607.99 1469.05 1607.99 1474.49 Q1607.99 1479.82 1604.84 1483.03 Q1601.69 1486.25 1596.46 1486.25 Q1590.46 1486.25 1587.29 1481.67 Q1584.12 1477.06 1584.12 1468.33 Q1584.12 1460.14 1588.01 1455.28 Q1591.9 1450.39 1598.45 1450.39 Q1600.21 1450.39 1601.99 1450.74 Q1603.8 1451.09 1605.74 1451.78 Z" fill="#000000" fill-rule="nonzero" fill-opacity="1" /><path clip-path="url(#clip390)" d="M2096.49 1469.17 Q2093.15 1469.17 2091.23 1470.95 Q2089.33 1472.73 2089.33 1475.86 Q2089.33 1478.98 2091.23 1480.77 Q2093.15 1482.55 2096.49 1482.55 Q2099.82 1482.55 2101.74 1480.77 Q2103.66 1478.96 2103.66 1475.86 Q2103.66 1472.73 2101.74 1470.95 Q2099.84 1469.17 2096.49 1469.17 M2091.81 1467.18 Q2088.8 1466.44 2087.11 1464.38 Q2085.45 1462.32 2085.45 1459.35 Q2085.45 1455.21 2088.39 1452.8 Q2091.35 1450.39 2096.49 1450.39 Q2101.65 1450.39 2104.59 1452.8 Q2107.53 1455.21 2107.53 1459.35 Q2107.53 1462.32 2105.84 1464.38 Q2104.17 1466.44 2101.19 1467.18 Q2104.57 1467.96 2106.44 1470.26 Q2108.34 1472.55 2108.34 1475.86 Q2108.34 1480.88 2105.26 1483.57 Q2102.2 1486.25 2096.49 1486.25 Q2090.77 1486.25 2087.69 1483.57 Q2084.64 1480.88 2084.64 1475.86 Q2084.64 1472.55 2086.53 1470.26 Q2088.43 1467.96 2091.81 1467.18 M2090.1 1459.79 Q2090.1 1462.48 2091.76 1463.98 Q2093.45 1465.49 2096.49 1465.49 Q2099.5 1465.49 2101.19 1463.98 Q2102.9 1462.48 2102.9 1459.79 Q2102.9 1457.11 2101.19 1455.6 Q2099.5 1454.1 2096.49 1454.1 Q2093.45 1454.1 2091.76 1455.6 Q2090.1 1457.11 2090.1 1459.79 Z" fill="#000000" fill-rule="nonzero" fill-opacity="1" /><path clip-path="url(#clip390)" d="M1169.33 1545.76 Q1171.4 1546.46 1173.34 1548.76 Q1175.31 1551.05 1177.29 1555.06 L1183.81 1568.04 L1176.91 1568.04 L1170.83 1555.85 Q1168.47 1551.08 1166.24 1549.52 Q1164.05 1547.96 1160.23 1547.96 L1153.23 1547.96 L1153.23 1568.04 L1146.8 1568.04 L1146.8 1520.52 L1161.31 1520.52 Q1169.46 1520.52 1173.47 1523.93 Q1177.48 1527.34 1177.48 1534.21 Q1177.48 1538.7 1175.38 1541.66 Q1173.31 1544.62 1169.33 1545.76 M1153.23 1525.81 L1153.23 1542.68 L1161.31 1542.68 Q1165.96 1542.68 1168.31 1540.54 Q1170.7 1538.38 1170.7 1534.21 Q1170.7 1530.04 1168.31 1527.94 Q1165.96 1525.81 1161.31 1525.81 L1153.23 1525.81 Z" fill="#000000" fill-rule="nonzero" fill-opacity="1" /><path clip-path="url(#clip390)" d="M1206.6 1550.12 Q1199.5 1550.12 1196.77 1551.75 Q1194.03 1553.37 1194.03 1557.29 Q1194.03 1560.4 1196.07 1562.25 Q1198.14 1564.07 1201.67 1564.07 Q1206.54 1564.07 1209.47 1560.63 Q1212.43 1557.16 1212.43 1551.43 L1212.43 1550.12 L1206.6 1550.12 M1218.28 1547.71 L1218.28 1568.04 L1212.43 1568.04 L1212.43 1562.63 Q1210.42 1565.88 1207.43 1567.44 Q1204.44 1568.97 1200.11 1568.97 Q1194.63 1568.97 1191.39 1565.91 Q1188.17 1562.82 1188.17 1557.67 Q1188.17 1551.65 1192.18 1548.6 Q1196.23 1545.54 1204.22 1545.54 L1212.43 1545.54 L1212.43 1544.97 Q1212.43 1540.93 1209.75 1538.73 Q1207.11 1536.5 1202.31 1536.5 Q1199.25 1536.5 1196.35 1537.23 Q1193.46 1537.97 1190.78 1539.43 L1190.78 1534.02 Q1194 1532.78 1197.02 1532.17 Q1200.05 1531.54 1202.91 1531.54 Q1210.64 1531.54 1214.46 1535.55 Q1218.28 1539.56 1218.28 1547.71 Z" fill="#000000" fill-rule="nonzero" fill-opacity="1" /><path clip-path="url(#clip390)" d="M1255.94 1550.25 Q1255.94 1543.79 1253.26 1540.13 Q1250.62 1536.44 1245.97 1536.44 Q1241.33 1536.44 1238.65 1540.13 Q1236.01 1543.79 1236.01 1550.25 Q1236.01 1556.71 1238.65 1560.4 Q1241.33 1564.07 1245.97 1564.07 Q1250.62 1564.07 1253.26 1560.4 Q1255.94 1556.71 1255.94 1550.25 M1236.01 1537.81 Q1237.86 1534.62 1240.66 1533.1 Q1243.49 1531.54 1247.41 1531.54 Q1253.9 1531.54 1257.94 1536.69 Q1262.02 1541.85 1262.02 1550.25 Q1262.02 1558.65 1257.94 1563.81 Q1253.9 1568.97 1247.41 1568.97 Q1243.49 1568.97 1240.66 1567.44 Q1237.86 1565.88 1236.01 1562.7 L1236.01 1568.04 L1230.12 1568.04 L1230.12 1518.52 L1236.01 1518.52 L1236.01 1537.81 Z" fill="#000000" fill-rule="nonzero" fill-opacity="1" /><path clip-path="url(#clip390)" d="M1297.31 1550.25 Q1297.31 1543.79 1294.64 1540.13 Q1292 1536.44 1287.35 1536.44 Q1282.7 1536.44 1280.03 1540.13 Q1277.39 1543.79 1277.39 1550.25 Q1277.39 1556.71 1280.03 1560.4 Q1282.7 1564.07 1287.35 1564.07 Q1292 1564.07 1294.64 1560.4 Q1297.31 1556.71 1297.31 1550.25 M1277.39 1537.81 Q1279.24 1534.62 1282.04 1533.1 Q1284.87 1531.54 1288.78 1531.54 Q1295.28 1531.54 1299.32 1536.69 Q1303.39 1541.85 1303.39 1550.25 Q1303.39 1558.65 1299.32 1563.81 Q1295.28 1568.97 1288.78 1568.97 Q1284.87 1568.97 1282.04 1567.44 Q1279.24 1565.88 1277.39 1562.7 L1277.39 1568.04 L1271.5 1568.04 L1271.5 1518.52 L1277.39 1518.52 L1277.39 1537.81 Z" fill="#000000" fill-rule="nonzero" fill-opacity="1" /><path clip-path="url(#clip390)" d="M1313.1 1532.4 L1318.96 1532.4 L1318.96 1568.04 L1313.1 1568.04 L1313.1 1532.4 M1313.1 1518.52 L1318.96 1518.52 L1318.96 1525.93 L1313.1 1525.93 L1313.1 1518.52 Z" fill="#000000" fill-rule="nonzero" fill-opacity="1" /><path clip-path="url(#clip390)" d="M1337 1522.27 L1337 1532.4 L1349.07 1532.4 L1349.07 1536.95 L1337 1536.95 L1337 1556.3 Q1337 1560.66 1338.18 1561.9 Q1339.39 1563.14 1343.05 1563.14 L1349.07 1563.14 L1349.07 1568.04 L1343.05 1568.04 Q1336.27 1568.04 1333.69 1565.53 Q1331.12 1562.98 1331.12 1556.3 L1331.12 1536.95 L1326.82 1536.95 L1326.82 1532.4 L1331.12 1532.4 L1331.12 1522.27 L1337 1522.27 Z" fill="#000000" fill-rule="nonzero" fill-opacity="1" /><path clip-path="url(#clip390)" d="M1379.49 1533.45 L1379.49 1538.98 Q1377.01 1537.71 1374.34 1537.07 Q1371.67 1536.44 1368.8 1536.44 Q1364.44 1536.44 1362.24 1537.77 Q1360.08 1539.11 1360.08 1541.79 Q1360.08 1543.82 1361.64 1545 Q1363.2 1546.15 1367.91 1547.2 L1369.91 1547.64 Q1376.15 1548.98 1378.76 1551.43 Q1381.4 1553.85 1381.4 1558.21 Q1381.4 1563.17 1377.46 1566.07 Q1373.54 1568.97 1366.67 1568.97 Q1363.8 1568.97 1360.68 1568.39 Q1357.6 1567.85 1354.16 1566.74 L1354.16 1560.69 Q1357.41 1562.38 1360.56 1563.24 Q1363.71 1564.07 1366.8 1564.07 Q1370.93 1564.07 1373.16 1562.66 Q1375.39 1561.23 1375.39 1558.65 Q1375.39 1556.27 1373.77 1554.99 Q1372.17 1553.72 1366.73 1552.54 L1364.69 1552.07 Q1359.25 1550.92 1356.83 1548.56 Q1354.41 1546.18 1354.41 1542.04 Q1354.41 1537.01 1357.98 1534.27 Q1361.54 1531.54 1368.1 1531.54 Q1371.35 1531.54 1374.21 1532.01 Q1377.08 1532.49 1379.49 1533.45 Z" fill="#000000" fill-rule="nonzero" fill-opacity="1" /><polyline clip-path="url(#clip392)" style="stroke:#000000; stroke-linecap:round; stroke-linejoin:round; stroke-width:2; stroke-opacity:0.1; fill:none" points="175.445,1408.2 2352.76,1408.2 "/>
<polyline clip-path="url(#clip392)" style="stroke:#000000; stroke-linecap:round; stroke-linejoin:round; stroke-width:2; stroke-opacity:0.1; fill:none" points="175.445,1206.32 2352.76,1206.32 "/>
<polyline clip-path="url(#clip392)" style="stroke:#000000; stroke-linecap:round; stroke-linejoin:round; stroke-width:2; stroke-opacity:0.1; fill:none" points="175.445,1004.44 2352.76,1004.44 "/>
<polyline clip-path="url(#clip392)" style="stroke:#000000; stroke-linecap:round; stroke-linejoin:round; stroke-width:2; stroke-opacity:0.1; fill:none" points="175.445,802.565 2352.76,802.565 "/>
<polyline clip-path="url(#clip392)" style="stroke:#000000; stroke-linecap:round; stroke-linejoin:round; stroke-width:2; stroke-opacity:0.1; fill:none" points="175.445,600.689 2352.76,600.689 "/>
<polyline clip-path="url(#clip392)" style="stroke:#000000; stroke-linecap:round; stroke-linejoin:round; stroke-width:2; stroke-opacity:0.1; fill:none" points="175.445,398.812 2352.76,398.812 "/>
<polyline clip-path="url(#clip392)" style="stroke:#000000; stroke-linecap:round; stroke-linejoin:round; stroke-width:2; stroke-opacity:0.1; fill:none" points="175.445,196.935 2352.76,196.935 "/>
<polyline clip-path="url(#clip390)" style="stroke:#000000; stroke-linecap:round; stroke-linejoin:round; stroke-width:4; stroke-opacity:1; fill:none" points="175.445,1423.18 175.445,123.472 "/>
<polyline clip-path="url(#clip390)" style="stroke:#000000; stroke-linecap:round; stroke-linejoin:round; stroke-width:4; stroke-opacity:1; fill:none" points="175.445,1408.2 194.343,1408.2 "/>
<polyline clip-path="url(#clip390)" style="stroke:#000000; stroke-linecap:round; stroke-linejoin:round; stroke-width:4; stroke-opacity:1; fill:none" points="175.445,1206.32 194.343,1206.32 "/>
<polyline clip-path="url(#clip390)" style="stroke:#000000; stroke-linecap:round; stroke-linejoin:round; stroke-width:4; stroke-opacity:1; fill:none" points="175.445,1004.44 194.343,1004.44 "/>
<polyline clip-path="url(#clip390)" style="stroke:#000000; stroke-linecap:round; stroke-linejoin:round; stroke-width:4; stroke-opacity:1; fill:none" points="175.445,802.565 194.343,802.565 "/>
<polyline clip-path="url(#clip390)" style="stroke:#000000; stroke-linecap:round; stroke-linejoin:round; stroke-width:4; stroke-opacity:1; fill:none" points="175.445,600.689 194.343,600.689 "/>
<polyline clip-path="url(#clip390)" style="stroke:#000000; stroke-linecap:round; stroke-linejoin:round; stroke-width:4; stroke-opacity:1; fill:none" points="175.445,398.812 194.343,398.812 "/>
<polyline clip-path="url(#clip390)" style="stroke:#000000; stroke-linecap:round; stroke-linejoin:round; stroke-width:4; stroke-opacity:1; fill:none" points="175.445,196.935 194.343,196.935 "/>
<path clip-path="url(#clip390)" d="M127.501 1393.99 Q123.89 1393.99 122.061 1397.56 Q120.255 1401.1 120.255 1408.23 Q120.255 1415.34 122.061 1418.9 Q123.89 1422.44 127.501 1422.44 Q131.135 1422.44 132.941 1418.9 Q134.769 1415.34 134.769 1408.23 Q134.769 1401.1 132.941 1397.56 Q131.135 1393.99 127.501 1393.99 M127.501 1390.29 Q133.311 1390.29 136.367 1394.9 Q139.445 1399.48 139.445 1408.23 Q139.445 1416.96 136.367 1421.56 Q133.311 1426.15 127.501 1426.15 Q121.691 1426.15 118.612 1421.56 Q115.556 1416.96 115.556 1408.23 Q115.556 1399.48 118.612 1394.9 Q121.691 1390.29 127.501 1390.29 Z" fill="#000000" fill-rule="nonzero" fill-opacity="1" /><path clip-path="url(#clip390)" d="M119.538 1219.66 L127.177 1219.66 L127.177 1193.3 L118.867 1194.96 L118.867 1190.71 L127.13 1189.04 L131.806 1189.04 L131.806 1219.66 L139.445 1219.66 L139.445 1223.6 L119.538 1223.6 L119.538 1219.66 Z" fill="#000000" fill-rule="nonzero" fill-opacity="1" /><path clip-path="url(#clip390)" d="M123.126 1017.79 L139.445 1017.79 L139.445 1021.72 L117.501 1021.72 L117.501 1017.79 Q120.163 1015.03 124.746 1010.4 Q129.353 1005.75 130.533 1004.41 Q132.779 1001.88 133.658 1000.15 Q134.561 998.389 134.561 996.699 Q134.561 993.945 132.617 992.208 Q130.695 990.472 127.593 990.472 Q125.394 990.472 122.941 991.236 Q120.51 992 117.732 993.551 L117.732 988.829 Q120.556 987.695 123.01 987.116 Q125.464 986.537 127.501 986.537 Q132.871 986.537 136.066 989.222 Q139.26 991.908 139.26 996.398 Q139.26 998.528 138.45 1000.45 Q137.663 1002.35 135.556 1004.94 Q134.978 1005.61 131.876 1008.83 Q128.774 1012.02 123.126 1017.79 Z" fill="#000000" fill-rule="nonzero" fill-opacity="1" /><path clip-path="url(#clip390)" d="M132.316 801.211 Q135.672 801.929 137.547 804.197 Q139.445 806.466 139.445 809.799 Q139.445 814.915 135.927 817.716 Q132.408 820.517 125.927 820.517 Q123.751 820.517 121.436 820.077 Q119.144 819.66 116.691 818.804 L116.691 814.29 Q118.635 815.424 120.95 816.003 Q123.265 816.582 125.788 816.582 Q130.186 816.582 132.478 814.845 Q134.792 813.109 134.792 809.799 Q134.792 806.744 132.64 805.031 Q130.51 803.295 126.691 803.295 L122.663 803.295 L122.663 799.452 L126.876 799.452 Q130.325 799.452 132.154 798.086 Q133.982 796.697 133.982 794.105 Q133.982 791.443 132.084 790.031 Q130.209 788.596 126.691 788.596 Q124.769 788.596 122.57 789.012 Q120.371 789.429 117.732 790.309 L117.732 786.142 Q120.394 785.401 122.709 785.031 Q125.047 784.66 127.107 784.66 Q132.431 784.66 135.533 787.091 Q138.635 789.498 138.635 793.619 Q138.635 796.489 136.992 798.48 Q135.348 800.447 132.316 801.211 Z" fill="#000000" fill-rule="nonzero" fill-opacity="1" /><path clip-path="url(#clip390)" d="M129.862 587.483 L118.056 605.932 L129.862 605.932 L129.862 587.483 M128.635 583.409 L134.515 583.409 L134.515 605.932 L139.445 605.932 L139.445 609.821 L134.515 609.821 L134.515 617.969 L129.862 617.969 L129.862 609.821 L114.26 609.821 L114.26 605.307 L128.635 583.409 Z" fill="#000000" fill-rule="nonzero" fill-opacity="1" /><path clip-path="url(#clip390)" d="M118.543 381.532 L136.899 381.532 L136.899 385.467 L122.825 385.467 L122.825 393.939 Q123.843 393.592 124.862 393.43 Q125.88 393.245 126.899 393.245 Q132.686 393.245 136.066 396.416 Q139.445 399.587 139.445 405.004 Q139.445 410.583 135.973 413.685 Q132.501 416.763 126.181 416.763 Q124.005 416.763 121.737 416.393 Q119.492 416.023 117.084 415.282 L117.084 410.583 Q119.168 411.717 121.39 412.273 Q123.612 412.828 126.089 412.828 Q130.093 412.828 132.431 410.722 Q134.769 408.615 134.769 405.004 Q134.769 401.393 132.431 399.287 Q130.093 397.18 126.089 397.18 Q124.214 397.18 122.339 397.597 Q120.487 398.013 118.543 398.893 L118.543 381.532 Z" fill="#000000" fill-rule="nonzero" fill-opacity="1" /><path clip-path="url(#clip390)" d="M127.917 195.072 Q124.769 195.072 122.918 197.225 Q121.089 199.377 121.089 203.127 Q121.089 206.854 122.918 209.03 Q124.769 211.183 127.917 211.183 Q131.066 211.183 132.894 209.03 Q134.746 206.854 134.746 203.127 Q134.746 199.377 132.894 197.225 Q131.066 195.072 127.917 195.072 M137.2 180.419 L137.2 184.678 Q135.441 183.845 133.635 183.405 Q131.853 182.965 130.093 182.965 Q125.464 182.965 123.01 186.09 Q120.58 189.215 120.232 195.535 Q121.598 193.521 123.658 192.456 Q125.718 191.368 128.195 191.368 Q133.404 191.368 136.413 194.54 Q139.445 197.688 139.445 203.127 Q139.445 208.451 136.297 211.669 Q133.149 214.887 127.917 214.887 Q121.922 214.887 118.751 210.303 Q115.58 205.697 115.58 196.97 Q115.58 188.776 119.468 183.915 Q123.357 179.03 129.908 179.03 Q131.667 179.03 133.45 179.378 Q135.255 179.725 137.2 180.419 Z" fill="#000000" fill-rule="nonzero" fill-opacity="1" /><path clip-path="url(#clip390)" d="M16.4842 886.285 L16.4842 879.792 L56.6518 869.798 L16.4842 859.836 L16.4842 852.611 L56.6518 842.617 L16.4842 832.654 L16.4842 826.13 L64.0042 838.065 L64.0042 846.15 L22.7544 856.176 L64.0042 866.297 L64.0042 874.382 L16.4842 886.285 Z" fill="#000000" fill-rule="nonzero" fill-opacity="1" /><path clip-path="url(#clip390)" d="M32.4621 807.86 Q32.4621 812.571 36.1542 815.308 Q39.8145 818.045 46.212 818.045 Q52.6095 818.045 56.3017 815.34 Q59.9619 812.602 59.9619 807.86 Q59.9619 803.181 56.2698 800.444 Q52.5777 797.707 46.212 797.707 Q39.8781 797.707 36.186 800.444 Q32.4621 803.181 32.4621 807.86 M27.4968 807.86 Q27.4968 800.221 32.4621 795.861 Q37.4273 791.5 46.212 791.5 Q54.9649 791.5 59.9619 795.861 Q64.9272 800.221 64.9272 807.86 Q64.9272 815.531 59.9619 819.891 Q54.9649 824.22 46.212 824.22 Q37.4273 824.22 32.4621 819.891 Q27.4968 815.531 27.4968 807.86 Z" fill="#000000" fill-rule="nonzero" fill-opacity="1" /><path clip-path="url(#clip390)" d="M14.479 781.792 L14.479 775.936 L64.0042 775.936 L64.0042 781.792 L14.479 781.792 Z" fill="#000000" fill-rule="nonzero" fill-opacity="1" /><path clip-path="url(#clip390)" d="M28.3562 767.883 L28.3562 761.677 L58.275 750.537 L28.3562 739.397 L28.3562 733.19 L64.0042 746.558 L64.0042 754.515 L28.3562 767.883 Z" fill="#000000" fill-rule="nonzero" fill-opacity="1" /><path clip-path="url(#clip390)" d="M44.7161 694.614 L47.5806 694.614 L47.5806 721.541 Q53.6281 721.159 56.8109 717.913 Q59.9619 714.634 59.9619 708.81 Q59.9619 705.436 59.1344 702.285 Q58.3069 699.102 56.6518 695.983 L62.1899 695.983 Q63.5267 699.134 64.227 702.444 Q64.9272 705.754 64.9272 709.16 Q64.9272 717.69 59.9619 722.687 Q54.9967 727.652 46.5303 727.652 Q37.7774 727.652 32.6531 722.941 Q27.4968 718.199 27.4968 710.178 Q27.4968 702.985 32.1438 698.815 Q36.7589 694.614 44.7161 694.614 M42.9973 700.47 Q38.1912 700.534 35.3266 703.176 Q32.4621 705.786 32.4621 710.115 Q32.4621 715.016 35.2312 717.976 Q38.0002 720.904 43.0292 721.35 L42.9973 700.47 Z" fill="#000000" fill-rule="nonzero" fill-opacity="1" /><path clip-path="url(#clip390)" d="M29.4065 662.276 L34.9447 662.276 Q33.6716 664.759 33.035 667.432 Q32.3984 670.106 32.3984 672.971 Q32.3984 677.331 33.7352 679.527 Q35.072 681.692 37.7456 681.692 Q39.7826 681.692 40.9603 680.132 Q42.1061 678.572 43.1565 673.862 L43.6021 671.857 Q44.9389 665.618 47.3897 663.008 Q49.8086 660.367 54.1691 660.367 Q59.1344 660.367 62.0308 664.313 Q64.9272 668.228 64.9272 675.103 Q64.9272 677.968 64.3543 681.087 Q63.8132 684.174 62.6992 687.612 L56.6518 687.612 Q58.3387 684.365 59.198 681.214 Q60.0256 678.063 60.0256 674.976 Q60.0256 670.838 58.6251 668.61 Q57.1929 666.382 54.6147 666.382 Q52.2276 666.382 50.9545 668.005 Q49.6813 669.597 48.5037 675.039 L48.0262 677.076 Q46.8804 682.519 44.5251 684.938 Q42.138 687.357 38.0002 687.357 Q32.9713 687.357 30.2341 683.792 Q27.4968 680.228 27.4968 673.671 Q27.4968 670.424 27.9743 667.56 Q28.4517 664.695 29.4065 662.276 Z" fill="#000000" fill-rule="nonzero" fill-opacity="1" /><path clip-path="url(#clip390)" d="M964.739 18.8205 L964.739 41.5461 L975.028 41.5461 Q980.74 41.5461 983.859 38.5889 Q986.978 35.6318 986.978 30.163 Q986.978 24.7348 983.859 21.7777 Q980.74 18.8205 975.028 18.8205 L964.739 18.8205 M956.556 12.096 L975.028 12.096 Q985.196 12.096 990.381 16.714 Q995.607 21.2916 995.607 30.163 Q995.607 39.1155 990.381 43.6931 Q985.196 48.2706 975.028 48.2706 L964.739 48.2706 L964.739 72.576 L956.556 72.576 L956.556 12.096 Z" fill="#000000" fill-rule="nonzero" fill-opacity="1" /><path clip-path="url(#clip390)" d="M1043.97 45.1919 L1043.97 72.576 L1036.52 72.576 L1036.52 45.4349 Q1036.52 38.994 1034.01 35.7938 Q1031.5 32.5936 1026.47 32.5936 Q1020.44 32.5936 1016.95 36.4419 Q1013.47 40.2903 1013.47 46.9338 L1013.47 72.576 L1005.98 72.576 L1005.98 9.54393 L1013.47 9.54393 L1013.47 34.2544 Q1016.14 30.163 1019.75 28.1376 Q1023.4 26.1121 1028.14 26.1121 Q1035.95 26.1121 1039.96 30.9732 Q1043.97 35.7938 1043.97 45.1919 Z" fill="#000000" fill-rule="nonzero" fill-opacity="1" /><path clip-path="url(#clip390)" d="M1079.46 49.7694 Q1070.43 49.7694 1066.94 51.8354 Q1063.46 53.9013 1063.46 58.8839 Q1063.46 62.8538 1066.05 65.2034 Q1068.68 67.5124 1073.18 67.5124 Q1079.38 67.5124 1083.11 63.1374 Q1086.87 58.7219 1086.87 51.4303 L1086.87 49.7694 L1079.46 49.7694 M1094.33 46.6907 L1094.33 72.576 L1086.87 72.576 L1086.87 65.6895 Q1084.32 69.8214 1080.51 71.8063 Q1076.71 73.7508 1071.2 73.7508 Q1064.23 73.7508 1060.1 69.8619 Q1056.01 65.9325 1056.01 59.3701 Q1056.01 51.7138 1061.11 47.825 Q1066.25 43.9361 1076.42 43.9361 L1086.87 43.9361 L1086.87 43.2069 Q1086.87 38.0623 1083.47 35.2672 Q1080.11 32.4315 1073.99 32.4315 Q1070.1 32.4315 1066.42 33.3632 Q1062.73 34.295 1059.33 36.1584 L1059.33 29.2718 Q1063.42 27.692 1067.27 26.9223 Q1071.12 26.1121 1074.76 26.1121 Q1084.6 26.1121 1089.47 31.2163 Q1094.33 36.3204 1094.33 46.6907 Z" fill="#000000" fill-rule="nonzero" fill-opacity="1" /><path clip-path="url(#clip390)" d="M1138.6 28.5427 L1138.6 35.5912 Q1135.44 33.9709 1132.04 33.1607 Q1128.64 32.3505 1124.99 32.3505 Q1119.44 32.3505 1116.65 34.0519 Q1113.89 35.7533 1113.89 39.156 Q1113.89 41.7486 1115.88 43.2475 Q1117.86 44.7058 1123.86 46.0426 L1126.41 46.6097 Q1134.35 48.3111 1137.67 51.4303 Q1141.03 54.509 1141.03 60.0587 Q1141.03 66.3781 1136.01 70.0644 Q1131.03 73.7508 1122.28 73.7508 Q1118.63 73.7508 1114.66 73.0216 Q1110.73 72.3329 1106.36 70.9151 L1106.36 63.2184 Q1110.49 65.3654 1114.5 66.4591 Q1118.51 67.5124 1122.44 67.5124 Q1127.71 67.5124 1130.54 65.73 Q1133.38 63.9071 1133.38 60.6258 Q1133.38 57.5877 1131.31 55.9673 Q1129.29 54.3469 1122.36 52.8481 L1119.77 52.2405 Q1112.84 50.7821 1109.76 47.7845 Q1106.68 44.7463 1106.68 39.4801 Q1106.68 33.0797 1111.22 29.5959 Q1115.76 26.1121 1124.1 26.1121 Q1128.23 26.1121 1131.88 26.7198 Q1135.52 27.3274 1138.6 28.5427 Z" fill="#000000" fill-rule="nonzero" fill-opacity="1" /><path clip-path="url(#clip390)" d="M1191.71 48.0275 L1191.71 51.6733 L1157.44 51.6733 Q1157.93 59.3701 1162.06 63.421 Q1166.23 67.4314 1173.64 67.4314 Q1177.94 67.4314 1181.95 66.3781 Q1186 65.3249 1189.97 63.2184 L1189.97 70.267 Q1185.96 71.9684 1181.75 72.8596 Q1177.53 73.7508 1173.2 73.7508 Q1162.34 73.7508 1155.98 67.4314 Q1149.66 61.1119 1149.66 50.3365 Q1149.66 39.1965 1155.66 32.6746 Q1161.69 26.1121 1171.9 26.1121 Q1181.06 26.1121 1186.36 32.0264 Q1191.71 37.9003 1191.71 48.0275 M1184.26 45.84 Q1184.18 39.7232 1180.81 36.0774 Q1177.49 32.4315 1171.98 32.4315 Q1165.74 32.4315 1161.98 35.9558 Q1158.25 39.4801 1157.68 45.8805 L1184.26 45.84 Z" fill="#000000" fill-rule="nonzero" fill-opacity="1" /><path clip-path="url(#clip390)" d="M1238.82 18.8205 L1238.82 65.8515 L1248.71 65.8515 Q1261.22 65.8515 1267.02 60.1802 Q1272.85 54.509 1272.85 42.2752 Q1272.85 30.1225 1267.02 24.4918 Q1261.22 18.8205 1248.71 18.8205 L1238.82 18.8205 M1230.64 12.096 L1247.45 12.096 Q1265.03 12.096 1273.26 19.4281 Q1281.48 26.7198 1281.48 42.2752 Q1281.48 57.9117 1273.22 65.2439 Q1264.95 72.576 1247.45 72.576 L1230.64 72.576 L1230.64 12.096 Z" fill="#000000" fill-rule="nonzero" fill-opacity="1" /><path clip-path="url(#clip390)" d="M1294.2 27.2059 L1301.65 27.2059 L1301.65 72.576 L1294.2 72.576 L1294.2 27.2059 M1294.2 9.54393 L1301.65 9.54393 L1301.65 18.9825 L1294.2 18.9825 L1294.2 9.54393 Z" fill="#000000" fill-rule="nonzero" fill-opacity="1" /><path clip-path="url(#clip390)" d="M1337.87 49.7694 Q1328.83 49.7694 1325.35 51.8354 Q1321.87 53.9013 1321.87 58.8839 Q1321.87 62.8538 1324.46 65.2034 Q1327.09 67.5124 1331.59 67.5124 Q1337.79 67.5124 1341.51 63.1374 Q1345.28 58.7219 1345.28 51.4303 L1345.28 49.7694 L1337.87 49.7694 M1352.73 46.6907 L1352.73 72.576 L1345.28 72.576 L1345.28 65.6895 Q1342.73 69.8214 1338.92 71.8063 Q1335.11 73.7508 1329.6 73.7508 Q1322.64 73.7508 1318.5 69.8619 Q1314.41 65.9325 1314.41 59.3701 Q1314.41 51.7138 1319.52 47.825 Q1324.66 43.9361 1334.83 43.9361 L1345.28 43.9361 L1345.28 43.2069 Q1345.28 38.0623 1341.88 35.2672 Q1338.52 32.4315 1332.4 32.4315 Q1328.51 32.4315 1324.82 33.3632 Q1321.14 34.295 1317.73 36.1584 L1317.73 29.2718 Q1321.83 27.692 1325.67 26.9223 Q1329.52 26.1121 1333.17 26.1121 Q1343.01 26.1121 1347.87 31.2163 Q1352.73 36.3204 1352.73 46.6907 Z" fill="#000000" fill-rule="nonzero" fill-opacity="1" /><path clip-path="url(#clip390)" d="M1397.94 49.3643 Q1397.94 41.2625 1394.58 36.8065 Q1391.26 32.3505 1385.22 32.3505 Q1379.23 32.3505 1375.87 36.8065 Q1372.54 41.2625 1372.54 49.3643 Q1372.54 57.4256 1375.87 61.8816 Q1379.23 66.3376 1385.22 66.3376 Q1391.26 66.3376 1394.58 61.8816 Q1397.94 57.4256 1397.94 49.3643 M1405.4 66.9452 Q1405.4 78.5308 1400.25 84.1616 Q1395.11 89.8329 1384.49 89.8329 Q1380.56 89.8329 1377.08 89.2252 Q1373.6 88.6581 1370.32 87.4428 L1370.32 80.1917 Q1373.6 81.9741 1376.8 82.8248 Q1380 83.6755 1383.32 83.6755 Q1390.65 83.6755 1394.3 79.8271 Q1397.94 76.0193 1397.94 68.282 L1397.94 64.5957 Q1395.63 68.6061 1392.03 70.5911 Q1388.42 72.576 1383.4 72.576 Q1375.05 72.576 1369.95 66.2161 Q1364.85 59.8562 1364.85 49.3643 Q1364.85 38.832 1369.95 32.472 Q1375.05 26.1121 1383.4 26.1121 Q1388.42 26.1121 1392.03 28.0971 Q1395.63 30.082 1397.94 34.0924 L1397.94 27.2059 L1405.4 27.2059 L1405.4 66.9452 Z" fill="#000000" fill-rule="nonzero" fill-opacity="1" /><path clip-path="url(#clip390)" d="M1447.04 34.1734 Q1445.78 33.4443 1444.28 33.1202 Q1442.83 32.7556 1441.04 32.7556 Q1434.72 32.7556 1431.32 36.8875 Q1427.96 40.9789 1427.96 48.6757 L1427.96 72.576 L1420.47 72.576 L1420.47 27.2059 L1427.96 27.2059 L1427.96 34.2544 Q1430.31 30.1225 1434.08 28.1376 Q1437.84 26.1121 1443.23 26.1121 Q1444 26.1121 1444.93 26.2337 Q1445.86 26.3147 1447 26.5172 L1447.04 34.1734 Z" fill="#000000" fill-rule="nonzero" fill-opacity="1" /><path clip-path="url(#clip390)" d="M1475.48 49.7694 Q1466.44 49.7694 1462.96 51.8354 Q1459.48 53.9013 1459.48 58.8839 Q1459.48 62.8538 1462.07 65.2034 Q1464.7 67.5124 1469.2 67.5124 Q1475.4 67.5124 1479.12 63.1374 Q1482.89 58.7219 1482.89 51.4303 L1482.89 49.7694 L1475.48 49.7694 M1490.34 46.6907 L1490.34 72.576 L1482.89 72.576 L1482.89 65.6895 Q1480.34 69.8214 1476.53 71.8063 Q1472.72 73.7508 1467.21 73.7508 Q1460.25 73.7508 1456.11 69.8619 Q1452.02 65.9325 1452.02 59.3701 Q1452.02 51.7138 1457.13 47.825 Q1462.27 43.9361 1472.44 43.9361 L1482.89 43.9361 L1482.89 43.2069 Q1482.89 38.0623 1479.49 35.2672 Q1476.12 32.4315 1470.01 32.4315 Q1466.12 32.4315 1462.43 33.3632 Q1458.75 34.295 1455.34 36.1584 L1455.34 29.2718 Q1459.44 27.692 1463.28 26.9223 Q1467.13 26.1121 1470.78 26.1121 Q1480.62 26.1121 1485.48 31.2163 Q1490.34 36.3204 1490.34 46.6907 Z" fill="#000000" fill-rule="nonzero" fill-opacity="1" /><path clip-path="url(#clip390)" d="M1541.02 35.9153 Q1543.82 30.8922 1547.7 28.5022 Q1551.59 26.1121 1556.86 26.1121 Q1563.95 26.1121 1567.8 31.0947 Q1571.65 36.0368 1571.65 45.1919 L1571.65 72.576 L1564.15 72.576 L1564.15 45.4349 Q1564.15 38.913 1561.84 35.7533 Q1559.53 32.5936 1554.79 32.5936 Q1549 32.5936 1545.64 36.4419 Q1542.28 40.2903 1542.28 46.9338 L1542.28 72.576 L1534.78 72.576 L1534.78 45.4349 Q1534.78 38.8725 1532.47 35.7533 Q1530.16 32.5936 1525.34 32.5936 Q1519.63 32.5936 1516.27 36.4824 Q1512.91 40.3308 1512.91 46.9338 L1512.91 72.576 L1505.41 72.576 L1505.41 27.2059 L1512.91 27.2059 L1512.91 34.2544 Q1515.46 30.082 1519.02 28.0971 Q1522.59 26.1121 1527.49 26.1121 Q1532.43 26.1121 1535.88 28.6237 Q1539.36 31.1352 1541.02 35.9153 Z" fill="#000000" fill-rule="nonzero" fill-opacity="1" /><polyline clip-path="url(#clip392)" style="stroke:#009af9; stroke-linecap:round; stroke-linejoin:round; stroke-width:4; stroke-opacity:1; fill:none" points="845.402,802.565 827.897,802.9 802.067,804.669 773.411,808.549 739.719,815.982 703.978,827.751 666.41,845.267 628.634,869.541 590.853,902.822 559.011,941.266 535.369,980.234 518.045,1020.37 507.256,1059.57 502.703,1097.4 504.531,1132.95 513.147,1165.86 529.411,1195.75 554.94,1222.45 592.726,1245.77 649.29,1265.53 733.095,1279.79 820.523,1284.91 920.225,1283.18 1021.93,1274.47 1122.83,1257.86 1214.31,1232.03 1288.67,1194.26 1334.46,1140.31 1337.88,1078.94 1305.51,1015.26 1245.43,953.214 1165.61,897.193 1072.4,850.861 974.728,818.937 885.139,804.207 804.752,804.411 734.417,817.46 673.295,841.611 620.428,875.895 573.951,921.718 541.357,969.141 520.061,1014.81 507.418,1058.76 502.63,1099.64 505.237,1137.29 515.411,1171.32 533.986,1201.7 562.721,1228.35 605.21,1251.26 670.058,1270.29 755.614,1281.84 847.513,1285.14 948.855,1281.44 1051.52,1270.53 1150.86,1251.35 1238.53,1222.25 1305.99,1180.09 1339.92,1121.42 1331.43,1059.6 1289.19,995.325 1222.21,934.832 1137.21,881.263 1041.15,838.883 945.058,812.462 858.377,802.745 781.094,807.301 713.801,824.08 655.429,851.556 604.868,889.208 560.57,939.077 533.135,984.654 514.621,1030.71 504.896,1073.38 502.71,1113.39 507.945,1149.74 520.991,1182.55 542.915,1211.61 576.025,1236.96 625.015,1258.51 702.324,1275.94 788.322,1283.86 885.643,1284.56 987.625,1278.2 1090.26,1264.26 1186.04,1241.57 1267.27,1207.91 1323.97,1159.49 1341.04,1098.29 1319.16,1035.49 1266.47,971.949 1192.1,913.724 1102.12,863.834 1004.23,826.876 911.533,807.024 828.242,802.887 754.801,812.248 690.951,833.174 635.693,864.411 587.525,906.312 549.217,955.959 525.523,1001.15 510.225,1046.36 503.264,1087.96 503.566,1125.32 "/>
<polyline clip-path="url(#clip392)" style="stroke:#e26f46; stroke-linecap:round; stroke-linejoin:round; stroke-width:4; stroke-opacity:1; fill:none" points="845.402,600.689 820.88,601.217 785.805,603.919 746.986,609.856 702.16,621.113 655.23,638.851 607.182,664.725 561.213,698.742 519.56,739.867 483.562,786.213 453.398,836.102 428.94,887.864 409.867,940.106 395.881,991.63 386.771,1041.49 382.49,1088.92 383.221,1133.36 389.468,1174.41 402.26,1211.85 423.519,1245.57 455.255,1274.35 496.314,1296.25 549.124,1312.95 615.673,1325.07 700.718,1333.17 811.73,1337.09 941.763,1335.86 1077.97,1329.35 1218.36,1316.69 1351.98,1296.74 1470.42,1267.74 1564.23,1227.96 1625.91,1175.63 1649.21,1109.45 1629.44,1029.2 1566.75,939.651 1472.62,851.561 1359.32,771.355 1237.42,703.916 1114.9,652.36 997.522,618.368 888.862,602.254 790.708,603.396 703.569,620.68 627.296,652.828 562.186,697.91 509.903,751.165 469.346,808.2 438.28,866.547 415.099,924.295 398.574,980.245 387.928,1033.5 382.74,1083.48 382.959,1129.77 388.943,1172.13 401.625,1210.48 422.88,1244.79 454.8,1274.04 496.115,1296.17 549.251,1312.98 616.196,1325.14 701.742,1333.24 813.419,1337.11 943.884,1335.79 1080.5,1329.18 1221.08,1316.37 1354.67,1296.23 1472.8,1266.98 1566.06,1226.9 1626.95,1174.2 1649.26,1107.63 1628.35,1027.01 1564.65,937.321 1469.84,849.333 1356.15,769.378 1234.1,702.311 1111.62,651.201 994.422,617.691 886.017,602.059 788.151,603.663 701.308,621.378 625.329,653.921 560.548,699.313 508.625,752.719 468.356,809.827 437.531,868.178 414.549,925.894 398.199,981.778 387.709,1034.95 382.672,1084.83 383.045,1131.02 389.201,1173.27 402.094,1211.49 423.628,1245.7 455.833,1274.75 497.433,1296.7 550.931,1313.38 618.316,1325.42 704.477,1333.41 817.006,1337.15 947.581,1335.68 1084.47,1328.9 1224.94,1315.91 1358.24,1295.54 1475.79,1266.02 1568.24,1225.6 1628.12,1172.53 1649.28,1105.56 1627.12,1024.58 1562.35,934.796 1466.87,846.963 1352.8,767.309 1230.66,700.655 1108.25,650.022 991.261,617.012 883.133,601.875 785.574,603.945 699.038,622.092 623.361,655.029 558.917,700.726 507.354,754.276 467.373,811.453 465.324,814.887 "/>
<polyline clip-path="url(#clip392)" style="stroke:#3da44d; stroke-linecap:round; stroke-linejoin:round; stroke-width:4; stroke-opacity:1; fill:none" points="845.402,398.812 815.004,399.541 772.812,403.143 726.643,410.969 675.067,425.31 622.808,447.083 571.32,477.372 523.088,515.871 479.17,562.041 440.387,614.561 406.912,671.994 378.661,732.722 355.328,795.248 336.558,858.191 322.007,920.361 311.415,980.711 304.641,1038.3 301.683,1092.22 302.664,1141.57 307.793,1185.59 317.377,1223.96 331.908,1256.76 352.139,1284.31 379.122,1307.02 414.188,1325.32 459,1339.71 515.854,1350.7 588.28,1358.76 682.388,1364.18 812.814,1366.84 990.934,1365.3 1161.14,1359.61 1345.94,1348.24 1500.7,1332.71 1636.93,1311.44 1758.49,1281.2 1853.15,1241.26 1917.34,1189.37 1946.14,1124.58 1936.56,1045.6 1885.49,951.675 1790.23,843.557 1665.49,736.725 1527.09,640.29 1383.35,557.284 1241.6,490.676 1105.74,441.671 978.284,410.986 860.259,398.979 752.467,406.058 657.373,431.791 578.374,472.624 513.757,524.689 461.352,584.585 419.157,649.429 385.454,716.848 358.816,784.979 338.114,852.381 322.505,917.935 311.411,980.742 304.493,1040.02 301.634,1094.99 302.889,1144.87 308.423,1189.04 318.526,1227.28 333.693,1259.8 354.701,1286.98 382.628,1309.28 418.837,1327.18 465.043,1341.18 523.654,1351.82 598.415,1359.56 695.958,1364.67 833.558,1366.92 1006.62,1364.94 1179.75,1358.74 1362.59,1346.89 1515.76,1330.79 1649.82,1308.88 1768.68,1277.85 1860.35,1237.05 1921.34,1184.2 1946.87,1118.41 1933.94,1038.37 1879.39,943.335 1780.91,834.627 1655,728.742 1515.93,633.266 1372.31,551.557 1230.97,486.297 1095.77,438.701 969.053,409.426 851.81,398.844 744.87,407.358 650.928,434.37 573.113,476.145 509.475,528.903 457.902,589.247 416.392,654.354 383.26,721.878 357.096,789.997 336.796,857.295 321.538,922.673 310.761,985.243 304.144,1044.23 301.585,1098.85 303.148,1148.33 309.007,1192.06 319.463,1229.87 335.031,1261.98 356.508,1288.79 384.995,1310.75 421.877,1328.34 468.903,1342.07 528.554,1352.48 604.714,1360.02 704.364,1364.94 846.82,1366.93 1017.83,1364.67 1192.76,1358.09 1374.61,1345.86 1526.61,1329.35 1659.1,1306.95 1775.99,1275.35 1865.47,1233.89 1924.11,1180.33 1947.22,1113.77 1931.81,1032.92 1874.64,937.057 1773.86,827.99 1647.1,722.811 1507.56,628.062 1423.2,578.713 "/>
<polyline clip-path="url(#clip392)" style="stroke:#c271d2; stroke-linecap:round; stroke-linejoin:round; stroke-width:4; stroke-opacity:1; fill:none" points="845.402,196.935 809.825,197.872 763.641,202.108 713.321,211.156 658.989,227.045 604.544,250.697 551.498,283.019 501.792,323.902 456.314,372.994 415.695,429.344 380.084,491.809 349.413,558.992 323.419,629.457 301.754,701.772 284.043,774.598 269.939,846.693 259.166,916.862 251.544,983.836 246.973,1046.19 245.371,1102.64 246.654,1152.58 250.8,1196.02 257.91,1233.32 268.239,1265 282.235,1291.65 300.588,1313.83 324.303,1332.11 354.798,1346.97 394.013,1358.84 444.572,1368.12 510.178,1375.12 596.46,1380.13 710.161,1383.19 850.819,1384.18 1021.3,1382.9 1226.4,1378.48 1442.63,1369.85 1623.52,1358.01 1783.53,1341.72 1933.09,1317.75 2056.7,1285.35 2151.94,1242.06 2213.33,1186.71 2238.43,1117.73 2225.1,1034.27 2171.31,935.166 2073.23,818.668 1929.16,687.304 1772.72,569.093 1607.84,462.488 1444.96,372.545 1287.44,300.113 1138.59,246.427 999.076,211.884 868.856,197.322 748.228,204.356 647.331,231.403 565.404,273.533 497.935,327.587 442.688,390.4 397.368,459.712 360.356,533.322 330.251,609.462 305.955,686.531 286.571,763.208 271.413,838.336 259.978,910.856 251.943,979.637 247.122,1043.36 245.378,1100.82 246.589,1151.45 250.708,1195.36 257.817,1232.96 268.165,1264.82 282.192,1291.58 300.588,1313.83 324.357,1332.14 354.921,1347.01 394.225,1358.89 444.897,1368.16 510.651,1375.16 597.135,1380.15 711.084,1383.21 851.985,1384.18 1022.78,1382.88 1228.16,1378.43 1444.38,1369.76 1625.12,1357.88 1784.94,1341.54 1934.25,1317.52 2057.59,1285.05 2152.55,1241.67 2213.65,1186.24 2238.48,1117.18 2224.87,1033.62 2170.79,934.428 2072.4,817.816 1928.14,686.472 1771.68,568.364 1606.78,461.856 1443.95,372.031 1286.48,299.717 1137.7,246.153 998.241,211.731 868.08,197.297 747.532,204.469 646.78,231.618 564.947,273.833 497.564,327.947 442.383,390.807 397.118,460.15 360.153,533.781 330.086,609.931 305.823,687 286.467,763.672 271.332,838.786 259.919,911.287 251.904,980.042 247.102,1043.73 245.377,1101.15 246.605,1151.74 250.742,1195.6 257.87,1233.17 268.238,1265 282.29,1291.73 300.715,1313.95 324.521,1332.24 355.132,1347.09 394.496,1358.96 445.247,1368.21 511.108,1375.2 597.74,1380.18 711.864,1383.22 852.926,1384.18 1023.92,1382.87 1229.5,1378.39 1445.67,1369.69 1626.3,1357.78 1735.45,1347.38 "/>
<polyline clip-path="url(#clip392)" style="stroke:#ac8d18; stroke-linecap:round; stroke-linejoin:round; stroke-width:4; stroke-opacity:1; fill:none" points="1095.62,802.565 1072.01,793.452 1038.36,781.874 999.07,770.466 952.418,759.954 901.426,752.45 847.025,749.472 791.556,752.505 736.469,762.669 683.261,780.777 632.8,807.573 585.636,844.057 545.103,888.251 514.999,933.318 492.416,979.606 477.09,1024.74 468.245,1068.25 465.706,1109.17 469.568,1147.18 480.396,1181.93 499.475,1213.35 529.548,1241.55 579.378,1267.67 643.046,1285.59 724.49,1297 825.007,1301.81 933.064,1299.83 1046.87,1291.11 1158.79,1274.95 1261.75,1249.89 1346.7,1214 1404.22,1164.72 1423.41,1100.98 1400.79,1030.93 1344.36,959.945 1263.56,893.217 1166.95,835.192 1062.66,790.07 960.328,761.498 866.619,749.909 783.041,753.577 709.757,770.62 645.909,799.555 590.292,839.843 543.585,890.221 511.458,939.654 488.545,989.426 474.071,1036.7 466.77,1081.43 466.304,1122.74 472.748,1160.54 486.796,1194.65 510.136,1225.19 546.791,1252.51 627.535,1282.21 692.823,1293.61 800.258,1301.32 904.507,1300.97 1021.37,1293.67 1134.72,1279.2 1241.84,1255.83 1331.72,1222.09 1395.88,1175.25 1423.18,1113.61 1407.59,1043.7 1356.36,972.314 1278.83,904.212 1184.13,844.249 1080.24,796.535 976.714,765.009 881.266,750.711 795.88,752.026 720.898,767.04 655.553,794.156 598.678,832.623 549.976,882.109 515.9,931.75 491.598,981.62 475.877,1029.34 467.468,1074.53 465.926,1116.4 471.242,1154.78 484.003,1189.48 505.692,1220.57 539.741,1248.35 602.259,1275.46 667.194,1289.96 761.069,1299.67 864.067,1301.84 976.568,1297.3 1090.73,1285.81 1200.87,1266.24 1298.09,1237.08 1373.6,1196.03 1417.15,1140.59 1418.85,1072.88 1381.44,1001.94 1313.73,931.866 1225.44,868.155 1124.49,814.835 1019.7,776.171 920.46,754.744 830.787,749.685 751.489,759.111 682.21,781.23 621.924,814.864 569.405,860.015 529.044,910.573 501.009,960.143 490.22,985.083 "/>
<polyline clip-path="url(#clip392)" style="stroke:#00a9ad; stroke-linecap:round; stroke-linejoin:round; stroke-width:4; stroke-opacity:1; fill:none" points="1095.62,600.689 1062.92,590.702 1020.26,579.428 970.228,568.894 912.921,560.726 850.908,557.158 785.962,560.249 720.572,571.852 656.852,593.369 597.15,625.318 543.842,666.678 498.355,715.107 460.619,768.283 430.034,824.13 405.854,880.939 387.408,937.324 374.17,992.197 365.811,1044.7 362.227,1094.19 363.577,1140.14 370.357,1182.17 383.509,1219.98 404.458,1253.13 434.294,1280.64 473.449,1302.2 523.499,1318.72 586.72,1330.96 667.092,1339.46 771.944,1344.3 908.017,1344.6 1048.07,1339.93 1197.52,1329.59 1342.26,1312.68 1474.96,1287.39 1585.03,1252.08 1664.85,1204.85 1707.97,1144.31 1709.73,1069.42 1666.84,980.642 1582.87,885.019 1472.92,794.445 1348.77,714.28 1220.39,648.809 1094.41,600.299 975.367,569.836 865.795,557.474 766.987,562.66 679.421,584.435 603.484,621.284 540.304,669.955 490.013,725.681 450.588,785.084 420.146,845.65 397.134,905.669 380.432,963.896 369.287,1019.46 363.287,1071.73 362.347,1120.24 366.737,1164.66 377.157,1204.72 394.837,1240.16 421.185,1270.29 456.654,1294.27 502.323,1312.75 560.169,1326.63 633.374,1336.57 727.588,1342.88 853.537,1345.11 992.077,1342.35 1138.91,1334.37 1286.55,1320.19 1425.18,1298.39 1545.14,1267.22 1637.66,1224.86 1695.78,1169.68 1714.22,1100.48 1689.04,1016.88 1619.71,922.346 1518.25,828.927 1398.37,744.112 1270.69,672.521 1143.12,617.178 1020.96,579.595 907.469,560.183 804.357,558.593 712.358,574.009 631.785,605.205 563.447,649.804 508.292,703.263 464.861,761.561 431.106,821.916 405.341,882.318 386.277,941.369 373.023,998.065 365.036,1051.69 362.104,1101.72 364.35,1147.77 372.292,1189.56 386.949,1226.86 409.783,1259.2 441.647,1285.59 483.103,1306.1 535.906,1321.7 602.587,1333.12 687.648,1340.84 799.699,1344.82 937.781,1344 1080.07,1338.21 1229.55,1326.53 1372.45,1307.96 1501.07,1280.64 1605.19,1242.89 1677.53,1192.87 1712.01,1129.27 1704.27,1051.22 1651.63,959.937 1560.69,864.654 1446.74,775.948 1320.93,698.682 1192.59,636.755 1067.8,592.12 950.656,565.617 843.351,557.137 746.964,566.028 661.88,591.245 637.034,602.55 "/>
<polyline clip-path="url(#clip392)" style="stroke:#ed5d92; stroke-linecap:round; stroke-linejoin:round; stroke-width:4; stroke-opacity:1; fill:none" points="1095.62,398.812 1055.6,388.016 1005.11,376.601 945.892,366.654 879.088,360.466 807.425,360.761 734.116,370.054 663.267,389.852 597.777,420.34 539.075,460.791 487.678,509.888 443.537,565.963 406.261,627.199 375.271,691.805 349.918,758.145 329.582,824.793 313.731,890.531 301.96,954.312 294.016,1015.19 289.799,1072.22 289.335,1124.42 292.72,1171 300.127,1211.64 311.887,1246.47 328.567,1275.88 351.029,1300.34 380.463,1320.33 418.382,1336.34 466.724,1348.82 528.216,1358.27 607.16,1365.09 711.378,1369.47 860.625,1371.02 1034.04,1368.66 1218.36,1362.05 1406.57,1350.03 1562.69,1333.95 1698.54,1312.22 1819.27,1281.44 1912.65,1241.01 1975.58,1188.61 2003.36,1123.36 1993.22,1043.89 1942.21,949.391 1846.7,839.412 1718.71,727.87 1577.35,627.175 1429.7,539.295 1283.95,467.767 1143.79,413.71 1011.94,377.995 889.324,361.037 776.557,363.452 676.048,385.369 592.554,423.382 524.142,473.554 468.412,532.519 423.269,597.379 386.94,665.697 357.946,735.487 335.092,805.181 317.457,873.537 304.374,939.559 295.41,1002.38 290.345,1061.15 289.131,1114.97 291.819,1163.05 298.541,1205.01 309.579,1240.99 325.449,1271.39 346.96,1296.7 375.245,1317.43 411.767,1334.06 458.38,1347.08 517.653,1356.99 593.566,1364.2 693.152,1368.95 833.052,1371.03 1007.15,1369.27 1188.35,1363.43 1377.88,1352.3 1536.81,1337.14 1676.23,1316.49 1801.52,1287.02 1899.95,1248.07 1968.27,1197.3 2001.59,1133.79 1997.1,1056.15 1951.96,963.594 1862.51,855.321 1736.92,742.303 1596.87,640.027 1449.17,549.985 1302.79,476.166 1161.54,419.7 1028.45,381.562 904.531,362.145 790.398,362.039 687.971,381.57 602.261,417.809 532.09,466.621 474.847,524.666 428.467,588.925 391.103,656.936 361.251,726.638 337.675,796.424 319.423,865.012 305.793,931.381 296.324,994.653 290.772,1053.99 289.071,1108.48 291.262,1157.31 297.463,1200.05 307.934,1236.77 323.156,1267.85 343.899,1293.77 371.256,1315.05 406.647,1332.17 451.865,1345.62 509.36,1355.89 582.877,1363.42 678.89,1368.49 811.94,1370.95 986.908,1369.67 1165.73,1364.39 1356.25,1353.89 1517.21,1339.4 1659.25,1319.53 1787.92,1291 1890.06,1253.11 1962.38,1203.52 1999.77,1141.26 1999.42,1064.95 1959.52,975.337 "/>
<polyline clip-path="url(#clip392)" style="stroke:#c68125; stroke-linecap:round; stroke-linejoin:round; stroke-width:4; stroke-opacity:1; fill:none" points="1095.62,196.935 1049.17,185.359 990.993,173.617 923.069,164.261 847.526,160.256 769.566,164.634 693.978,179.153 623.363,204.404 559.127,240.179 501.869,285.723 451.658,339.914 408.228,401.407 371.121,468.727 339.782,540.344 313.627,614.748 292.082,690.511 274.628,766.322 260.828,840.972 250.351,913.273 242.985,981.898 238.6,1045.35 237.067,1102.42 238.267,1152.68 242.156,1196.28 248.812,1233.65 258.461,1265.36 271.504,1292.03 288.566,1314.24 310.564,1332.56 338.805,1347.5 375.127,1359.5 422.061,1368.95 483.16,1376.17 563.661,1381.44 669.75,1384.85 801.354,1386.35 960.837,1385.93 1154.81,1383.03 1378.98,1376.35 1571.57,1366.66 1744.28,1353.01 1909.64,1332.38 2035.75,1307.5 2147.41,1271.78 2227.48,1226.63 2276.79,1168.63 2291.13,1097.67 2268.66,1011.96 2206.94,910.68 2101.06,791.246 1951.54,658.512 1792.56,540.02 1625.31,432.543 1460.73,341.7 1301.45,268.06 1150.86,213.015 1009.43,176.988 877.03,160.944 753.831,166.742 651.503,192.789 568.284,234.193 499.707,287.751 443.428,350.386 397.149,419.863 359.227,494.045 328.257,571.178 303.136,649.655 282.958,728.122 267.016,805.379 254.781,880.33 245.898,951.812 240.151,1018.45 237.382,1078.87 237.435,1132.37 240.211,1178.94 245.724,1218.98 254.131,1253.04 265.755,1281.75 281.12,1305.74 301.014,1325.59 326.576,1341.86 359.411,1355 401.748,1365.44 456.673,1373.52 528.656,1379.55 623.987,1383.71 745.728,1385.98 893.229,1386.35 1072.7,1384.56 1288.56,1379.53 1509.78,1370.27 1690.5,1357.92 1849.11,1341.1 1996.37,1316.5 2117.27,1283.41 2209.66,1239.38 2268.37,1183.26 2291.11,1113.51 2275.8,1029.22 2220.47,929.244 2121.28,811.691 1974.4,677.178 1814.8,555.543 1646.75,445.452 1480.48,351.83 1319.54,275.67 1167.24,218.235 1024.32,179.951 890.657,161.651 765.97,165.077 660.897,189.389 576.029,229.377 505.949,281.963 448.543,343.82 401.311,412.78 362.621,486.607 331.008,563.56 305.353,641.989 284.723,720.53 268.393,797.966 255.816,873.198 246.619,945.08 240.574,1012.26 237.524,1073.33 237.31,1127.51 239.825,1174.74 245.069,1215.38 253.186,1249.99 264.48,1279.19 279.454,1303.61 298.869,1323.84 323.822,1340.43 355.87,1353.86 397.172,1364.54 450.715,1372.84 520.803,1379.05 613.606,1383.39 732.927,1385.84 877.713,1386.4 1053.83,1384.85 1266.52,1380.2 1426.7,1374.35 "/>
<polyline clip-path="url(#clip392)" style="stroke:#00a98d; stroke-linecap:round; stroke-linejoin:round; stroke-width:4; stroke-opacity:1; fill:none" points="1345.84,802.565 1317.73,784.985 1281.32,763.78 1235.49,739.429 1180.78,713.565 1117.82,687.987 1048.36,665.022 974.551,647.009 898.944,636.132 823.94,634.128 751.592,642.224 683.408,661.175 620.476,691.372 564.198,732.373 517.331,780.749 480.029,832.898 450.917,886.761 428.964,940.542 413.293,993.044 403.347,1043.32 398.851,1090.73 399.855,1134.81 406.818,1175.3 420.836,1212.14 444.298,1245.53 480.618,1274.62 525.628,1295.45 584.344,1311.28 657.837,1322.25 752.988,1328.92 872.814,1330.53 1000.25,1326.63 1134.72,1316.79 1266.46,1300.13 1387.54,1275.04 1488.28,1239.83 1560.42,1192.63 1596.62,1131.9 1591.03,1057.08 1542.22,972.271 1459.55,887.215 1354.78,808.397 1238.59,741.001 1119.56,688.632 1004.36,653.455 897.362,635.994 800.713,635.551 714.969,650.853 639.79,680.578 574.85,723.373 521.95,775.25 481.456,830.607 450.683,887.262 428.066,943.122 412.305,997.103 402.64,1048.3 398.676,1096.2 400.423,1140.42 408.361,1180.81 423.691,1217.4 449.118,1250.48 487.194,1278.41 534.186,1298.35 595.377,1313.41 672.038,1323.67 771.632,1329.58 894.004,1330.25 1022.75,1325.4 1157.66,1314.46 1288.22,1296.48 1406.56,1269.75 1502.98,1232.6 1569.43,1183.14 1598.78,1119.94 1585.54,1042.85 1529.94,957.298 1442.63,872.92 1335.12,795.735 1217.87,730.727 1099.07,681.236 985.043,649.147 879.739,634.724 784.98,637.125 701.114,655.033 627.717,687.152 564.658,731.972 514.083,784.728 475.434,840.469 446.195,897.1 424.849,952.706 410.197,1006.25 401.543,1056.91 398.563,1104.18 401.34,1147.75 410.454,1187.47 427.287,1223.41 454.943,1255.91 494.468,1282.25 543.668,1301.3 607.224,1315.48 687.259,1325.01 791.355,1330.1 915.297,1329.81 1045.37,1324.01 1180.18,1311.96 1309.28,1292.63 1424.54,1264.28 1516.45,1225.19 1577.12,1173.52 1599.65,1107.93 1578.98,1028.8 1517.18,942.879 1425.72,859.332 1315.91,783.888 1197.89,721.286 1079.51,674.625 966.736,645.514 863.122,633.987 770.193,639.078 688.12,659.45 616.425,693.828 613.744,695.491 "/>
</svg>
