<?xml version="1.0" encoding="utf-8"?>
<svg xmlns="http://www.w3.org/2000/svg" xmlns:xlink="http://www.w3.org/1999/xlink" width="600" height="400" viewBox="0 0 2400 1600">
<defs>
  <clipPath id="clip000">
    <rect x="0" y="0" width="2400" height="1600"/>
  </clipPath>
</defs>
<path clip-path="url(#clip000)" d="M0 1600 L2400 1600 L2400 0 L0 0  Z" fill="#ffffff" fill-rule="evenodd" fill-opacity="1"/>
<defs>
  <clipPath id="clip001">
    <rect x="480" y="0" width="1681" height="1600"/>
  </clipPath>
</defs>
<path clip-path="url(#clip000)" d="M175.445 1423.18 L2352.76 1423.18 L2352.76 123.472 L175.445 123.472  Z" fill="#ffffff" fill-rule="evenodd" fill-opacity="1"/>
<defs>
  <clipPath id="clip002">
    <rect x="175" y="123" width="2178" height="1301"/>
  </clipPath>
</defs>
<polyline clip-path="url(#clip002)" style="stroke:#000000; stroke-linecap:round; stroke-linejoin:round; stroke-width:2; stroke-opacity:0.1; fill:none" points="254.838,1423.18 254.838,123.472 "/>
<polyline clip-path="url(#clip002)" style="stroke:#000000; stroke-linecap:round; stroke-linejoin:round; stroke-width:2; stroke-opacity:0.1; fill:none" points="599.689,1423.18 599.689,123.472 "/>
<polyline clip-path="url(#clip002)" style="stroke:#000000; stroke-linecap:round; stroke-linejoin:round; stroke-width:2; stroke-opacity:0.1; fill:none" points="944.54,1423.18 944.54,123.472 "/>
<polyline clip-path="url(#clip002)" style="stroke:#000000; stroke-linecap:round; stroke-linejoin:round; stroke-width:2; stroke-opacity:0.1; fill:none" points="1289.39,1423.18 1289.39,123.472 "/>
<polyline clip-path="url(#clip002)" style="stroke:#000000; stroke-linecap:round; stroke-linejoin:round; stroke-width:2; stroke-opacity:0.1; fill:none" points="1634.24,1423.18 1634.24,123.472 "/>
<polyline clip-path="url(#clip002)" style="stroke:#000000; stroke-linecap:round; stroke-linejoin:round; stroke-width:2; stroke-opacity:0.1; fill:none" points="1979.09,1423.18 1979.09,123.472 "/>
<polyline clip-path="url(#clip002)" style="stroke:#000000; stroke-linecap:round; stroke-linejoin:round; stroke-width:2; stroke-opacity:0.1; fill:none" points="2323.94,1423.18 2323.94,123.472 "/>
<polyline clip-path="url(#clip000)" style="stroke:#000000; stroke-linecap:round; stroke-linejoin:round; stroke-width:4; stroke-opacity:1; fill:none" points="175.445,1423.18 2352.76,1423.18 "/>
<polyline clip-path="url(#clip000)" style="stroke:#000000; stroke-linecap:round; stroke-linejoin:round; stroke-width:4; stroke-opacity:1; fill:none" points="254.838,1423.18 254.838,1404.28 "/>
<polyline clip-path="url(#clip000)" style="stroke:#000000; stroke-linecap:round; stroke-linejoin:round; stroke-width:4; stroke-opacity:1; fill:none" points="599.689,1423.18 599.689,1404.28 "/>
<polyline clip-path="url(#clip000)" style="stroke:#000000; stroke-linecap:round; stroke-linejoin:round; stroke-width:4; stroke-opacity:1; fill:none" points="944.54,1423.18 944.54,1404.28 "/>
<polyline clip-path="url(#clip000)" style="stroke:#000000; stroke-linecap:round; stroke-linejoin:round; stroke-width:4; stroke-opacity:1; fill:none" points="1289.39,1423.18 1289.39,1404.28 "/>
<polyline clip-path="url(#clip000)" style="stroke:#000000; stroke-linecap:round; stroke-linejoin:round; stroke-width:4; stroke-opacity:1; fill:none" points="1634.24,1423.18 1634.24,1404.28 "/>
<polyline clip-path="url(#clip000)" style="stroke:#000000; stroke-linecap:round; stroke-linejoin:round; stroke-width:4; stroke-opacity:1; fill:none" points="1979.09,1423.18 1979.09,1404.28 "/>
<polyline clip-path="url(#clip000)" style="stroke:#000000; stroke-linecap:round; stroke-linejoin:round; stroke-width:4; stroke-opacity:1; fill:none" points="2323.94,1423.18 2323.94,1404.28 "/>
<path clip-path="url(#clip000)" d="M245.22 1481.64 L252.858 1481.64 L252.858 1455.28 L244.548 1456.95 L244.548 1452.69 L252.812 1451.02 L257.488 1451.02 L257.488 1481.64 L265.127 1481.64 L265.127 1485.58 L245.22 1485.58 L245.22 1481.64 Z" fill="#000000" fill-rule="nonzero" fill-opacity="1" /><path clip-path="url(#clip000)" d="M594.341 1481.64 L610.661 1481.64 L610.661 1485.58 L588.716 1485.58 L588.716 1481.64 Q591.378 1478.89 595.962 1474.26 Q600.568 1469.61 601.749 1468.27 Q603.994 1465.74 604.874 1464.01 Q605.777 1462.25 605.777 1460.56 Q605.777 1457.8 603.832 1456.07 Q601.911 1454.33 598.809 1454.33 Q596.61 1454.33 594.156 1455.09 Q591.726 1455.86 588.948 1457.41 L588.948 1452.69 Q591.772 1451.55 594.226 1450.97 Q596.679 1450.39 598.716 1450.39 Q604.087 1450.39 607.281 1453.08 Q610.476 1455.77 610.476 1460.26 Q610.476 1462.39 609.665 1464.31 Q608.878 1466.2 606.772 1468.8 Q606.193 1469.47 603.091 1472.69 Q599.99 1475.88 594.341 1481.64 Z" fill="#000000" fill-rule="nonzero" fill-opacity="1" /><path clip-path="url(#clip000)" d="M948.787 1466.95 Q952.144 1467.66 954.019 1469.93 Q955.917 1472.2 955.917 1475.53 Q955.917 1480.65 952.398 1483.45 Q948.88 1486.25 942.399 1486.25 Q940.223 1486.25 937.908 1485.81 Q935.616 1485.39 933.162 1484.54 L933.162 1480.02 Q935.107 1481.16 937.422 1481.74 Q939.737 1482.32 942.26 1482.32 Q946.658 1482.32 948.949 1480.58 Q951.264 1478.84 951.264 1475.53 Q951.264 1472.48 949.111 1470.77 Q946.982 1469.03 943.162 1469.03 L939.135 1469.03 L939.135 1465.19 L943.348 1465.19 Q946.797 1465.19 948.625 1463.82 Q950.454 1462.43 950.454 1459.84 Q950.454 1457.18 948.556 1455.77 Q946.681 1454.33 943.162 1454.33 Q941.241 1454.33 939.042 1454.75 Q936.843 1455.16 934.204 1456.04 L934.204 1451.88 Q936.866 1451.14 939.181 1450.77 Q941.519 1450.39 943.579 1450.39 Q948.903 1450.39 952.005 1452.83 Q955.107 1455.23 955.107 1459.35 Q955.107 1462.22 953.463 1464.21 Q951.82 1466.18 948.787 1466.95 Z" fill="#000000" fill-rule="nonzero" fill-opacity="1" /><path clip-path="url(#clip000)" d="M1292.4 1455.09 L1280.59 1473.54 L1292.4 1473.54 L1292.4 1455.09 M1291.17 1451.02 L1297.05 1451.02 L1297.05 1473.54 L1301.98 1473.54 L1301.98 1477.43 L1297.05 1477.43 L1297.05 1485.58 L1292.4 1485.58 L1292.4 1477.43 L1276.8 1477.43 L1276.8 1472.92 L1291.17 1451.02 Z" fill="#000000" fill-rule="nonzero" fill-opacity="1" /><path clip-path="url(#clip000)" d="M1624.52 1451.02 L1642.88 1451.02 L1642.88 1454.96 L1628.8 1454.96 L1628.8 1463.43 Q1629.82 1463.08 1630.84 1462.92 Q1631.86 1462.73 1632.88 1462.73 Q1638.66 1462.73 1642.04 1465.9 Q1645.42 1469.08 1645.42 1474.49 Q1645.42 1480.07 1641.95 1483.17 Q1638.48 1486.25 1632.16 1486.25 Q1629.98 1486.25 1627.71 1485.88 Q1625.47 1485.51 1623.06 1484.77 L1623.06 1480.07 Q1625.14 1481.2 1627.37 1481.76 Q1629.59 1482.32 1632.07 1482.32 Q1636.07 1482.32 1638.41 1480.21 Q1640.75 1478.1 1640.75 1474.49 Q1640.75 1470.88 1638.41 1468.77 Q1636.07 1466.67 1632.07 1466.67 Q1630.19 1466.67 1628.32 1467.08 Q1626.46 1467.5 1624.52 1468.38 L1624.52 1451.02 Z" fill="#000000" fill-rule="nonzero" fill-opacity="1" /><path clip-path="url(#clip000)" d="M1979.5 1466.44 Q1976.35 1466.44 1974.5 1468.59 Q1972.67 1470.74 1972.67 1474.49 Q1972.67 1478.22 1974.5 1480.39 Q1976.35 1482.55 1979.5 1482.55 Q1982.65 1482.55 1984.48 1480.39 Q1986.33 1478.22 1986.33 1474.49 Q1986.33 1470.74 1984.48 1468.59 Q1982.65 1466.44 1979.5 1466.44 M1988.78 1451.78 L1988.78 1456.04 Q1987.02 1455.21 1985.22 1454.77 Q1983.43 1454.33 1981.67 1454.33 Q1977.04 1454.33 1974.59 1457.45 Q1972.16 1460.58 1971.81 1466.9 Q1973.18 1464.89 1975.24 1463.82 Q1977.3 1462.73 1979.78 1462.73 Q1984.98 1462.73 1987.99 1465.9 Q1991.03 1469.05 1991.03 1474.49 Q1991.03 1479.82 1987.88 1483.03 Q1984.73 1486.25 1979.5 1486.25 Q1973.5 1486.25 1970.33 1481.67 Q1967.16 1477.06 1967.16 1468.33 Q1967.16 1460.14 1971.05 1455.28 Q1974.94 1450.39 1981.49 1450.39 Q1983.25 1450.39 1985.03 1450.74 Q1986.84 1451.09 1988.78 1451.78 Z" fill="#000000" fill-rule="nonzero" fill-opacity="1" /><path clip-path="url(#clip000)" d="M2312.83 1451.02 L2335.06 1451.02 L2335.06 1453.01 L2322.51 1485.58 L2317.62 1485.58 L2329.43 1454.96 L2312.83 1454.96 L2312.83 1451.02 Z" fill="#000000" fill-rule="nonzero" fill-opacity="1" /><path clip-path="url(#clip000)" d="M1169.33 1545.76 Q1171.4 1546.46 1173.34 1548.76 Q1175.31 1551.05 1177.29 1555.06 L1183.81 1568.04 L1176.91 1568.04 L1170.83 1555.85 Q1168.47 1551.08 1166.24 1549.52 Q1164.05 1547.96 1160.23 1547.96 L1153.23 1547.96 L1153.23 1568.04 L1146.8 1568.04 L1146.8 1520.52 L1161.31 1520.52 Q1169.46 1520.52 1173.47 1523.93 Q1177.48 1527.34 1177.48 1534.21 Q1177.48 1538.7 1175.38 1541.66 Q1173.31 1544.62 1169.33 1545.76 M1153.23 1525.81 L1153.23 1542.68 L1161.31 1542.68 Q1165.96 1542.68 1168.31 1540.54 Q1170.7 1538.38 1170.7 1534.21 Q1170.7 1530.04 1168.31 1527.94 Q1165.96 1525.81 1161.31 1525.81 L1153.23 1525.81 Z" fill="#000000" fill-rule="nonzero" fill-opacity="1" /><path clip-path="url(#clip000)" d="M1206.6 1550.12 Q1199.5 1550.12 1196.77 1551.75 Q1194.03 1553.37 1194.03 1557.29 Q1194.03 1560.4 1196.07 1562.25 Q1198.14 1564.07 1201.67 1564.07 Q1206.54 1564.07 1209.47 1560.63 Q1212.43 1557.16 1212.43 1551.43 L1212.43 1550.12 L1206.6 1550.12 M1218.28 1547.71 L1218.28 1568.04 L1212.43 1568.04 L1212.43 1562.63 Q1210.42 1565.88 1207.43 1567.44 Q1204.44 1568.97 1200.11 1568.97 Q1194.63 1568.97 1191.39 1565.91 Q1188.17 1562.82 1188.17 1557.67 Q1188.17 1551.65 1192.18 1548.6 Q1196.23 1545.54 1204.22 1545.54 L1212.43 1545.54 L1212.43 1544.97 Q1212.43 1540.93 1209.75 1538.73 Q1207.11 1536.5 1202.31 1536.5 Q1199.25 1536.5 1196.35 1537.23 Q1193.46 1537.97 1190.78 1539.43 L1190.78 1534.02 Q1194 1532.78 1197.02 1532.17 Q1200.05 1531.54 1202.91 1531.54 Q1210.64 1531.54 1214.46 1535.55 Q1218.28 1539.56 1218.28 1547.71 Z" fill="#000000" fill-rule="nonzero" fill-opacity="1" /><path clip-path="url(#clip000)" d="M1255.94 1550.25 Q1255.94 1543.79 1253.26 1540.13 Q1250.62 1536.44 1245.97 1536.44 Q1241.33 1536.44 1238.65 1540.13 Q1236.01 1543.79 1236.01 1550.25 Q1236.01 1556.71 1238.65 1560.4 Q1241.33 1564.07 1245.97 1564.07 Q1250.62 1564.07 1253.26 1560.4 Q1255.94 1556.71 1255.94 1550.25 M1236.01 1537.81 Q1237.86 1534.62 1240.66 1533.1 Q1243.49 1531.54 1247.41 1531.54 Q1253.9 1531.54 1257.94 1536.69 Q1262.02 1541.85 1262.02 1550.25 Q1262.02 1558.65 1257.94 1563.81 Q1253.9 1568.97 1247.41 1568.97 Q1243.49 1568.97 1240.66 1567.44 Q1237.86 1565.88 1236.01 1562.7 L1236.01 1568.04 L1230.12 1568.04 L1230.12 1518.52 L1236.01 1518.52 L1236.01 1537.81 Z" fill="#000000" fill-rule="nonzero" fill-opacity="1" /><path clip-path="url(#clip000)" d="M1297.31 1550.25 Q1297.31 1543.79 1294.64 1540.13 Q1292 1536.44 1287.35 1536.44 Q1282.7 1536.44 1280.03 1540.13 Q1277.39 1543.79 1277.39 1550.25 Q1277.39 1556.71 1280.03 1560.4 Q1282.7 1564.07 1287.35 1564.07 Q1292 1564.07 1294.64 1560.4 Q1297.31 1556.71 1297.31 1550.25 M1277.39 1537.81 Q1279.24 1534.62 1282.04 1533.1 Q1284.87 1531.54 1288.78 1531.54 Q1295.28 1531.54 1299.32 1536.69 Q1303.39 1541.85 1303.39 1550.25 Q1303.39 1558.65 1299.32 1563.81 Q1295.28 1568.97 1288.78 1568.97 Q1284.87 1568.97 1282.04 1567.44 Q1279.24 1565.88 1277.39 1562.7 L1277.39 1568.04 L1271.5 1568.04 L1271.5 1518.52 L1277.39 1518.52 L1277.39 1537.81 Z" fill="#000000" fill-rule="nonzero" fill-opacity="1" /><path clip-path="url(#clip000)" d="M1313.1 1532.4 L1318.96 1532.4 L1318.96 1568.04 L1313.1 1568.04 L1313.1 1532.4 M1313.1 1518.52 L1318.96 1518.52 L1318.96 1525.93 L1313.1 1525.93 L1313.1 1518.52 Z" fill="#000000" fill-rule="nonzero" fill-opacity="1" /><path clip-path="url(#clip000)" d="M1337 1522.27 L1337 1532.4 L1349.07 1532.4 L1349.07 1536.95 L1337 1536.95 L1337 1556.3 Q1337 1560.66 1338.18 1561.9 Q1339.39 1563.14 1343.05 1563.14 L1349.07 1563.14 L1349.07 1568.04 L1343.05 1568.04 Q1336.27 1568.04 1333.69 1565.53 Q1331.12 1562.98 1331.12 1556.3 L1331.12 1536.95 L1326.82 1536.95 L1326.82 1532.4 L1331.12 1532.4 L1331.12 1522.27 L1337 1522.27 Z" fill="#000000" fill-rule="nonzero" fill-opacity="1" /><path clip-path="url(#clip000)" d="M1379.49 1533.45 L1379.49 1538.98 Q1377.01 1537.71 1374.34 1537.07 Q1371.67 1536.44 1368.8 1536.44 Q1364.44 1536.44 1362.24 1537.77 Q1360.08 1539.11 1360.08 1541.79 Q1360.08 1543.82 1361.64 1545 Q1363.2 1546.15 1367.91 1547.2 L1369.91 1547.64 Q1376.15 1548.98 1378.76 1551.43 Q1381.4 1553.85 1381.4 1558.21 Q1381.4 1563.17 1377.46 1566.07 Q1373.54 1568.97 1366.67 1568.97 Q1363.8 1568.97 1360.68 1568.39 Q1357.6 1567.85 1354.16 1566.74 L1354.16 1560.69 Q1357.41 1562.38 1360.56 1563.24 Q1363.71 1564.07 1366.8 1564.07 Q1370.93 1564.07 1373.16 1562.66 Q1375.39 1561.23 1375.39 1558.65 Q1375.39 1556.27 1373.77 1554.99 Q1372.17 1553.72 1366.73 1552.54 L1364.69 1552.07 Q1359.25 1550.92 1356.83 1548.56 Q1354.41 1546.18 1354.41 1542.04 Q1354.41 1537.01 1357.98 1534.27 Q1361.54 1531.54 1368.1 1531.54 Q1371.35 1531.54 1374.21 1532.01 Q1377.08 1532.49 1379.49 1533.45 Z" fill="#000000" fill-rule="nonzero" fill-opacity="1" /><polyline clip-path="url(#clip002)" style="stroke:#000000; stroke-linecap:round; stroke-linejoin:round; stroke-width:2; stroke-opacity:0.1; fill:none" points="175.445,1175.5 2352.76,1175.5 "/>
<polyline clip-path="url(#clip002)" style="stroke:#000000; stroke-linecap:round; stroke-linejoin:round; stroke-width:2; stroke-opacity:0.1; fill:none" points="175.445,891.699 2352.76,891.699 "/>
<polyline clip-path="url(#clip002)" style="stroke:#000000; stroke-linecap:round; stroke-linejoin:round; stroke-width:2; stroke-opacity:0.1; fill:none" points="175.445,607.903 2352.76,607.903 "/>
<polyline clip-path="url(#clip002)" style="stroke:#000000; stroke-linecap:round; stroke-linejoin:round; stroke-width:2; stroke-opacity:0.1; fill:none" points="175.445,324.106 2352.76,324.106 "/>
<polyline clip-path="url(#clip000)" style="stroke:#000000; stroke-linecap:round; stroke-linejoin:round; stroke-width:4; stroke-opacity:1; fill:none" points="175.445,1423.18 175.445,123.472 "/>
<polyline clip-path="url(#clip000)" style="stroke:#000000; stroke-linecap:round; stroke-linejoin:round; stroke-width:4; stroke-opacity:1; fill:none" points="175.445,1175.5 194.343,1175.5 "/>
<polyline clip-path="url(#clip000)" style="stroke:#000000; stroke-linecap:round; stroke-linejoin:round; stroke-width:4; stroke-opacity:1; fill:none" points="175.445,891.699 194.343,891.699 "/>
<polyline clip-path="url(#clip000)" style="stroke:#000000; stroke-linecap:round; stroke-linejoin:round; stroke-width:4; stroke-opacity:1; fill:none" points="175.445,607.903 194.343,607.903 "/>
<polyline clip-path="url(#clip000)" style="stroke:#000000; stroke-linecap:round; stroke-linejoin:round; stroke-width:4; stroke-opacity:1; fill:none" points="175.445,324.106 194.343,324.106 "/>
<path clip-path="url(#clip000)" d="M119.538 1188.84 L127.177 1188.84 L127.177 1162.48 L118.867 1164.14 L118.867 1159.88 L127.13 1158.22 L131.806 1158.22 L131.806 1188.84 L139.445 1188.84 L139.445 1192.78 L119.538 1192.78 L119.538 1188.84 Z" fill="#000000" fill-rule="nonzero" fill-opacity="1" /><path clip-path="url(#clip000)" d="M123.126 905.044 L139.445 905.044 L139.445 908.979 L117.501 908.979 L117.501 905.044 Q120.163 902.29 124.746 897.66 Q129.353 893.007 130.533 891.665 Q132.779 889.142 133.658 887.405 Q134.561 885.646 134.561 883.956 Q134.561 881.202 132.617 879.466 Q130.695 877.73 127.593 877.73 Q125.394 877.73 122.941 878.493 Q120.51 879.257 117.732 880.808 L117.732 876.086 Q120.556 874.952 123.01 874.373 Q125.464 873.794 127.501 873.794 Q132.871 873.794 136.066 876.48 Q139.26 879.165 139.26 883.655 Q139.26 885.785 138.45 887.706 Q137.663 889.605 135.556 892.197 Q134.978 892.868 131.876 896.086 Q128.774 899.28 123.126 905.044 Z" fill="#000000" fill-rule="nonzero" fill-opacity="1" /><path clip-path="url(#clip000)" d="M132.316 606.549 Q135.672 607.266 137.547 609.535 Q139.445 611.803 139.445 615.137 Q139.445 620.252 135.927 623.053 Q132.408 625.854 125.927 625.854 Q123.751 625.854 121.436 625.414 Q119.144 624.998 116.691 624.141 L116.691 619.627 Q118.635 620.761 120.95 621.34 Q123.265 621.919 125.788 621.919 Q130.186 621.919 132.478 620.183 Q134.792 618.447 134.792 615.137 Q134.792 612.081 132.64 610.368 Q130.51 608.632 126.691 608.632 L122.663 608.632 L122.663 604.789 L126.876 604.789 Q130.325 604.789 132.154 603.424 Q133.982 602.035 133.982 599.442 Q133.982 596.78 132.084 595.368 Q130.209 593.933 126.691 593.933 Q124.769 593.933 122.57 594.35 Q120.371 594.766 117.732 595.646 L117.732 591.479 Q120.394 590.738 122.709 590.368 Q125.047 589.998 127.107 589.998 Q132.431 589.998 135.533 592.428 Q138.635 594.836 138.635 598.956 Q138.635 601.826 136.992 603.817 Q135.348 605.785 132.316 606.549 Z" fill="#000000" fill-rule="nonzero" fill-opacity="1" /><path clip-path="url(#clip000)" d="M129.862 310.9 L118.056 329.349 L129.862 329.349 L129.862 310.9 M128.635 306.826 L134.515 306.826 L134.515 329.349 L139.445 329.349 L139.445 333.238 L134.515 333.238 L134.515 341.386 L129.862 341.386 L129.862 333.238 L114.26 333.238 L114.26 328.724 L128.635 306.826 Z" fill="#000000" fill-rule="nonzero" fill-opacity="1" /><path clip-path="url(#clip000)" d="M16.4842 886.285 L16.4842 879.792 L56.6518 869.798 L16.4842 859.836 L16.4842 852.611 L56.6518 842.617 L16.4842 832.654 L16.4842 826.13 L64.0042 838.065 L64.0042 846.15 L22.7544 856.176 L64.0042 866.297 L64.0042 874.382 L16.4842 886.285 Z" fill="#000000" fill-rule="nonzero" fill-opacity="1" /><path clip-path="url(#clip000)" d="M32.4621 807.86 Q32.4621 812.571 36.1542 815.308 Q39.8145 818.045 46.212 818.045 Q52.6095 818.045 56.3017 815.34 Q59.9619 812.602 59.9619 807.86 Q59.9619 803.181 56.2698 800.444 Q52.5777 797.707 46.212 797.707 Q39.8781 797.707 36.186 800.444 Q32.4621 803.181 32.4621 807.86 M27.4968 807.86 Q27.4968 800.221 32.4621 795.861 Q37.4273 791.5 46.212 791.5 Q54.9649 791.5 59.9619 795.861 Q64.9272 800.221 64.9272 807.86 Q64.9272 815.531 59.9619 819.891 Q54.9649 824.22 46.212 824.22 Q37.4273 824.22 32.4621 819.891 Q27.4968 815.531 27.4968 807.86 Z" fill="#000000" fill-rule="nonzero" fill-opacity="1" /><path clip-path="url(#clip000)" d="M14.479 781.792 L14.479 775.936 L64.0042 775.936 L64.0042 781.792 L14.479 781.792 Z" fill="#000000" fill-rule="nonzero" fill-opacity="1" /><path clip-path="url(#clip000)" d="M28.3562 767.883 L28.3562 761.677 L58.275 750.537 L28.3562 739.397 L28.3562 733.19 L64.0042 746.558 L64.0042 754.515 L28.3562 767.883 Z" fill="#000000" fill-rule="nonzero" fill-opacity="1" /><path clip-path="url(#clip000)" d="M44.7161 694.614 L47.5806 694.614 L47.5806 721.541 Q53.6281 721.159 56.8109 717.913 Q59.9619 714.634 59.9619 708.81 Q59.9619 705.436 59.1344 702.285 Q58.3069 699.102 56.6518 695.983 L62.1899 695.983 Q63.5267 699.134 64.227 702.444 Q64.9272 705.754 64.9272 709.16 Q64.9272 717.69 59.9619 722.687 Q54.9967 727.652 46.5303 727.652 Q37.7774 727.652 32.6531 722.941 Q27.4968 718.199 27.4968 710.178 Q27.4968 702.985 32.1438 698.815 Q36.7589 694.614 44.7161 694.614 M42.9973 700.47 Q38.1912 700.534 35.3266 703.176 Q32.4621 705.786 32.4621 710.115 Q32.4621 715.016 35.2312 717.976 Q38.0002 720.904 43.0292 721.35 L42.9973 700.47 Z" fill="#000000" fill-rule="nonzero" fill-opacity="1" /><path clip-path="url(#clip000)" d="M29.4065 662.276 L34.9447 662.276 Q33.6716 664.759 33.035 667.432 Q32.3984 670.106 32.3984 672.971 Q32.3984 677.331 33.7352 679.527 Q35.072 681.692 37.7456 681.692 Q39.7826 681.692 40.9603 680.132 Q42.1061 678.572 43.1565 673.862 L43.6021 671.857 Q44.9389 665.618 47.3897 663.008 Q49.8086 660.367 54.1691 660.367 Q59.1344 660.367 62.0308 664.313 Q64.9272 668.228 64.9272 675.103 Q64.9272 677.968 64.3543 681.087 Q63.8132 684.174 62.6992 687.612 L56.6518 687.612 Q58.3387 684.365 59.198 681.214 Q60.0256 678.063 60.0256 674.976 Q60.0256 670.838 58.6251 668.61 Q57.1929 666.382 54.6147 666.382 Q52.2276 666.382 50.9545 668.005 Q49.6813 669.597 48.5037 675.039 L48.0262 677.076 Q46.8804 682.519 44.5251 684.938 Q42.138 687.357 38.0002 687.357 Q32.9713 687.357 30.2341 683.792 Q27.4968 680.228 27.4968 673.671 Q27.4968 670.424 27.9743 667.56 Q28.4517 664.695 29.4065 662.276 Z" fill="#000000" fill-rule="nonzero" fill-opacity="1" /><path clip-path="url(#clip000)" d="M964.739 18.8205 L964.739 41.5461 L975.028 41.5461 Q980.74 41.5461 983.859 38.5889 Q986.978 35.6318 986.978 30.163 Q986.978 24.7348 983.859 21.7777 Q980.74 18.8205 975.028 18.8205 L964.739 18.8205 M956.556 12.096 L975.028 12.096 Q985.196 12.096 990.381 16.714 Q995.607 21.2916 995.607 30.163 Q995.607 39.1155 990.381 43.6931 Q985.196 48.2706 975.028 48.2706 L964.739 48.2706 L964.739 72.576 L956.556 72.576 L956.556 12.096 Z" fill="#000000" fill-rule="nonzero" fill-opacity="1" /><path clip-path="url(#clip000)" d="M1043.97 45.1919 L1043.97 72.576 L1036.52 72.576 L1036.52 45.4349 Q1036.52 38.994 1034.01 35.7938 Q1031.5 32.5936 1026.47 32.5936 Q1020.44 32.5936 1016.95 36.4419 Q1013.47 40.2903 1013.47 46.9338 L1013.47 72.576 L1005.98 72.576 L1005.98 9.54393 L1013.47 9.54393 L1013.47 34.2544 Q1016.14 30.163 1019.75 28.1376 Q1023.4 26.1121 1028.14 26.1121 Q1035.95 26.1121 1039.96 30.9732 Q1043.97 35.7938 1043.97 45.1919 Z" fill="#000000" fill-rule="nonzero" fill-opacity="1" /><path clip-path="url(#clip000)" d="M1079.46 49.7694 Q1070.43 49.7694 1066.94 51.8354 Q1063.46 53.9013 1063.46 58.8839 Q1063.46 62.8538 1066.05 65.2034 Q1068.68 67.5124 1073.18 67.5124 Q1079.38 67.5124 1083.11 63.1374 Q1086.87 58.7219 1086.87 51.4303 L1086.87 49.7694 L1079.46 49.7694 M1094.33 46.6907 L1094.33 72.576 L1086.87 72.576 L1086.87 65.6895 Q1084.32 69.8214 1080.51 71.8063 Q1076.71 73.7508 1071.2 73.7508 Q1064.23 73.7508 1060.1 69.8619 Q1056.01 65.9325 1056.01 59.3701 Q1056.01 51.7138 1061.11 47.825 Q1066.25 43.9361 1076.42 43.9361 L1086.87 43.9361 L1086.87 43.2069 Q1086.87 38.0623 1083.47 35.2672 Q1080.11 32.4315 1073.99 32.4315 Q1070.1 32.4315 1066.42 33.3632 Q1062.73 34.295 1059.33 36.1584 L1059.33 29.2718 Q1063.42 27.692 1067.27 26.9223 Q1071.12 26.1121 1074.76 26.1121 Q1084.6 26.1121 1089.47 31.2163 Q1094.33 36.3204 1094.33 46.6907 Z" fill="#000000" fill-rule="nonzero" fill-opacity="1" /><path clip-path="url(#clip000)" d="M1138.6 28.5427 L1138.6 35.5912 Q1135.44 33.9709 1132.04 33.1607 Q1128.64 32.3505 1124.99 32.3505 Q1119.44 32.3505 1116.65 34.0519 Q1113.89 35.7533 1113.89 39.156 Q1113.89 41.7486 1115.88 43.2475 Q1117.86 44.7058 1123.86 46.0426 L1126.41 46.6097 Q1134.35 48.3111 1137.67 51.4303 Q1141.03 54.509 1141.03 60.0587 Q1141.03 66.3781 1136.01 70.0644 Q1131.03 73.7508 1122.28 73.7508 Q1118.63 73.7508 1114.66 73.0216 Q1110.73 72.3329 1106.36 70.9151 L1106.36 63.2184 Q1110.49 65.3654 1114.5 66.4591 Q1118.51 67.5124 1122.44 67.5124 Q1127.71 67.5124 1130.54 65.73 Q1133.38 63.9071 1133.38 60.6258 Q1133.38 57.5877 1131.31 55.9673 Q1129.29 54.3469 1122.36 52.8481 L1119.77 52.2405 Q1112.84 50.7821 1109.76 47.7845 Q1106.68 44.7463 1106.68 39.4801 Q1106.68 33.0797 1111.22 29.5959 Q1115.76 26.1121 1124.1 26.1121 Q1128.23 26.1121 1131.88 26.7198 Q1135.52 27.3274 1138.6 28.5427 Z" fill="#000000" fill-rule="nonzero" fill-opacity="1" /><path clip-path="url(#clip000)" d="M1191.71 48.0275 L1191.71 51.6733 L1157.44 51.6733 Q1157.93 59.3701 1162.06 63.421 Q1166.23 67.4314 1173.64 67.4314 Q1177.94 67.4314 1181.95 66.3781 Q1186 65.3249 1189.97 63.2184 L1189.97 70.267 Q1185.96 71.9684 1181.75 72.8596 Q1177.53 73.7508 1173.2 73.7508 Q1162.34 73.7508 1155.98 67.4314 Q1149.66 61.1119 1149.66 50.3365 Q1149.66 39.1965 1155.66 32.6746 Q1161.69 26.1121 1171.9 26.1121 Q1181.06 26.1121 1186.36 32.0264 Q1191.71 37.9003 1191.71 48.0275 M1184.26 45.84 Q1184.18 39.7232 1180.81 36.0774 Q1177.49 32.4315 1171.98 32.4315 Q1165.74 32.4315 1161.98 35.9558 Q1158.25 39.4801 1157.68 45.8805 L1184.26 45.84 Z" fill="#000000" fill-rule="nonzero" fill-opacity="1" /><path clip-path="url(#clip000)" d="M1238.82 18.8205 L1238.82 65.8515 L1248.71 65.8515 Q1261.22 65.8515 1267.02 60.1802 Q1272.85 54.509 1272.85 42.2752 Q1272.85 30.1225 1267.02 24.4918 Q1261.22 18.8205 1248.71 18.8205 L1238.82 18.8205 M1230.64 12.096 L1247.45 12.096 Q1265.03 12.096 1273.26 19.4281 Q1281.48 26.7198 1281.48 42.2752 Q1281.48 57.9117 1273.22 65.2439 Q1264.95 72.576 1247.45 72.576 L1230.64 72.576 L1230.64 12.096 Z" fill="#000000" fill-rule="nonzero" fill-opacity="1" /><path clip-path="url(#clip000)" d="M1294.2 27.2059 L1301.65 27.2059 L1301.65 72.576 L1294.2 72.576 L1294.2 27.2059 M1294.2 9.54393 L1301.65 9.54393 L1301.65 18.9825 L1294.2 18.9825 L1294.2 9.54393 Z" fill="#000000" fill-rule="nonzero" fill-opacity="1" /><path clip-path="url(#clip000)" d="M1337.87 49.7694 Q1328.83 49.7694 1325.35 51.8354 Q1321.87 53.9013 1321.87 58.8839 Q1321.87 62.8538 1324.46 65.2034 Q1327.09 67.5124 1331.59 67.5124 Q1337.79 67.5124 1341.51 63.1374 Q1345.28 58.7219 1345.28 51.4303 L1345.28 49.7694 L1337.87 49.7694 M1352.73 46.6907 L1352.73 72.576 L1345.28 72.576 L1345.28 65.6895 Q1342.73 69.8214 1338.92 71.8063 Q1335.11 73.7508 1329.6 73.7508 Q1322.64 73.7508 1318.5 69.8619 Q1314.41 65.9325 1314.41 59.3701 Q1314.41 51.7138 1319.52 47.825 Q1324.66 43.9361 1334.83 43.9361 L1345.28 43.9361 L1345.28 43.2069 Q1345.28 38.0623 1341.88 35.2672 Q1338.52 32.4315 1332.4 32.4315 Q1328.51 32.4315 1324.82 33.3632 Q1321.14 34.295 1317.73 36.1584 L1317.73 29.2718 Q1321.83 27.692 1325.67 26.9223 Q1329.52 26.1121 1333.17 26.1121 Q1343.01 26.1121 1347.87 31.2163 Q1352.73 36.3204 1352.73 46.6907 Z" fill="#000000" fill-rule="nonzero" fill-opacity="1" /><path clip-path="url(#clip000)" d="M1397.94 49.3643 Q1397.94 41.2625 1394.58 36.8065 Q1391.26 32.3505 1385.22 32.3505 Q1379.23 32.3505 1375.87 36.8065 Q1372.54 41.2625 1372.54 49.3643 Q1372.54 57.4256 1375.87 61.8816 Q1379.23 66.3376 1385.22 66.3376 Q1391.26 66.3376 1394.58 61.8816 Q1397.94 57.4256 1397.94 49.3643 M1405.4 66.9452 Q1405.4 78.5308 1400.25 84.1616 Q1395.11 89.8329 1384.49 89.8329 Q1380.56 89.8329 1377.08 89.2252 Q1373.6 88.6581 1370.32 87.4428 L1370.32 80.1917 Q1373.6 81.9741 1376.8 82.8248 Q1380 83.6755 1383.32 83.6755 Q1390.65 83.6755 1394.3 79.8271 Q1397.94 76.0193 1397.94 68.282 L1397.94 64.5957 Q1395.63 68.6061 1392.03 70.5911 Q1388.42 72.576 1383.4 72.576 Q1375.05 72.576 1369.95 66.2161 Q1364.85 59.8562 1364.85 49.3643 Q1364.85 38.832 1369.95 32.472 Q1375.05 26.1121 1383.4 26.1121 Q1388.42 26.1121 1392.03 28.0971 Q1395.63 30.082 1397.94 34.0924 L1397.94 27.2059 L1405.4 27.2059 L1405.4 66.9452 Z" fill="#000000" fill-rule="nonzero" fill-opacity="1" /><path clip-path="url(#clip000)" d="M1447.04 34.1734 Q1445.78 33.4443 1444.28 33.1202 Q1442.83 32.7556 1441.04 32.7556 Q1434.72 32.7556 1431.32 36.8875 Q1427.96 40.9789 1427.96 48.6757 L1427.96 72.576 L1420.47 72.576 L1420.47 27.2059 L1427.96 27.2059 L1427.96 34.2544 Q1430.31 30.1225 1434.08 28.1376 Q1437.84 26.1121 1443.23 26.1121 Q1444 26.1121 1444.93 26.2337 Q1445.86 26.3147 1447 26.5172 L1447.04 34.1734 Z" fill="#000000" fill-rule="nonzero" fill-opacity="1" /><path clip-path="url(#clip000)" d="M1475.48 49.7694 Q1466.44 49.7694 1462.96 51.8354 Q1459.48 53.9013 1459.48 58.8839 Q1459.48 62.8538 1462.07 65.2034 Q1464.7 67.5124 1469.2 67.5124 Q1475.4 67.5124 1479.12 63.1374 Q1482.89 58.7219 1482.89 51.4303 L1482.89 49.7694 L1475.48 49.7694 M1490.34 46.6907 L1490.34 72.576 L1482.89 72.576 L1482.89 65.6895 Q1480.34 69.8214 1476.53 71.8063 Q1472.72 73.7508 1467.21 73.7508 Q1460.25 73.7508 1456.11 69.8619 Q1452.02 65.9325 1452.02 59.3701 Q1452.02 51.7138 1457.13 47.825 Q1462.27 43.9361 1472.44 43.9361 L1482.89 43.9361 L1482.89 43.2069 Q1482.89 38.0623 1479.49 35.2672 Q1476.12 32.4315 1470.01 32.4315 Q1466.12 32.4315 1462.43 33.3632 Q1458.75 34.295 1455.34 36.1584 L1455.34 29.2718 Q1459.44 27.692 1463.28 26.9223 Q1467.13 26.1121 1470.78 26.1121 Q1480.62 26.1121 1485.48 31.2163 Q1490.34 36.3204 1490.34 46.6907 Z" fill="#000000" fill-rule="nonzero" fill-opacity="1" /><path clip-path="url(#clip000)" d="M1541.02 35.9153 Q1543.82 30.8922 1547.7 28.5022 Q1551.59 26.1121 1556.86 26.1121 Q1563.95 26.1121 1567.8 31.0947 Q1571.65 36.0368 1571.65 45.1919 L1571.65 72.576 L1564.15 72.576 L1564.15 45.4349 Q1564.15 38.913 1561.84 35.7533 Q1559.53 32.5936 1554.79 32.5936 Q1549 32.5936 1545.64 36.4419 Q1542.28 40.2903 1542.28 46.9338 L1542.28 72.576 L1534.78 72.576 L1534.78 45.4349 Q1534.78 38.8725 1532.47 35.7533 Q1530.16 32.5936 1525.34 32.5936 Q1519.63 32.5936 1516.27 36.4824 Q1512.91 40.3308 1512.91 46.9338 L1512.91 72.576 L1505.41 72.576 L1505.41 27.2059 L1512.91 27.2059 L1512.91 34.2544 Q1515.46 30.082 1519.02 28.0971 Q1522.59 26.1121 1527.49 26.1121 Q1532.43 26.1121 1535.88 28.6237 Q1539.36 31.1352 1541.02 35.9153 Z" fill="#000000" fill-rule="nonzero" fill-opacity="1" /><polyline clip-path="url(#clip002)" style="stroke:#009af9; stroke-linecap:round; stroke-linejoin:round; stroke-width:4; stroke-opacity:1; fill:none" points="254.838,1175.5 266.593,1207.4 294.982,1255.27 344.318,1300.85 421.901,1337.8 536.309,1364.11 695.67,1380 915.122,1386.33 1200.07,1381.6 1532.63,1361.34 1873.9,1315.11 2163.54,1219.1 2291.13,1035.56 2180.1,790.685 1864.99,508.871 1486.24,293.606 1082.65,170.577 813.076,171.392 560.837,280.28 413.685,438.905 322.721,613.515 271.465,773.472 243.464,926.77 237.633,1065.93 254.687,1175 296.728,1257.47 376.108,1319.17 503.457,1358.48 682.892,1379.2 933.924,1386.4 1259.09,1379.22 1627.53,1351.9 1984.49,1289.24 2242.79,1157 2261.88,916.944 2048.63,654.209 1736.38,424.947 1341.72,236.022 933.635,160.256 707.591,199.841 491.915,341.593 367.76,515.907 297.763,682.058 256.407,842.388 238.18,988.184 242.895,1121.39 270.129,1215.07 328.328,1289.05 429.249,1340.2 580.044,1370.04 790.987,1384.21 1078.62,1385.03 1430.66,1369.44 1801.53,1328.27 2126.77,1238.29 2289.67,1057.32 2196.67,811.763 1929.25,555.753 1566.28,331.299 1146.04,181.568 838.402,167.354 601.804,251.897 433.486,410.809 331.994,591.088 276.992,751.946 245.684,908.892 237.067,1049.04 251.552,1163.91 263.923,1201.13 "/>
<path clip-path="url(#clip000)" d="M2010.02 270.476 L2280.18 270.476 L2280.18 166.796 L2010.02 166.796  Z" fill="#ffffff" fill-rule="evenodd" fill-opacity="1"/>
<polyline clip-path="url(#clip000)" style="stroke:#000000; stroke-linecap:round; stroke-linejoin:round; stroke-width:4; stroke-opacity:1; fill:none" points="2010.02,270.476 2280.18,270.476 2280.18,166.796 2010.02,166.796 2010.02,270.476 "/>
<polyline clip-path="url(#clip000)" style="stroke:#009af9; stroke-linecap:round; stroke-linejoin:round; stroke-width:4; stroke-opacity:1; fill:none" points="2034.21,218.636 2179.36,218.636 "/>
<path clip-path="url(#clip000)" d="M2217.4 238.323 Q2215.59 242.953 2213.88 244.365 Q2212.17 245.777 2209.3 245.777 L2205.89 245.777 L2205.89 242.212 L2208.39 242.212 Q2210.15 242.212 2211.13 241.379 Q2212.1 240.545 2213.28 237.443 L2214.04 235.499 L2203.56 209.99 L2208.07 209.99 L2216.17 230.268 L2224.27 209.99 L2228.79 209.99 L2217.4 238.323 Z" fill="#000000" fill-rule="nonzero" fill-opacity="1" /><path clip-path="url(#clip000)" d="M2236.08 231.981 L2243.72 231.981 L2243.72 205.615 L2235.41 207.282 L2235.41 203.022 L2243.67 201.356 L2248.35 201.356 L2248.35 231.981 L2255.99 231.981 L2255.99 235.916 L2236.08 235.916 L2236.08 231.981 Z" fill="#000000" fill-rule="nonzero" fill-opacity="1" /></svg>
