<?xml version="1.0" encoding="utf-8"?>
<svg xmlns="http://www.w3.org/2000/svg" xmlns:xlink="http://www.w3.org/1999/xlink" width="600" height="400" viewBox="0 0 2400 1600">
<defs>
  <clipPath id="clip850">
    <rect x="0" y="0" width="2400" height="1600"/>
  </clipPath>
</defs>
<path clip-path="url(#clip850)" d="M0 1600 L2400 1600 L2400 0 L0 0  Z" fill="#ffffff" fill-rule="evenodd" fill-opacity="1"/>
<defs>
  <clipPath id="clip851">
    <rect x="480" y="0" width="1681" height="1600"/>
  </clipPath>
</defs>
<path clip-path="url(#clip850)" d="M155.765 1423.18 L2352.76 1423.18 L2352.76 47.2441 L155.765 47.2441  Z" fill="#ffffff" fill-rule="evenodd" fill-opacity="1"/>
<defs>
  <clipPath id="clip852">
    <rect x="155" y="47" width="2198" height="1377"/>
  </clipPath>
</defs>
<polyline clip-path="url(#clip852)" style="stroke:#000000; stroke-linecap:round; stroke-linejoin:round; stroke-width:2; stroke-opacity:0.1; fill:none" points="155.765,1423.18 155.765,47.2441 "/>
<polyline clip-path="url(#clip852)" style="stroke:#000000; stroke-linecap:round; stroke-linejoin:round; stroke-width:2; stroke-opacity:0.1; fill:none" points="595.163,1423.18 595.163,47.2441 "/>
<polyline clip-path="url(#clip852)" style="stroke:#000000; stroke-linecap:round; stroke-linejoin:round; stroke-width:2; stroke-opacity:0.1; fill:none" points="1034.56,1423.18 1034.56,47.2441 "/>
<polyline clip-path="url(#clip852)" style="stroke:#000000; stroke-linecap:round; stroke-linejoin:round; stroke-width:2; stroke-opacity:0.1; fill:none" points="1473.96,1423.18 1473.96,47.2441 "/>
<polyline clip-path="url(#clip852)" style="stroke:#000000; stroke-linecap:round; stroke-linejoin:round; stroke-width:2; stroke-opacity:0.1; fill:none" points="1913.36,1423.18 1913.36,47.2441 "/>
<polyline clip-path="url(#clip852)" style="stroke:#000000; stroke-linecap:round; stroke-linejoin:round; stroke-width:2; stroke-opacity:0.1; fill:none" points="2352.76,1423.18 2352.76,47.2441 "/>
<polyline clip-path="url(#clip850)" style="stroke:#000000; stroke-linecap:round; stroke-linejoin:round; stroke-width:4; stroke-opacity:1; fill:none" points="155.765,1423.18 2352.76,1423.18 "/>
<polyline clip-path="url(#clip850)" style="stroke:#000000; stroke-linecap:round; stroke-linejoin:round; stroke-width:4; stroke-opacity:1; fill:none" points="155.765,1423.18 155.765,1404.28 "/>
<polyline clip-path="url(#clip850)" style="stroke:#000000; stroke-linecap:round; stroke-linejoin:round; stroke-width:4; stroke-opacity:1; fill:none" points="595.163,1423.18 595.163,1404.28 "/>
<polyline clip-path="url(#clip850)" style="stroke:#000000; stroke-linecap:round; stroke-linejoin:round; stroke-width:4; stroke-opacity:1; fill:none" points="1034.56,1423.18 1034.56,1404.28 "/>
<polyline clip-path="url(#clip850)" style="stroke:#000000; stroke-linecap:round; stroke-linejoin:round; stroke-width:4; stroke-opacity:1; fill:none" points="1473.96,1423.18 1473.96,1404.28 "/>
<polyline clip-path="url(#clip850)" style="stroke:#000000; stroke-linecap:round; stroke-linejoin:round; stroke-width:4; stroke-opacity:1; fill:none" points="1913.36,1423.18 1913.36,1404.28 "/>
<polyline clip-path="url(#clip850)" style="stroke:#000000; stroke-linecap:round; stroke-linejoin:round; stroke-width:4; stroke-opacity:1; fill:none" points="2352.76,1423.18 2352.76,1404.28 "/>
<path clip-path="url(#clip850)" d="M155.765 1454.1 Q152.154 1454.1 150.325 1457.66 Q148.52 1461.2 148.52 1468.33 Q148.52 1475.44 150.325 1479.01 Q152.154 1482.55 155.765 1482.55 Q159.399 1482.55 161.205 1479.01 Q163.033 1475.44 163.033 1468.33 Q163.033 1461.2 161.205 1457.66 Q159.399 1454.1 155.765 1454.1 M155.765 1450.39 Q161.575 1450.39 164.631 1455 Q167.709 1459.58 167.709 1468.33 Q167.709 1477.06 164.631 1481.67 Q161.575 1486.25 155.765 1486.25 Q149.955 1486.25 146.876 1481.67 Q143.821 1477.06 143.821 1468.33 Q143.821 1459.58 146.876 1455 Q149.955 1450.39 155.765 1450.39 Z" fill="#000000" fill-rule="nonzero" fill-opacity="1" /><path clip-path="url(#clip850)" d="M569.851 1481.64 L577.49 1481.64 L577.49 1455.28 L569.179 1456.95 L569.179 1452.69 L577.443 1451.02 L582.119 1451.02 L582.119 1481.64 L589.758 1481.64 L589.758 1485.58 L569.851 1485.58 L569.851 1481.64 Z" fill="#000000" fill-rule="nonzero" fill-opacity="1" /><path clip-path="url(#clip850)" d="M609.202 1454.1 Q605.591 1454.1 603.763 1457.66 Q601.957 1461.2 601.957 1468.33 Q601.957 1475.44 603.763 1479.01 Q605.591 1482.55 609.202 1482.55 Q612.837 1482.55 614.642 1479.01 Q616.471 1475.44 616.471 1468.33 Q616.471 1461.2 614.642 1457.66 Q612.837 1454.1 609.202 1454.1 M609.202 1450.39 Q615.013 1450.39 618.068 1455 Q621.147 1459.58 621.147 1468.33 Q621.147 1477.06 618.068 1481.67 Q615.013 1486.25 609.202 1486.25 Q603.392 1486.25 600.314 1481.67 Q597.258 1477.06 597.258 1468.33 Q597.258 1459.58 600.314 1455 Q603.392 1450.39 609.202 1450.39 Z" fill="#000000" fill-rule="nonzero" fill-opacity="1" /><path clip-path="url(#clip850)" d="M1013.33 1481.64 L1029.65 1481.64 L1029.65 1485.58 L1007.71 1485.58 L1007.71 1481.64 Q1010.37 1478.89 1014.95 1474.26 Q1019.56 1469.61 1020.74 1468.27 Q1022.99 1465.74 1023.87 1464.01 Q1024.77 1462.25 1024.77 1460.56 Q1024.77 1457.8 1022.83 1456.07 Q1020.9 1454.33 1017.8 1454.33 Q1015.6 1454.33 1013.15 1455.09 Q1010.72 1455.86 1007.94 1457.41 L1007.94 1452.69 Q1010.77 1451.55 1013.22 1450.97 Q1015.67 1450.39 1017.71 1450.39 Q1023.08 1450.39 1026.27 1453.08 Q1029.47 1455.77 1029.47 1460.26 Q1029.47 1462.39 1028.66 1464.31 Q1027.87 1466.2 1025.77 1468.8 Q1025.19 1469.47 1022.08 1472.69 Q1018.98 1475.88 1013.33 1481.64 Z" fill="#000000" fill-rule="nonzero" fill-opacity="1" /><path clip-path="url(#clip850)" d="M1049.47 1454.1 Q1045.86 1454.1 1044.03 1457.66 Q1042.22 1461.2 1042.22 1468.33 Q1042.22 1475.44 1044.03 1479.01 Q1045.86 1482.55 1049.47 1482.55 Q1053.1 1482.55 1054.91 1479.01 Q1056.74 1475.44 1056.74 1468.33 Q1056.74 1461.2 1054.91 1457.66 Q1053.1 1454.1 1049.47 1454.1 M1049.47 1450.39 Q1055.28 1450.39 1058.33 1455 Q1061.41 1459.58 1061.41 1468.33 Q1061.41 1477.06 1058.33 1481.67 Q1055.28 1486.25 1049.47 1486.25 Q1043.66 1486.25 1040.58 1481.67 Q1037.52 1477.06 1037.52 1468.33 Q1037.52 1459.58 1040.58 1455 Q1043.66 1450.39 1049.47 1450.39 Z" fill="#000000" fill-rule="nonzero" fill-opacity="1" /><path clip-path="url(#clip850)" d="M1462.8 1466.95 Q1466.16 1467.66 1468.03 1469.93 Q1469.93 1472.2 1469.93 1475.53 Q1469.93 1480.65 1466.41 1483.45 Q1462.89 1486.25 1456.41 1486.25 Q1454.24 1486.25 1451.92 1485.81 Q1449.63 1485.39 1447.18 1484.54 L1447.18 1480.02 Q1449.12 1481.16 1451.44 1481.74 Q1453.75 1482.32 1456.27 1482.32 Q1460.67 1482.32 1462.96 1480.58 Q1465.28 1478.84 1465.28 1475.53 Q1465.28 1472.48 1463.13 1470.77 Q1461 1469.03 1457.18 1469.03 L1453.15 1469.03 L1453.15 1465.19 L1457.36 1465.19 Q1460.81 1465.19 1462.64 1463.82 Q1464.47 1462.43 1464.47 1459.84 Q1464.47 1457.18 1462.57 1455.77 Q1460.7 1454.33 1457.18 1454.33 Q1455.26 1454.33 1453.06 1454.75 Q1450.86 1455.16 1448.22 1456.04 L1448.22 1451.88 Q1450.88 1451.14 1453.2 1450.77 Q1455.53 1450.39 1457.59 1450.39 Q1462.92 1450.39 1466.02 1452.83 Q1469.12 1455.23 1469.12 1459.35 Q1469.12 1462.22 1467.48 1464.21 Q1465.83 1466.18 1462.8 1466.95 Z" fill="#000000" fill-rule="nonzero" fill-opacity="1" /><path clip-path="url(#clip850)" d="M1488.8 1454.1 Q1485.19 1454.1 1483.36 1457.66 Q1481.55 1461.2 1481.55 1468.33 Q1481.55 1475.44 1483.36 1479.01 Q1485.19 1482.55 1488.8 1482.55 Q1492.43 1482.55 1494.24 1479.01 Q1496.07 1475.44 1496.07 1468.33 Q1496.07 1461.2 1494.24 1457.66 Q1492.43 1454.1 1488.8 1454.1 M1488.8 1450.39 Q1494.61 1450.39 1497.66 1455 Q1500.74 1459.58 1500.74 1468.33 Q1500.74 1477.06 1497.66 1481.67 Q1494.61 1486.25 1488.8 1486.25 Q1482.99 1486.25 1479.91 1481.67 Q1476.85 1477.06 1476.85 1468.33 Q1476.85 1459.58 1479.91 1455 Q1482.99 1450.39 1488.8 1450.39 Z" fill="#000000" fill-rule="nonzero" fill-opacity="1" /><path clip-path="url(#clip850)" d="M1901.53 1455.09 L1889.72 1473.54 L1901.53 1473.54 L1901.53 1455.09 M1900.3 1451.02 L1906.18 1451.02 L1906.18 1473.54 L1911.11 1473.54 L1911.11 1477.43 L1906.18 1477.43 L1906.18 1485.58 L1901.53 1485.58 L1901.53 1477.43 L1885.93 1477.43 L1885.93 1472.92 L1900.3 1451.02 Z" fill="#000000" fill-rule="nonzero" fill-opacity="1" /><path clip-path="url(#clip850)" d="M1928.84 1454.1 Q1925.23 1454.1 1923.4 1457.66 Q1921.6 1461.2 1921.6 1468.33 Q1921.6 1475.44 1923.4 1479.01 Q1925.23 1482.55 1928.84 1482.55 Q1932.48 1482.55 1934.28 1479.01 Q1936.11 1475.44 1936.11 1468.33 Q1936.11 1461.2 1934.28 1457.66 Q1932.48 1454.1 1928.84 1454.1 M1928.84 1450.39 Q1934.65 1450.39 1937.71 1455 Q1940.79 1459.58 1940.79 1468.33 Q1940.79 1477.06 1937.71 1481.67 Q1934.65 1486.25 1928.84 1486.25 Q1923.03 1486.25 1919.95 1481.67 Q1916.9 1477.06 1916.9 1468.33 Q1916.9 1459.58 1919.95 1455 Q1923.03 1450.39 1928.84 1450.39 Z" fill="#000000" fill-rule="nonzero" fill-opacity="1" /><path clip-path="url(#clip850)" d="M2327.46 1451.02 L2345.81 1451.02 L2345.81 1454.96 L2331.74 1454.96 L2331.74 1463.43 Q2332.76 1463.08 2333.77 1462.92 Q2334.79 1462.73 2335.81 1462.73 Q2341.6 1462.73 2344.98 1465.9 Q2348.36 1469.08 2348.36 1474.49 Q2348.36 1480.07 2344.89 1483.17 Q2341.41 1486.25 2335.09 1486.25 Q2332.92 1486.25 2330.65 1485.88 Q2328.4 1485.51 2326 1484.77 L2326 1480.07 Q2328.08 1481.2 2330.3 1481.76 Q2332.52 1482.32 2335 1482.32 Q2339.01 1482.32 2341.34 1480.21 Q2343.68 1478.1 2343.68 1474.49 Q2343.68 1470.88 2341.34 1468.77 Q2339.01 1466.67 2335 1466.67 Q2333.13 1466.67 2331.25 1467.08 Q2329.4 1467.5 2327.46 1468.38 L2327.46 1451.02 Z" fill="#000000" fill-rule="nonzero" fill-opacity="1" /><path clip-path="url(#clip850)" d="M2367.57 1454.1 Q2363.96 1454.1 2362.13 1457.66 Q2360.33 1461.2 2360.33 1468.33 Q2360.33 1475.44 2362.13 1479.01 Q2363.96 1482.55 2367.57 1482.55 Q2371.2 1482.55 2373.01 1479.01 Q2374.84 1475.44 2374.84 1468.33 Q2374.84 1461.2 2373.01 1457.66 Q2371.2 1454.1 2367.57 1454.1 M2367.57 1450.39 Q2373.38 1450.39 2376.44 1455 Q2379.52 1459.58 2379.52 1468.33 Q2379.52 1477.06 2376.44 1481.67 Q2373.38 1486.25 2367.57 1486.25 Q2361.76 1486.25 2358.68 1481.67 Q2355.63 1477.06 2355.63 1468.33 Q2355.63 1459.58 2358.68 1455 Q2361.76 1450.39 2367.57 1450.39 Z" fill="#000000" fill-rule="nonzero" fill-opacity="1" /><path clip-path="url(#clip850)" d="M1253.32 1522.27 L1253.32 1532.4 L1265.38 1532.4 L1265.38 1536.95 L1253.32 1536.95 L1253.32 1556.3 Q1253.32 1560.66 1254.5 1561.9 Q1255.71 1563.14 1259.37 1563.14 L1265.38 1563.14 L1265.38 1568.04 L1259.37 1568.04 Q1252.59 1568.04 1250.01 1565.53 Q1247.43 1562.98 1247.43 1556.3 L1247.43 1536.95 L1243.14 1536.95 L1243.14 1532.4 L1247.43 1532.4 L1247.43 1522.27 L1253.32 1522.27 Z" fill="#000000" fill-rule="nonzero" fill-opacity="1" /><polyline clip-path="url(#clip852)" style="stroke:#000000; stroke-linecap:round; stroke-linejoin:round; stroke-width:2; stroke-opacity:0.1; fill:none" points="155.765,1335.96 2352.76,1335.96 "/>
<polyline clip-path="url(#clip852)" style="stroke:#000000; stroke-linecap:round; stroke-linejoin:round; stroke-width:2; stroke-opacity:0.1; fill:none" points="155.765,1046.07 2352.76,1046.07 "/>
<polyline clip-path="url(#clip852)" style="stroke:#000000; stroke-linecap:round; stroke-linejoin:round; stroke-width:2; stroke-opacity:0.1; fill:none" points="155.765,756.188 2352.76,756.188 "/>
<polyline clip-path="url(#clip852)" style="stroke:#000000; stroke-linecap:round; stroke-linejoin:round; stroke-width:2; stroke-opacity:0.1; fill:none" points="155.765,466.302 2352.76,466.302 "/>
<polyline clip-path="url(#clip852)" style="stroke:#000000; stroke-linecap:round; stroke-linejoin:round; stroke-width:2; stroke-opacity:0.1; fill:none" points="155.765,176.416 2352.76,176.416 "/>
<polyline clip-path="url(#clip850)" style="stroke:#000000; stroke-linecap:round; stroke-linejoin:round; stroke-width:4; stroke-opacity:1; fill:none" points="155.765,1423.18 155.765,47.2441 "/>
<polyline clip-path="url(#clip850)" style="stroke:#000000; stroke-linecap:round; stroke-linejoin:round; stroke-width:4; stroke-opacity:1; fill:none" points="155.765,1335.96 174.663,1335.96 "/>
<polyline clip-path="url(#clip850)" style="stroke:#000000; stroke-linecap:round; stroke-linejoin:round; stroke-width:4; stroke-opacity:1; fill:none" points="155.765,1046.07 174.663,1046.07 "/>
<polyline clip-path="url(#clip850)" style="stroke:#000000; stroke-linecap:round; stroke-linejoin:round; stroke-width:4; stroke-opacity:1; fill:none" points="155.765,756.188 174.663,756.188 "/>
<polyline clip-path="url(#clip850)" style="stroke:#000000; stroke-linecap:round; stroke-linejoin:round; stroke-width:4; stroke-opacity:1; fill:none" points="155.765,466.302 174.663,466.302 "/>
<polyline clip-path="url(#clip850)" style="stroke:#000000; stroke-linecap:round; stroke-linejoin:round; stroke-width:4; stroke-opacity:1; fill:none" points="155.765,176.416 174.663,176.416 "/>
<path clip-path="url(#clip850)" d="M53.3995 1349.3 L61.0384 1349.3 L61.0384 1322.94 L52.7282 1324.61 L52.7282 1320.35 L60.9921 1318.68 L65.668 1318.68 L65.668 1349.3 L73.3068 1349.3 L73.3068 1353.24 L53.3995 1353.24 L53.3995 1349.3 Z" fill="#000000" fill-rule="nonzero" fill-opacity="1" /><path clip-path="url(#clip850)" d="M82.7512 1347.36 L87.6354 1347.36 L87.6354 1353.24 L82.7512 1353.24 L82.7512 1347.36 Z" fill="#000000" fill-rule="nonzero" fill-opacity="1" /><path clip-path="url(#clip850)" d="M107.821 1321.76 Q104.209 1321.76 102.381 1325.32 Q100.575 1328.86 100.575 1335.99 Q100.575 1343.1 102.381 1346.67 Q104.209 1350.21 107.821 1350.21 Q111.455 1350.21 113.26 1346.67 Q115.089 1343.1 115.089 1335.99 Q115.089 1328.86 113.26 1325.32 Q111.455 1321.76 107.821 1321.76 M107.821 1318.05 Q113.631 1318.05 116.686 1322.66 Q119.765 1327.24 119.765 1335.99 Q119.765 1344.72 116.686 1349.33 Q113.631 1353.91 107.821 1353.91 Q102.01 1353.91 98.9317 1349.33 Q95.8761 1344.72 95.8761 1335.99 Q95.8761 1327.24 98.9317 1322.66 Q102.01 1318.05 107.821 1318.05 Z" fill="#000000" fill-rule="nonzero" fill-opacity="1" /><path clip-path="url(#clip850)" d="M54.3949 1059.42 L62.0337 1059.42 L62.0337 1033.05 L53.7236 1034.72 L53.7236 1030.46 L61.9874 1028.79 L66.6633 1028.79 L66.6633 1059.42 L74.3022 1059.42 L74.3022 1063.35 L54.3949 1063.35 L54.3949 1059.42 Z" fill="#000000" fill-rule="nonzero" fill-opacity="1" /><path clip-path="url(#clip850)" d="M83.7466 1057.47 L88.6308 1057.47 L88.6308 1063.35 L83.7466 1063.35 L83.7466 1057.47 Z" fill="#000000" fill-rule="nonzero" fill-opacity="1" /><path clip-path="url(#clip850)" d="M98.8622 1028.79 L117.219 1028.79 L117.219 1032.73 L103.145 1032.73 L103.145 1041.2 Q104.163 1040.85 105.182 1040.69 Q106.2 1040.51 107.219 1040.51 Q113.006 1040.51 116.385 1043.68 Q119.765 1046.85 119.765 1052.27 Q119.765 1057.84 116.293 1060.95 Q112.82 1064.03 106.501 1064.03 Q104.325 1064.03 102.057 1063.65 Q99.8113 1063.28 97.4039 1062.54 L97.4039 1057.84 Q99.4872 1058.98 101.709 1059.53 Q103.932 1060.09 106.408 1060.09 Q110.413 1060.09 112.751 1057.98 Q115.089 1055.88 115.089 1052.27 Q115.089 1048.65 112.751 1046.55 Q110.413 1044.44 106.408 1044.44 Q104.534 1044.44 102.659 1044.86 Q100.807 1045.28 98.8622 1046.15 L98.8622 1028.79 Z" fill="#000000" fill-rule="nonzero" fill-opacity="1" /><path clip-path="url(#clip850)" d="M56.6171 769.533 L72.9365 769.533 L72.9365 773.468 L50.9921 773.468 L50.9921 769.533 Q53.6541 766.778 58.2375 762.149 Q62.8439 757.496 64.0245 756.153 Q66.2698 753.63 67.1494 751.894 Q68.0522 750.135 68.0522 748.445 Q68.0522 745.69 66.1078 743.954 Q64.1865 742.218 61.0847 742.218 Q58.8856 742.218 56.4319 742.982 Q54.0014 743.746 51.2236 745.297 L51.2236 740.575 Q54.0477 739.44 56.5014 738.862 Q58.955 738.283 60.9921 738.283 Q66.3624 738.283 69.5568 740.968 Q72.7513 743.653 72.7513 748.144 Q72.7513 750.274 71.9411 752.195 Q71.1541 754.093 69.0476 756.686 Q68.4689 757.357 65.367 760.575 Q62.2652 763.769 56.6171 769.533 Z" fill="#000000" fill-rule="nonzero" fill-opacity="1" /><path clip-path="url(#clip850)" d="M82.7512 767.588 L87.6354 767.588 L87.6354 773.468 L82.7512 773.468 L82.7512 767.588 Z" fill="#000000" fill-rule="nonzero" fill-opacity="1" /><path clip-path="url(#clip850)" d="M107.821 741.987 Q104.209 741.987 102.381 745.551 Q100.575 749.093 100.575 756.223 Q100.575 763.329 102.381 766.894 Q104.209 770.436 107.821 770.436 Q111.455 770.436 113.26 766.894 Q115.089 763.329 115.089 756.223 Q115.089 749.093 113.26 745.551 Q111.455 741.987 107.821 741.987 M107.821 738.283 Q113.631 738.283 116.686 742.889 Q119.765 747.473 119.765 756.223 Q119.765 764.95 116.686 769.556 Q113.631 774.139 107.821 774.139 Q102.01 774.139 98.9317 769.556 Q95.8761 764.95 95.8761 756.223 Q95.8761 747.473 98.9317 742.889 Q102.01 738.283 107.821 738.283 Z" fill="#000000" fill-rule="nonzero" fill-opacity="1" /><path clip-path="url(#clip850)" d="M57.6125 479.647 L73.9318 479.647 L73.9318 483.582 L51.9875 483.582 L51.9875 479.647 Q54.6495 476.892 59.2328 472.263 Q63.8393 467.61 65.0198 466.267 Q67.2652 463.744 68.1448 462.008 Q69.0476 460.249 69.0476 458.559 Q69.0476 455.805 67.1032 454.068 Q65.1819 452.332 62.08 452.332 Q59.881 452.332 57.4273 453.096 Q54.9967 453.86 52.219 455.411 L52.219 450.689 Q55.043 449.555 57.4967 448.976 Q59.9504 448.397 61.9874 448.397 Q67.3578 448.397 70.5522 451.082 Q73.7466 453.768 73.7466 458.258 Q73.7466 460.388 72.9365 462.309 Q72.1494 464.207 70.0429 466.8 Q69.4642 467.471 66.3624 470.689 Q63.2606 473.883 57.6125 479.647 Z" fill="#000000" fill-rule="nonzero" fill-opacity="1" /><path clip-path="url(#clip850)" d="M83.7466 477.703 L88.6308 477.703 L88.6308 483.582 L83.7466 483.582 L83.7466 477.703 Z" fill="#000000" fill-rule="nonzero" fill-opacity="1" /><path clip-path="url(#clip850)" d="M98.8622 449.022 L117.219 449.022 L117.219 452.957 L103.145 452.957 L103.145 461.43 Q104.163 461.082 105.182 460.92 Q106.2 460.735 107.219 460.735 Q113.006 460.735 116.385 463.906 Q119.765 467.078 119.765 472.494 Q119.765 478.073 116.293 481.175 Q112.82 484.254 106.501 484.254 Q104.325 484.254 102.057 483.883 Q99.8113 483.513 97.4039 482.772 L97.4039 478.073 Q99.4872 479.207 101.709 479.763 Q103.932 480.318 106.408 480.318 Q110.413 480.318 112.751 478.212 Q115.089 476.105 115.089 472.494 Q115.089 468.883 112.751 466.777 Q110.413 464.67 106.408 464.67 Q104.534 464.67 102.659 465.087 Q100.807 465.504 98.8622 466.383 L98.8622 449.022 Z" fill="#000000" fill-rule="nonzero" fill-opacity="1" /><path clip-path="url(#clip850)" d="M66.7559 175.062 Q70.1124 175.78 71.9874 178.048 Q73.8855 180.317 73.8855 183.65 Q73.8855 188.766 70.367 191.567 Q66.8485 194.368 60.3671 194.368 Q58.1912 194.368 55.8764 193.928 Q53.5847 193.511 51.131 192.655 L51.131 188.141 Q53.0754 189.275 55.3903 189.854 Q57.7051 190.433 60.2282 190.433 Q64.6263 190.433 66.918 188.696 Q69.2328 186.96 69.2328 183.65 Q69.2328 180.595 67.08 178.882 Q64.9504 177.146 61.131 177.146 L57.1032 177.146 L57.1032 173.303 L61.3161 173.303 Q64.7652 173.303 66.5939 171.937 Q68.4226 170.548 68.4226 167.956 Q68.4226 165.294 66.5245 163.882 Q64.6495 162.447 61.131 162.447 Q59.2097 162.447 57.0106 162.863 Q54.8115 163.28 52.1727 164.16 L52.1727 159.993 Q54.8347 159.252 57.1495 158.882 Q59.4875 158.511 61.5476 158.511 Q66.8717 158.511 69.9735 160.942 Q73.0753 163.349 73.0753 167.47 Q73.0753 170.34 71.4318 172.331 Q69.7883 174.298 66.7559 175.062 Z" fill="#000000" fill-rule="nonzero" fill-opacity="1" /><path clip-path="url(#clip850)" d="M82.7512 187.817 L87.6354 187.817 L87.6354 193.696 L82.7512 193.696 L82.7512 187.817 Z" fill="#000000" fill-rule="nonzero" fill-opacity="1" /><path clip-path="url(#clip850)" d="M107.821 162.215 Q104.209 162.215 102.381 165.78 Q100.575 169.322 100.575 176.451 Q100.575 183.558 102.381 187.122 Q104.209 190.664 107.821 190.664 Q111.455 190.664 113.26 187.122 Q115.089 183.558 115.089 176.451 Q115.089 169.322 113.26 165.78 Q111.455 162.215 107.821 162.215 M107.821 158.511 Q113.631 158.511 116.686 163.118 Q119.765 167.701 119.765 176.451 Q119.765 185.178 116.686 189.784 Q113.631 194.368 107.821 194.368 Q102.01 194.368 98.9317 189.784 Q95.8761 185.178 95.8761 176.451 Q95.8761 167.701 98.9317 163.118 Q102.01 158.511 107.821 158.511 Z" fill="#000000" fill-rule="nonzero" fill-opacity="1" /><polyline clip-path="url(#clip852)" style="stroke:#009af9; stroke-linecap:round; stroke-linejoin:round; stroke-width:4; stroke-opacity:1; fill:none" points="155.765,91.6832 160.159,115.606 164.553,157.039 168.947,214.381 173.341,284.826 177.735,364.654 182.129,449.737 186.523,535.972 190.917,619.726 195.311,698.168 199.705,769.293 204.099,831.902 208.493,885.427 212.887,929.794 217.281,965.251 221.675,992.212 226.069,1011.15 230.463,1022.58 234.857,1026.97 239.251,1024.73 243.645,1016.21 248.039,1001.71 252.433,981.474 256.826,955.697 261.22,924.535 265.614,888.152 270.008,846.729 274.402,800.474 278.796,749.656 283.19,694.562 287.584,635.647 291.978,573.553 296.372,509.107 300.766,443.324 305.16,377.504 309.554,313.338 313.948,252.776 318.342,198.016 322.736,151.502 327.13,115.906 331.524,93.8573 335.918,87.62 340.312,98.5253 344.706,126.888 349.1,172.004 353.494,232.155 357.888,304.603 362.282,385.637 366.676,470.963 371.07,556.526 375.464,638.954 379.858,715.582 384.252,784.478 388.646,844.694 393.04,895.858 397.434,937.891 401.828,971.009 406.222,995.717 410.616,1012.72 415.01,1022.39 419.404,1025.14 423.798,1021.36 428.192,1011.39 432.586,995.514 436.98,973.97 441.374,946.974 445.768,914.654 450.162,877.145 454.556,834.631 458.95,787.354 463.344,735.605 467.738,679.762 472.132,620.343 476.526,557.923 480.92,493.346 485.314,427.742 489.708,362.532 494.102,299.422 498.496,240.382 502.889,187.427 507.283,143.583 511.677,111.678 516.071,93.9613 520.465,92.1054 524.859,107.204 529.253,139.772 533.647,189.268 538.041,252.987 542.435,327.587 546.829,409.495 551.223,494.908 555.617,579.788 560.011,660.42 564.405,734.869 568.799,801.497 573.193,859.206 577.587,907.465 581.981,946.313 586.375,976.35 590.769,998.645 595.163,1013.44 599.557,1021.03 603.951,1021.85 608.345,1016.27 612.739,1004.61 617.133,987.159 621.527,964.159 625.921,935.721 630.315,901.984 634.709,863.127 639.103,819.373 643.497,770.982 647.891,718.26 652.285,661.646 656.679,601.628 661.073,538.868 665.467,474.31 669.861,409.17 674.255,344.945 678.649,283.407 683.043,226.35 687.437,176.335 691.831,136.417 696.225,109.114 700.619,96.4015 705.013,99.7138 709.407,119.941 713.801,157.418 718.195,211.002 722.589,277.67 726.983,354.043 731.377,436.537 735.771,521.363 740.165,604.526 744.558,682.794 748.952,754.485 753.346,818.09 757.74,872.65 762.134,917.752 766.528,953.532 770.922,980.673 775.316,1000.35 779.71,1012.82 784.104,1018.28 788.498,1017.11 792.892,1009.68 797.286,996.274 801.68,977.167 806.074,952.611 810.468,922.712 814.862,887.593 819.256,847.435 823.65,802.474 828.044,753.002 832.438,699.372 836.832,642.033 841.226,581.583 845.62,518.743 850.014,454.512 854.408,390.179 858.802,327.318 863.196,267.793 867.59,213.674 871.984,167.104 876.378,131.217 880.772,108.645 885.166,101.275 889.56,110.247 893.954,135.955 898.348,178.047 902.742,235.308 907.136,304.74 911.53,382.583 915.924,465.138 920.318,548.778 924.712,629.945 929.106,705.411 933.5,773.733 937.894,833.827 942.288,884.98 946.682,926.932 951.076,959.872 955.47,984.443 959.864,1001.69 964.258,1011.91 968.652,1015.26 973.046,1012.14 977.44,1002.87 981.834,987.735 986.228,966.979 990.621,940.836 995.015,909.469 999.409,872.979 1003.8,831.541 1008.2,785.403 1012.59,734.884 1016.99,680.38 1021.38,622.375 1025.77,561.54 1030.17,498.685 1034.56,434.882 1038.96,371.494 1043.35,310.165 1047.74,252.825 1052.14,201.692 1056.53,158.963 1060.93,127.389 1065.32,109.622 1069.71,107.446 1074.11,121.77 1078.5,152.632 1082.9,199.2 1087.29,259.766 1091.68,331.446 1096.08,410.313 1100.47,492.59 1104.87,574.798 1109.26,653.749 1113.65,726.571 1118.05,791.681 1122.44,848.46 1126.83,896.468 1131.23,935.602 1135.62,966.096 1140.02,988.523 1144.41,1003.65 1148.8,1011.7 1153.2,1013.03 1157.59,1008.01 1161.99,996.933 1166.38,980.09 1170.77,957.707 1175.17,930.002 1179.56,897.137 1183.96,859.229 1188.35,816.465 1192.74,769.112 1197.14,717.514 1201.53,662.092 1205.93,603.385 1210.32,542.113 1214.71,479.16 1219.11,415.688 1223.5,353.138 1227.9,293.234 1232.29,237.98 1236.68,189.652 1241.08,150.463 1245.47,123.211 1249.87,110.294 1254.26,113.232 1258.65,132.667 1263.05,168.363 1267.44,219.205 1271.84,283.185 1276.23,357.026 1280.62,436.812 1285.02,518.888 1289.41,599.903 1293.81,676.809 1298.2,746.958 1302.59,809.219 1306.99,863.045 1311.38,908.108 1315.78,944.403 1320.17,972.251 1324.56,992.294 1328.96,1005.16 1333.35,1011.07 1337.75,1010.39 1342.14,1003.46 1346.53,990.597 1350.93,972.046 1355.32,948.035 1359.72,918.781 1364.11,884.416 1368.5,845.076 1372.9,800.975 1377.29,752.405 1381.69,699.735 1386.08,643.417 1390.47,584.056 1394.87,522.41 1399.26,459.449 1403.66,396.42 1408.05,334.85 1412.44,276.54 1416.84,223.571 1421.23,178.232 1425.63,142.815 1430.02,120.111 1434.41,112.225 1438.81,120.387 1443.2,144.951 1447.6,185.401 1451.99,240.344 1456.38,307.447 1460.78,383.113 1465.17,463.51 1469.57,545.106 1473.96,624.679 1478.35,699.315 1482.75,766.696 1487.14,826.076 1491.54,876.943 1495.93,919.07 1500.32,952.546 1504.72,977.776 1509.11,995.471 1513.51,1006.07 1517.9,1009.85 1522.29,1007.17 1526.69,998.36 1531.08,983.703 1535.48,963.45 1539.87,937.816 1544.26,907.009 1548.66,871.144 1553.05,830.381 1557.45,784.959 1561.84,735.197 1566.23,681.495 1570.63,624.338 1575.02,564.393 1579.42,502.472 1583.81,439.635 1588.2,377.214 1592.6,316.817 1596.99,260.323 1601.38,209.888 1605.78,167.782 1610.17,136.436 1614.57,118.492 1618.96,115.76 1623.35,129.18 1627.75,158.82 1632.14,203.877 1636.54,262.675 1640.93,332.524 1645.32,409.644 1649.72,490.311 1654.11,571.118 1658.51,648.982 1662.9,721.137 1667.29,785.711 1671.69,842.163 1676.08,890.058 1680.48,929.268 1684.87,959.969 1689.26,982.643 1693.66,998.008 1698.05,1006.37 1702.45,1008.04 1706.84,1003.38 1711.23,992.693 1715.63,976.256 1720.02,954.306 1724.42,927.056 1728.81,894.695 1733.2,857.337 1737.6,815.165 1741.99,768.446 1746.39,717.527 1750.78,662.836 1755.17,604.906 1759.57,544.458 1763.96,482.378 1768.36,419.811 1772.75,358.174 1777.14,299.155 1781.54,244.71 1785.93,197.066 1790.33,158.461 1794.72,131.452 1799.11,118.437 1803.51,120.939 1807.9,139.61 1812.3,174.227 1816.69,223.696 1821.08,286.049 1825.48,358.247 1829.87,436.451 1834.27,517.048 1838.66,596.766 1843.05,672.673 1847.45,742.192 1851.84,803.929 1856.24,857.425 1860.63,902.354 1865.02,938.683 1869.42,966.667 1873.81,986.852 1878.21,999.9 1882.6,1006.05 1886.99,1005.64 1891.39,999.021 1895.78,986.477 1900.18,968.273 1904.57,944.636 1908.96,915.779 1913.36,881.868 1917.75,843.03 1922.15,799.472 1926.54,751.486 1930.93,699.448 1935.33,643.822 1939.72,585.192 1944.12,524.334 1948.51,462.218 1952.9,400.078 1957.3,339.411 1961.69,281.983 1966.09,229.822 1970.48,185.216 1974.87,150.39 1979.27,127.944 1983.66,119.99 1988.06,127.767 1992.45,151.635 1996.84,191.083 2001.24,244.72 2005.63,310.276 2010.03,384.425 2014.42,463.347 2018.81,543.543 2023.21,621.887 2027.6,695.623 2032,762.421 2036.39,821.277 2040.78,871.81 2045.18,913.8 2049.57,947.301 2053.97,972.635 2058.36,990.395 2062.75,1001.14 2067.15,1005.12 2071.54,1002.67 2075.94,994.108 2080.33,979.727 2084.72,959.772 2089.12,934.462 2093.51,904.01 2097.9,868.563 2102.3,828.266 2106.69,783.348 2111.09,734.131 2115.48,681.024 2119.87,624.523 2124.27,565.273 2128.66,504.111 2133.06,442.097 2137.45,380.55 2141.84,321.046 2146.24,265.426 2150.63,215.787 2155.03,174.454 2159.42,143.686 2163.81,125.989 2168.21,123.188 2172.6,136.233 2177,165.197 2181.39,209.274 2185.78,266.781 2190.18,335.15 2194.57,410.852 2198.97,490.126 2203.36,569.599 2207.75,646.307 2212.15,717.696 2216.54,781.722 2220.94,837.675 2225.33,885.259 2229.72,924.357 2234.12,955.098 2238.51,977.855 2242.91,993.245 2247.3,1001.73 2251.69,1003.57 2256.09,999.112 2260.48,988.651 2264.88,972.459 2269.27,950.777 2273.66,923.815 2278.06,891.785 2282.45,854.826 2286.85,813.099 2291.24,766.859 2295.63,716.457 2300.03,662.336 2304.42,605.036 2308.82,545.254 2313.21,483.905 2317.6,422.141 2322,361.363 2326.39,303.226 2330.79,249.636 2335.18,202.753 2339.57,164.958 2343.97,138.566 2348.36,125.679 2352.76,127.886 "/>
<polyline clip-path="url(#clip852)" style="stroke:#e26f46; stroke-linecap:round; stroke-linejoin:round; stroke-width:4; stroke-opacity:1; fill:none" points="155.765,1024.59 160.159,959.748 164.553,894.829 168.947,832.95 173.341,777.447 177.735,731.499 182.129,697.671 186.523,677.609 190.917,671.929 195.311,680.185 199.705,700.959 204.099,732.319 208.493,772.054 212.887,817.867 217.281,867.601 221.675,919.34 226.069,971.48 230.463,1022.74 234.857,1072.11 239.251,1118.86 243.645,1162.41 248.039,1202.41 252.433,1238.66 256.826,1271.02 261.22,1299.4 265.614,1323.76 270.008,1344.07 274.402,1360.34 278.796,1372.51 283.19,1380.51 287.584,1384.24 291.978,1383.52 296.372,1378.12 300.766,1367.79 305.16,1352.2 309.554,1330.91 313.948,1303.54 318.342,1269.8 322.736,1229.52 327.13,1182.51 331.524,1128.56 335.918,1069.13 340.312,1006.22 344.706,942.022 349.1,878.964 353.494,819.672 357.888,766.988 362.282,723.968 366.676,693.341 371.07,676.667 375.464,674.376 379.858,685.788 384.252,709.224 388.646,742.701 393.04,783.905 397.434,830.635 401.828,880.851 406.222,932.676 410.616,984.469 415.01,1035.15 419.404,1083.77 423.798,1129.6 428.192,1172.1 432.586,1210.96 436.98,1246.09 441.374,1277.36 445.768,1304.68 450.162,1327.99 454.556,1347.27 458.95,1362.47 463.344,1373.56 467.738,1380.48 472.132,1383.1 476.526,1381.22 480.92,1374.61 485.314,1362.98 489.708,1346.02 494.102,1323.36 498.496,1294.59 502.889,1259.37 507.283,1217.41 511.677,1168.84 516.071,1114.26 520.465,1054.72 524.859,991.755 529.253,927.382 533.647,864.312 538.041,806.112 542.435,755.976 546.829,716.488 551.223,689.63 555.617,676.775 560.011,678.211 564.405,692.456 568.799,718.117 573.193,753.524 577.587,796.698 581.981,845.358 586.375,896.916 590.769,948.658 595.163,999.831 599.557,1049.62 603.951,1097.13 608.345,1141.7 612.739,1182.92 617.133,1220.58 621.527,1254.46 625.921,1284.45 630.315,1310.48 634.709,1332.49 639.103,1350.44 643.497,1364.31 647.891,1374.09 652.285,1379.7 656.679,1380.97 661.073,1377.68 665.467,1369.6 669.861,1356.43 674.255,1337.85 678.649,1313.47 683.043,1282.9 687.437,1245.77 691.831,1201.95 696.225,1151.77 700.619,1096 705.013,1035.82 709.407,972.882 713.801,909.263 718.195,847.968 722.589,792.52 726.983,745.894 731.377,710.45 735.771,687.939 740.165,679.5 744.558,684.862 748.952,702.433 753.346,730.796 757.74,768.253 762.134,812.829 766.528,862.274 770.922,914.057 775.316,965.474 779.71,1015.81 784.104,1064.53 788.498,1110.8 792.892,1154.03 797.286,1193.85 801.68,1230.06 806.074,1262.49 810.468,1291.06 814.862,1315.68 819.256,1336.3 823.65,1352.88 828.044,1365.38 832.438,1373.75 836.832,1377.94 841.226,1377.75 845.62,1372.95 850.014,1363.27 854.408,1348.42 858.802,1328.08 863.196,1301.89 867.59,1269.47 871.984,1230.39 876.378,1184.73 880.772,1133.01 885.166,1076.21 889.56,1015.7 893.954,953.302 898.348,891.24 902.742,832.25 907.136,779.792 911.53,736.947 915.924,705.959 920.318,688.234 924.712,684.339 929.106,693.918 933.5,715.328 937.894,746.651 942.288,785.941 946.682,831.196 951.076,880.362 955.47,931.33 959.864,981.993 964.258,1031.48 968.652,1079.13 973.046,1124.19 977.44,1166.09 981.834,1204.5 986.228,1239.24 990.621,1270.25 995.015,1297.39 999.409,1320.61 1003.8,1339.85 1008.2,1355.08 1012.59,1366.21 1016.99,1373.2 1021.38,1375.96 1025.77,1374.31 1030.17,1367.97 1034.56,1356.66 1038.96,1340.09 1043.35,1317.95 1047.74,1289.93 1052.14,1255.7 1056.53,1214.8 1060.93,1167.33 1065.32,1114.14 1069.71,1056.43 1074.11,995.786 1078.5,934.151 1082.9,873.84 1087.29,817.535 1091.68,768.384 1096.08,729.417 1100.47,702.751 1104.87,689.539 1109.26,689.972 1113.65,703.282 1118.05,727.875 1122.44,761.651 1126.83,802.499 1131.23,848.401 1135.62,897.427 1140.02,947.738 1144.41,997.719 1148.8,1046.5 1153.2,1093.22 1157.59,1137.17 1161.99,1177.85 1166.38,1214.95 1170.77,1248.36 1175.17,1278.07 1179.56,1303.89 1183.96,1325.8 1188.35,1343.73 1192.74,1357.65 1197.14,1367.47 1201.53,1373.12 1205.93,1374.5 1210.32,1371.41 1214.71,1363.54 1219.11,1350.63 1223.5,1332.37 1227.9,1308.46 1232.29,1278.62 1236.68,1242.52 1241.08,1199.76 1245.47,1150.67 1249.87,1096.21 1254.26,1037.72 1258.65,976.889 1263.05,915.773 1267.44,856.808 1271.84,802.798 1276.23,756.89 1280.62,721.831 1285.02,699.433 1289.41,690.55 1293.81,695.077 1298.2,711.969 1302.59,739.462 1306.99,775.423 1311.38,817.775 1315.78,864.542 1320.17,913.848 1324.56,963.917 1328.96,1013.37 1333.35,1061.37 1337.75,1107.1 1342.14,1149.91 1346.53,1189.34 1350.93,1225.16 1355.32,1257.3 1359.72,1285.7 1364.11,1310.22 1368.5,1330.81 1372.9,1347.43 1377.29,1360.01 1381.69,1368.49 1386.08,1372.77 1390.47,1372.75 1394.87,1368.16 1399.26,1358.73 1403.66,1344.16 1408.05,1324.17 1412.44,1298.47 1416.84,1266.76 1421.23,1228.71 1425.63,1184.04 1430.02,1133.35 1434.41,1077.72 1438.81,1018.6 1443.2,957.798 1447.6,897.47 1451.99,840.148 1456.38,788.729 1460.78,746.302 1465.17,715.316 1469.57,697.268 1473.96,692.707 1478.35,701.233 1482.75,721.546 1487.14,751.745 1491.54,789.705 1495.93,833.394 1500.32,880.882 1504.72,930.344 1509.11,980.072 1513.51,1028.94 1517.9,1076.1 1522.29,1120.78 1526.69,1162.4 1531.08,1200.57 1535.48,1235.09 1539.87,1265.96 1544.26,1293.04 1548.66,1316.23 1553.05,1335.5 1557.45,1350.79 1561.84,1362.02 1566.23,1369.13 1570.63,1372.02 1575.02,1370.55 1579.42,1364.43 1583.81,1353.39 1588.2,1337.13 1592.6,1315.36 1596.99,1287.82 1601.38,1254.21 1605.78,1214.17 1610.17,1167.63 1614.57,1115.44 1618.96,1058.78 1623.35,999.235 1627.75,938.703 1632.14,879.449 1636.54,824.086 1640.93,775.575 1645.32,736.857 1649.72,710.073 1654.11,696.415 1658.51,696.129 1662.9,708.513 1667.29,732.057 1671.69,764.763 1676.08,804.531 1680.48,849.372 1684.87,897.407 1689.26,946.873 1693.66,996.177 1698.05,1044.38 1702.45,1090.63 1706.84,1134.22 1711.23,1174.62 1715.63,1211.5 1720.02,1244.72 1724.42,1274.3 1728.81,1300.05 1733.2,1321.91 1737.6,1339.84 1741.99,1353.78 1746.39,1363.65 1750.78,1369.37 1755.17,1370.85 1759.57,1367.89 1763.96,1360.2 1768.36,1347.5 1772.75,1329.5 1777.14,1305.93 1781.54,1276.5 1785.93,1240.96 1790.33,1198.92 1794.72,1150.6 1799.11,1097.02 1803.51,1039.5 1807.9,979.743 1812.3,919.747 1816.69,861.864 1821.08,808.779 1825.48,763.463 1829.87,728.641 1834.27,706.15 1838.66,696.883 1843.05,700.785 1847.45,716.856 1851.84,743.425 1856.24,778.433 1860.63,819.811 1865.02,865.615 1869.42,914.027 1873.81,963.352 1878.21,1012.17 1882.6,1059.63 1886.99,1104.91 1891.39,1147.36 1895.78,1186.52 1900.18,1222.11 1904.57,1254.03 1908.96,1282.29 1913.36,1306.71 1917.75,1327.23 1922.15,1343.82 1926.54,1356.39 1930.93,1364.89 1935.33,1369.2 1939.72,1369.23 1944.12,1364.75 1948.51,1355.46 1952.9,1341.06 1957.3,1321.29 1961.69,1295.86 1966.09,1264.54 1970.48,1227.05 1974.87,1183.02 1979.27,1133.01 1983.66,1078.17 1988.06,1019.99 1992.45,960.26 1996.84,901.079 2001.24,844.873 2005.63,794.372 2010.03,752.498 2014.42,721.717 2018.81,703.572 2023.21,698.658 2027.6,706.621 2032,726.183 2036.39,755.556 2040.78,792.653 2045.18,835.439 2049.57,882.02 2053.97,930.645 2058.36,979.706 2062.75,1027.97 2067.15,1074.62 2071.54,1118.88 2075.94,1160.17 2080.33,1198.07 2084.72,1232.36 2089.12,1262.98 2093.51,1289.91 2097.9,1312.99 2102.3,1332.18 2106.69,1347.41 2111.09,1358.62 2115.48,1365.72 2119.87,1368.61 2124.27,1367.17 2128.66,1361.14 2133.06,1350.2 2137.45,1334.08 2141.84,1312.49 2146.24,1285.19 2150.63,1251.94 2155.03,1212.49 2159.42,1166.54 2163.81,1114.93 2168.21,1059 2172.6,1000.37 2177,940.927 2181.39,882.862 2185.78,828.642 2190.18,781.017 2194.57,742.789 2198.97,716.15 2203.36,702.356 2207.75,701.711 2212.15,713.57 2216.54,736.399 2220.94,768.347 2225.33,807.314 2229.72,851.301 2234.12,898.474 2238.51,947.161 2242.91,995.858 2247.3,1043.49 2251.69,1089.27 2256.09,1132.48 2260.48,1172.58 2264.88,1209.22 2269.27,1242.2 2273.66,1271.53 2278.06,1297.13 2282.45,1318.87 2286.85,1336.71 2291.24,1350.58 2295.63,1360.42 2300.03,1366.12 2304.42,1367.58 2308.82,1364.65 2313.21,1357.04 2317.6,1344.43 2322,1326.55 2326.39,1303.12 2330.79,1273.93 2335.18,1238.75 2339.57,1197.44 2343.97,1150.23 2348.36,1097.7 2352.76,1040.95 "/>
<polyline clip-path="url(#clip852)" style="stroke:#3da44d; stroke-linecap:round; stroke-linejoin:round; stroke-width:4; stroke-opacity:1; fill:none" points="155.765,91.6832 160.159,115.868 164.553,157.59 168.947,215.224 173.341,285.938 177.735,365.983 182.129,451.211 186.523,537.506 190.917,621.233 195.311,699.565 199.705,770.508 204.099,832.877 208.493,886.112 212.887,930.152 217.281,965.253 221.675,991.832 226.069,1010.36 230.463,1021.37 234.857,1025.31 239.251,1022.61 243.645,1013.6 248.039,998.58 252.433,977.803 256.826,951.462 261.22,919.712 265.614,882.721 270.008,840.676 274.402,793.791 278.796,742.343 283.19,686.635 287.584,627.143 291.978,564.536 296.372,499.671 300.766,433.598 305.16,367.673 309.554,303.639 313.948,243.495 318.342,189.489 322.736,144.118 327.13,110.095 331.524,90.0605 335.918,86.1857 340.312,99.6648 344.706,130.667 349.1,178.336 353.494,240.79 357.888,315.123 362.282,397.466 366.676,483.468 371.07,569.118 375.464,651.121 379.858,726.904 384.252,794.667 388.646,853.586 393.04,903.347 397.434,943.926 401.828,975.587 406.222,998.884 410.616,1014.51 415.01,1022.82 419.404,1024.23 423.798,1019.13 428.192,1007.84 432.586,990.657 436.98,967.8 441.374,939.485 445.768,905.828 450.162,866.974 454.556,823.121 458.95,774.524 463.344,721.493 467.738,664.44 472.132,603.905 476.526,540.518 480.92,475.196 485.314,409.151 489.708,343.889 494.102,281.21 498.496,223.136 502.889,171.867 507.283,130.558 511.677,101.957 516.071,88.2084 520.465,90.8536 524.859,110.829 529.253,148.459 533.647,202.658 538.041,270.351 542.435,348.051 546.829,432.053 551.223,518.435 555.617,603.057 560.011,682.668 564.405,755.487 568.799,819.991 573.193,875.23 577.587,920.829 581.981,956.987 586.375,984.474 590.769,1004.4 595.163,1016.85 599.557,1022.17 603.951,1020.79 608.345,1013.05 612.739,999.284 617.133,979.759 621.527,954.69 625.921,924.18 630.315,888.377 634.709,847.471 639.103,801.701 643.497,751.35 647.891,696.753 652.285,638.399 656.679,576.823 661.073,512.785 665.467,447.333 669.861,381.804 674.255,317.82 678.649,257.29 683.043,202.071 687.437,155.098 691.831,119.389 696.225,97.3555 700.619,90.8096 705.013,100.959 709.407,128.408 713.801,173.094 718.195,233.107 722.589,305.05 726.983,385.327 731.377,470.188 735.771,555.728 740.165,637.956 744.558,714.47 748.952,783.625 753.346,844.039 757.74,894.898 762.134,935.954 766.528,967.522 770.922,990.484 775.316,1006.28 779.71,1015.38 784.104,1017.6 788.498,1013.32 792.892,1002.87 797.286,986.532 801.68,964.547 806.074,937.17 810.468,904.506 814.862,866.664 819.256,823.829 823.65,776.266 828.044,724.314 832.438,668.393 836.832,609.009 841.226,546.868 845.62,482.839 850.014,418.066 854.408,353.987 858.802,292.339 863.196,235.153 867.59,184.753 871.984,143.425 876.378,114.064 880.772,99.2117 885.166,100.539 889.56,118.847 893.954,154.064 898.348,205.25 902.742,270.336 907.136,345.655 911.53,427.319 915.924,511.581 920.318,594.833 924.712,673.614 929.106,745.565 933.5,809.597 937.894,864.862 942.288,910.962 946.682,947.944 951.076,976.303 955.47,996.914 959.864,1010.09 964.258,1016.16 968.652,1015.53 973.046,1008.56 977.44,995.554 981.834,976.781 986.228,952.49 990.621,922.823 995.015,887.905 999.409,847.918 1003.8,803.094 1008.2,753.719 1012.59,700.131 1016.99,642.815 1021.38,582.321 1025.77,519.375 1030.17,454.991 1034.56,390.464 1038.96,327.375 1043.35,267.591 1047.74,213.079 1052.14,166.259 1056.53,130.217 1060.93,107.441 1065.32,99.7787 1069.71,108.432 1074.11,133.961 1078.5,176.273 1082.9,233.865 1087.29,303.472 1091.68,381.56 1096.08,464.493 1100.47,548.529 1104.87,629.823 1109.26,705.673 1113.65,774.607 1118.05,835.138 1122.44,886.333 1126.83,927.81 1131.23,959.741 1135.62,982.848 1140.02,998.406 1144.41,1007.81 1148.8,1010.57 1153.2,1006.86 1157.59,997.01 1161.99,981.298 1166.38,959.963 1170.77,933.243 1175.17,901.34 1179.56,864.336 1183.96,822.387 1188.35,775.748 1192.74,724.763 1197.14,669.87 1201.53,611.599 1205.93,550.606 1210.32,487.787 1214.71,424.276 1219.11,361.48 1223.5,301.076 1227.9,245.017 1232.29,195.529 1236.68,155.041 1241.08,125.922 1245.47,110.749 1249.87,111.301 1254.26,128.427 1258.65,162.041 1263.05,211.124 1267.44,273.722 1271.84,346.71 1276.23,426.133 1280.62,508.256 1285.02,589.655 1289.41,667.223 1293.81,738.276 1298.2,801.579 1302.59,856.463 1306.99,902.545 1311.38,939.8 1315.78,968.56 1320.17,989.498 1324.56,1003.05 1328.96,1009.54 1333.35,1009.37 1337.75,1002.88 1342.14,990.383 1346.53,972.149 1350.93,948.413 1355.32,919.365 1359.72,885.124 1364.11,845.863 1368.5,801.815 1372.9,753.271 1377.29,700.578 1381.69,644.209 1386.08,584.743 1390.47,522.893 1394.87,459.649 1399.26,396.279 1403.66,334.329 1408.05,275.624 1412.44,222.187 1416.84,176.16 1421.23,140.539 1425.63,117.838 1430.02,109.9 1434.41,117.898 1438.81,142.329 1443.2,183.024 1447.6,238.719 1451.99,306.323 1456.38,382.36 1460.78,463.298 1465.17,545.553 1469.57,625.485 1473.96,700.06 1478.35,767.925 1482.75,827.736 1487.14,878.627 1491.54,920.228 1495.93,952.668 1500.32,976.575 1504.72,993.071 1509.11,1003.09 1513.51,1006.33 1517.9,1003.11 1522.29,993.761 1526.69,978.564 1531.08,957.762 1535.48,931.595 1539.87,900.255 1544.26,863.837 1548.66,822.512 1553.05,776.538 1557.45,726.258 1561.84,672.101 1566.23,614.581 1570.63,554.366 1575.02,492.331 1579.42,429.58 1583.81,367.49 1588.2,307.71 1592.6,252.158 1596.99,203.026 1601.38,162.632 1605.78,133.381 1610.17,117.817 1614.57,117.654 1618.96,133.726 1623.35,165.994 1627.75,213.537 1632.14,274.542 1636.54,345.907 1640.93,423.823 1645.32,504.677 1649.72,585.096 1654.11,661.95 1658.51,732.514 1662.9,795.588 1667.29,850.425 1671.69,896.587 1676.08,934.005 1680.48,962.982 1684.87,984.185 1689.26,998.081 1693.66,1004.95 1698.05,1005.17 1702.45,999.088 1706.84,987.02 1711.23,969.231 1715.63,945.96 1720.02,917.407 1724.42,883.692 1728.81,844.987 1733.2,801.525 1737.6,753.6 1741.99,701.568 1746.39,645.886 1750.78,587.152 1755.17,526.071 1759.57,463.613 1763.96,401.024 1768.36,339.82 1772.75,281.793 1777.14,228.978 1781.54,183.388 1785.93,147.909 1790.33,125.095 1794.72,116.801 1799.11,124.181 1803.51,147.694 1807.9,187.099 1812.3,241.288 1816.69,307.411 1821.08,381.98 1825.48,461.512 1829.87,542.53 1834.27,621.566 1838.66,695.421 1843.05,762.624 1847.45,822.011 1851.84,872.782 1856.24,914.587 1860.63,947.526 1865.02,972.149 1869.42,989.45 1873.81,999.905 1878.21,1003.55 1882.6,1000.74 1886.99,991.807 1891.39,977.028 1895.78,956.654 1900.18,930.925 1904.57,900.023 1908.96,864.056 1913.36,823.206 1917.75,777.733 1922.15,727.977 1926.54,674.356 1930.93,617.372 1935.33,557.706 1939.72,496.2 1944.12,433.94 1948.51,372.283 1952.9,312.856 1957.3,257.556 1961.69,208.551 1966.09,168.034 1970.48,138.551 1974.87,122.609 1979.27,121.862 1983.66,137.112 1988.06,168.306 1992.45,214.539 1996.84,274.05 2001.24,344.084 2005.63,420.876 2010.03,500.766 2014.42,580.426 2018.81,656.864 2023.21,727.422 2027.6,790.415 2032,845.31 2036.39,891.699 2040.78,929.473 2045.18,958.825 2049.57,980.247 2053.97,994.445 2058.36,1001.69 2062.75,1002.31 2067.15,996.632 2071.54,984.962 2075.94,967.568 2080.33,944.688 2084.72,916.535 2089.12,883.303 2093.51,845.111 2097.9,802.159 2102.3,754.733 2106.69,703.207 2111.09,648.043 2115.48,589.812 2119.87,529.278 2124.27,467.399 2128.66,405.389 2133.06,344.724 2137.45,287.144 2141.84,234.652 2146.24,189.515 2150.63,154.004 2155.03,130.617 2159.42,121.546 2163.81,128.103 2168.21,150.719 2172.6,188.941 2177,241.437 2181.39,305.993 2185.78,379.422 2190.18,457.892 2194.57,537.852 2198.97,616.154 2203.36,690.054 2207.75,757.218 2212.15,816.42 2216.54,867.317 2220.94,909.687 2225.33,943.563 2229.72,969.233 2234.12,987.238 2238.51,998.191 2242.91,1002.34 2247.3,1000.02 2251.69,991.55 2256.09,977.218 2260.48,957.274 2264.88,931.943 2269.27,901.436 2273.66,865.926 2278.06,825.55 2282.45,780.536 2286.85,731.208 2291.24,677.983 2295.63,621.376 2300.03,562.027 2304.42,500.796 2308.82,438.764 2313.21,377.269 2317.6,317.906 2322,262.525 2326.39,213.233 2330.79,172.385 2335.18,142.297 2339.57,125.315 2343.97,123.229 2348.36,137.053 2352.76,167.026 "/>
<polyline clip-path="url(#clip852)" style="stroke:#c271d2; stroke-linecap:round; stroke-linejoin:round; stroke-width:4; stroke-opacity:1; fill:none" points="155.765,1024.59 160.159,959.761 164.553,894.873 168.947,833.057 173.341,777.662 177.735,731.872 182.129,698.251 186.523,678.434 190.917,673.019 195.311,681.544 199.705,702.567 204.099,734.148 208.493,774.063 212.887,820.011 217.281,869.833 221.675,921.614 226.069,973.756 230.463,1024.98 234.857,1074.29 239.251,1120.94 243.645,1164.38 248.039,1204.25 252.433,1240.35 256.826,1272.53 261.22,1300.73 265.614,1324.89 270.008,1344.98 274.402,1361 278.796,1372.9 283.19,1380.6 287.584,1383.98 291.978,1382.87 296.372,1377.03 300.766,1366.18 305.16,1350 309.554,1328.02 313.948,1299.89 318.342,1265.33 322.736,1224.14 327.13,1176.14 331.524,1121.2 335.918,1060.98 340.312,997.541 344.706,933.148 349.1,870.272 353.494,811.582 357.888,759.951 362.282,718.45 366.676,689.71 371.07,675.134 375.464,674.995 379.858,688.438 384.252,713.673 388.646,748.653 393.04,791.036 397.434,838.625 401.828,889.391 406.222,941.481 410.616,993.318 415.01,1043.87 419.404,1092.21 423.798,1137.63 428.192,1179.63 432.586,1217.94 436.98,1252.49 441.374,1283.13 445.768,1309.79 450.162,1332.41 454.556,1350.96 458.95,1365.4 463.344,1375.69 467.738,1381.77 472.132,1383.48 476.526,1380.6 480.92,1372.88 485.314,1360.04 489.708,1341.73 494.102,1317.58 498.496,1287.17 502.889,1250.15 507.283,1206.3 511.677,1155.87 516.071,1099.56 520.465,1038.59 524.859,974.622 529.253,909.837 533.647,847.251 538.041,790.489 542.435,742.65 546.829,706.198 551.223,682.965 555.617,674.147 560.011,679.407 564.405,697.197 568.799,726.048 573.193,764.19 577.587,809.551 581.981,859.755 586.375,912.124 590.769,964.08 595.163,1015.21 599.557,1064.64 603.951,1111.55 608.345,1155.34 612.739,1195.66 617.133,1232.32 621.527,1265.13 625.921,1294 630.315,1318.86 634.709,1339.66 639.103,1356.36 643.497,1368.94 647.891,1377.39 652.285,1381.58 656.679,1381.32 661.073,1376.39 665.467,1366.51 669.861,1351.38 674.255,1330.65 678.649,1303.91 683.043,1270.75 687.437,1230.83 691.831,1184.2 696.225,1131.34 700.619,1073.21 705.013,1011.19 709.407,947.154 713.801,883.436 718.195,823.399 722.589,770.546 726.983,727.719 731.377,697.079 735.771,680.105 740.165,677.543 744.558,688.236 748.952,710.648 753.346,743.277 757.74,784.354 762.134,831.848 766.528,883.462 770.922,936.635 775.316,988.552 779.71,1038.37 784.104,1086.18 788.498,1131.27 792.892,1173.1 797.286,1211.37 801.68,1245.91 806.074,1276.61 810.468,1303.39 814.862,1326.19 819.256,1344.97 823.65,1359.67 828.044,1370.22 832.438,1376.56 836.832,1378.61 841.226,1376.17 845.62,1368.94 850.014,1356.62 854.408,1338.9 858.802,1315.45 863.196,1285.95 867.59,1250.06 871.984,1207.49 876.378,1158.42 880.772,1103.57 885.166,1044.13 889.56,981.777 893.954,918.67 898.348,857.445 902.742,801.203 907.136,753.327 911.53,716.553 915.924,692.709 920.318,682.722 924.712,686.612 929.106,703.287 933.5,730.823 937.894,767.221 942.288,810.439 946.682,858.387 951.076,908.932 955.47,959.974 959.864,1010.44 964.258,1059.41 968.652,1106 973.046,1149.59 977.44,1189.77 981.834,1226.35 986.228,1259.2 990.621,1288.17 995.015,1313.18 999.409,1334.19 1003.8,1351.15 1008.2,1364.01 1012.59,1372.75 1016.99,1377.27 1021.38,1377.38 1025.77,1372.86 1030.17,1363.45 1034.56,1348.87 1038.96,1328.77 1043.35,1302.8 1047.74,1270.55 1052.14,1231.72 1056.53,1186.29 1060.93,1134.72 1065.32,1077.92 1069.71,1017.24 1074.11,954.488 1078.5,891.944 1082.9,832.662 1087.29,780.125 1091.68,737.199 1096.08,706.05 1100.47,688.143 1104.87,684.243 1109.26,693.578 1113.65,714.466 1118.05,745.466 1122.44,784.91 1126.83,830.903 1131.23,881.319 1135.62,933.807 1140.02,985.786 1144.41,1035.04 1148.8,1082.18 1153.2,1126.76 1157.59,1168.22 1161.99,1206.22 1166.38,1240.53 1170.77,1271.1 1175.17,1297.79 1179.56,1320.57 1183.96,1339.38 1188.35,1354.16 1192.74,1364.83 1197.14,1371.32 1201.53,1373.51 1205.93,1371.28 1210.32,1364.35 1214.71,1352.39 1219.11,1335.06 1223.5,1312.09 1227.9,1283.19 1232.29,1248.11 1236.68,1206.62 1241.08,1158.69 1245.47,1105.09 1249.87,1047.06 1254.26,986.26 1258.65,924.762 1263.05,865.072 1267.44,810.098 1271.84,762.907 1276.23,726.308 1280.62,702.235 1285.02,691.653 1289.41,694.556 1293.81,709.99 1298.2,736.249 1302.59,771.256 1306.99,812.955 1311.38,859.348 1315.78,908.492 1320.17,958.516 1324.56,1008.16 1328.96,1056.45 1333.35,1102.51 1337.75,1145.68 1342.14,1185.51 1346.53,1221.79 1350.93,1254.44 1355.32,1283.28 1359.72,1308.22 1364.11,1329.21 1368.5,1346.19 1372.9,1359.11 1377.29,1367.93 1381.69,1372.56 1386.08,1372.82 1390.47,1368.49 1394.87,1359.31 1399.26,1345.02 1403.66,1325.3 1408.05,1299.81 1412.44,1268.19 1416.84,1230.13 1421.23,1185.64 1425.63,1135.15 1430.02,1079.56 1434.41,1020.2 1438.81,958.837 1443.2,897.7 1447.6,839.612 1451.99,787.952 1456.38,745.58 1460.78,714.635 1465.17,696.544 1469.57,692.012 1473.96,700.653 1478.35,720.762 1482.75,750.761 1487.14,788.93 1491.54,833.388 1495.93,882.102 1500.32,932.877 1504.72,983.365 1509.11,1031.94 1513.51,1078.74 1517.9,1123.07 1522.29,1164.36 1526.69,1202.24 1531.08,1236.51 1535.48,1267.09 1539.87,1293.83 1544.26,1316.69 1548.66,1335.6 1553.05,1350.51 1557.45,1361.34 1561.84,1368.01 1566.23,1370.42 1570.63,1368.44 1575.02,1361.78 1579.42,1350.13 1583.81,1333.2 1588.2,1310.7 1592.6,1282.35 1596.99,1247.91 1601.38,1207.1 1605.78,1160 1610.17,1107.34 1614.57,1050.29 1618.96,990.444 1623.35,929.821 1627.75,870.858 1632.14,816.392 1636.54,769.471 1640.93,732.855 1645.32,708.441 1649.72,697.212 1654.11,699.241 1658.51,713.692 1662.9,738.896 1667.29,772.854 1671.69,813.58 1676.08,859.117 1680.48,907.533 1684.87,956.93 1689.26,1006 1693.66,1053.84 1698.05,1099.54 1702.45,1142.45 1706.84,1182.09 1711.23,1218.24 1715.63,1250.82 1720.02,1279.62 1724.42,1304.56 1728.81,1325.58 1733.2,1342.62 1737.6,1355.63 1741.99,1364.54 1746.39,1369.3 1750.78,1369.72 1755.17,1365.58 1759.57,1356.63 1763.96,1342.61 1768.36,1323.21 1772.75,1298.13 1777.14,1267.01 1781.54,1229.54 1785.93,1185.72 1790.33,1136.02 1794.72,1081.31 1799.11,1022.9 1803.51,962.532 1807.9,902.373 1812.3,845.076 1816.69,793.9 1821.08,751.752 1825.48,720.792 1829.87,702.43 1834.27,697.327 1838.66,705.278 1843.05,724.741 1847.45,753.983 1851.84,791.213 1856.24,834.55 1860.63,882.019 1865.02,931.555 1869.42,981.003 1873.81,1029.26 1878.21,1075.87 1882.6,1120.07 1886.99,1161.29 1891.39,1199.13 1895.78,1233.41 1900.18,1264.05 1904.57,1290.88 1908.96,1313.85 1913.36,1332.89 1917.75,1347.94 1922.15,1358.92 1926.54,1365.77 1930.93,1368.4 1935.33,1366.65 1939.72,1360.23 1944.12,1348.86 1948.51,1332.26 1952.9,1310.15 1957.3,1282.26 1961.69,1248.31 1966.09,1207.87 1970.48,1161.05 1974.87,1108.79 1979.27,1052.39 1983.66,993.415 1988.06,933.795 1992.45,875.759 1996.84,821.861 2001.24,775.022 2005.63,738.114 2010.03,713.149 2014.42,701.202 2018.81,702.409 2023.21,715.967 2027.6,740.332 2032,773.521 2036.39,813.472 2040.78,858.237 2045.18,905.98 2049.57,954.976 2053.97,1003.69 2058.36,1051.22 2062.75,1096.74 2067.15,1139.57 2071.54,1179.2 2075.94,1215.31 2080.33,1247.77 2084.72,1276.58 2089.12,1301.57 2093.51,1322.68 2097.9,1339.85 2102.3,1353.01 2106.69,1362.09 2111.09,1366.98 2115.48,1367.59 2119.87,1363.71 2124.27,1355.03 2128.66,1341.26 2133.06,1322.12 2137.45,1297.35 2141.84,1266.7 2146.24,1229.93 2150.63,1186.65 2155.03,1137.25 2159.42,1082.92 2163.81,1025.16 2168.21,965.748 2172.6,906.758 2177,850.56 2181.39,799.815 2185.78,757.399 2190.18,725.846 2194.57,706.795 2198.97,700.925 2203.36,707.965 2207.75,726.691 2212.15,755.331 2216.54,791.839 2220.94,834.153 2225.33,880.366 2229.72,928.733 2234.12,977.663 2238.51,1025.86 2242.91,1072.5 2247.3,1116.82 2251.69,1158.2 2256.09,1196.21 2260.48,1230.61 2264.88,1261.33 2269.27,1288.36 2273.66,1311.54 2278.06,1330.82 2282.45,1346.14 2286.85,1357.41 2291.24,1364.56 2295.63,1367.48 2300.03,1366.04 2304.42,1359.99 2308.82,1349 2313.21,1332.79 2317.6,1311.07 2322,1283.6 2326.39,1250.16 2330.79,1210.57 2335.18,1164.9 2339.57,1113.64 2343.97,1057.75 2348.36,998.703 2352.76,938.546 "/>
<path clip-path="url(#clip850)" d="M1952.14 352.309 L2279.52 352.309 L2279.52 93.1086 L1952.14 93.1086  Z" fill="#ffffff" fill-rule="evenodd" fill-opacity="1"/>
<polyline clip-path="url(#clip850)" style="stroke:#000000; stroke-linecap:round; stroke-linejoin:round; stroke-width:4; stroke-opacity:1; fill:none" points="1952.14,352.309 2279.52,352.309 2279.52,93.1086 1952.14,93.1086 1952.14,352.309 "/>
<polyline clip-path="url(#clip850)" style="stroke:#009af9; stroke-linecap:round; stroke-linejoin:round; stroke-width:4; stroke-opacity:1; fill:none" points="1976.55,144.949 2123.02,144.949 "/>
<path clip-path="url(#clip850)" d="M2147.43 151.997 L2147.43 136.303 L2151.69 136.303 L2151.69 151.835 Q2151.69 155.516 2153.12 157.368 Q2154.56 159.196 2157.43 159.196 Q2160.88 159.196 2162.87 156.997 Q2164.88 154.798 2164.88 151.002 L2164.88 136.303 L2169.14 136.303 L2169.14 162.229 L2164.88 162.229 L2164.88 158.247 Q2163.33 160.608 2161.27 161.766 Q2159.23 162.9 2156.52 162.9 Q2152.06 162.9 2149.74 160.122 Q2147.43 157.344 2147.43 151.997 M2158.14 135.678 L2158.14 135.678 Z" fill="#000000" fill-rule="nonzero" fill-opacity="1" /><path clip-path="url(#clip850)" d="M2179.33 158.293 L2186.96 158.293 L2186.96 131.928 L2178.65 133.595 L2178.65 129.335 L2186.92 127.669 L2191.59 127.669 L2191.59 158.293 L2199.23 158.293 L2199.23 162.229 L2179.33 162.229 L2179.33 158.293 Z" fill="#000000" fill-rule="nonzero" fill-opacity="1" /><path clip-path="url(#clip850)" d="M2218.31 126.257 Q2215.2 131.581 2213.7 136.789 Q2212.2 141.997 2212.2 147.344 Q2212.2 152.692 2213.7 157.946 Q2215.23 163.178 2218.31 168.479 L2214.6 168.479 Q2211.13 163.039 2209.39 157.784 Q2207.68 152.53 2207.68 147.344 Q2207.68 142.182 2209.39 136.951 Q2211.11 131.72 2214.6 126.257 L2218.31 126.257 Z" fill="#000000" fill-rule="nonzero" fill-opacity="1" /><path clip-path="url(#clip850)" d="M2230.78 128.942 L2230.78 136.303 L2239.56 136.303 L2239.56 139.613 L2230.78 139.613 L2230.78 153.687 Q2230.78 156.858 2231.64 157.761 Q2232.52 158.664 2235.18 158.664 L2239.56 158.664 L2239.56 162.229 L2235.18 162.229 Q2230.25 162.229 2228.38 160.4 Q2226.5 158.548 2226.5 153.687 L2226.5 139.613 L2223.38 139.613 L2223.38 136.303 L2226.5 136.303 L2226.5 128.942 L2230.78 128.942 Z" fill="#000000" fill-rule="nonzero" fill-opacity="1" /><path clip-path="url(#clip850)" d="M2244.49 126.257 L2248.19 126.257 Q2251.66 131.72 2253.38 136.951 Q2255.11 142.182 2255.11 147.344 Q2255.11 152.53 2253.38 157.784 Q2251.66 163.039 2248.19 168.479 L2244.49 168.479 Q2247.57 163.178 2249.07 157.946 Q2250.6 152.692 2250.6 147.344 Q2250.6 141.997 2249.07 136.789 Q2247.57 131.581 2244.49 126.257 Z" fill="#000000" fill-rule="nonzero" fill-opacity="1" /><polyline clip-path="url(#clip850)" style="stroke:#e26f46; stroke-linecap:round; stroke-linejoin:round; stroke-width:4; stroke-opacity:1; fill:none" points="1976.55,196.789 2123.02,196.789 "/>
<path clip-path="url(#clip850)" d="M2147.43 203.837 L2147.43 188.143 L2151.69 188.143 L2151.69 203.675 Q2151.69 207.356 2153.12 209.208 Q2154.56 211.036 2157.43 211.036 Q2160.88 211.036 2162.87 208.837 Q2164.88 206.638 2164.88 202.842 L2164.88 188.143 L2169.14 188.143 L2169.14 214.069 L2164.88 214.069 L2164.88 210.087 Q2163.33 212.448 2161.27 213.606 Q2159.23 214.74 2156.52 214.74 Q2152.06 214.74 2149.74 211.962 Q2147.43 209.184 2147.43 203.837 M2158.14 187.518 L2158.14 187.518 Z" fill="#000000" fill-rule="nonzero" fill-opacity="1" /><path clip-path="url(#clip850)" d="M2182.54 210.133 L2198.86 210.133 L2198.86 214.069 L2176.92 214.069 L2176.92 210.133 Q2179.58 207.379 2184.16 202.749 Q2188.77 198.096 2189.95 196.754 Q2192.2 194.231 2193.08 192.495 Q2193.98 190.735 2193.98 189.046 Q2193.98 186.291 2192.03 184.555 Q2190.11 182.819 2187.01 182.819 Q2184.81 182.819 2182.36 183.583 Q2179.93 184.347 2177.15 185.897 L2177.15 181.175 Q2179.97 180.041 2182.43 179.462 Q2184.88 178.884 2186.92 178.884 Q2192.29 178.884 2195.48 181.569 Q2198.68 184.254 2198.68 188.745 Q2198.68 190.874 2197.87 192.796 Q2197.08 194.694 2194.97 197.286 Q2194.39 197.958 2191.29 201.175 Q2188.19 204.37 2182.54 210.133 Z" fill="#000000" fill-rule="nonzero" fill-opacity="1" /><path clip-path="url(#clip850)" d="M2218.31 178.097 Q2215.2 183.421 2213.7 188.629 Q2212.2 193.837 2212.2 199.184 Q2212.2 204.532 2213.7 209.786 Q2215.23 215.018 2218.31 220.319 L2214.6 220.319 Q2211.13 214.879 2209.39 209.624 Q2207.68 204.37 2207.68 199.184 Q2207.68 194.022 2209.39 188.791 Q2211.11 183.56 2214.6 178.097 L2218.31 178.097 Z" fill="#000000" fill-rule="nonzero" fill-opacity="1" /><path clip-path="url(#clip850)" d="M2230.78 180.782 L2230.78 188.143 L2239.56 188.143 L2239.56 191.453 L2230.78 191.453 L2230.78 205.527 Q2230.78 208.698 2231.64 209.601 Q2232.52 210.504 2235.18 210.504 L2239.56 210.504 L2239.56 214.069 L2235.18 214.069 Q2230.25 214.069 2228.38 212.24 Q2226.5 210.388 2226.5 205.527 L2226.5 191.453 L2223.38 191.453 L2223.38 188.143 L2226.5 188.143 L2226.5 180.782 L2230.78 180.782 Z" fill="#000000" fill-rule="nonzero" fill-opacity="1" /><path clip-path="url(#clip850)" d="M2244.49 178.097 L2248.19 178.097 Q2251.66 183.56 2253.38 188.791 Q2255.11 194.022 2255.11 199.184 Q2255.11 204.37 2253.38 209.624 Q2251.66 214.879 2248.19 220.319 L2244.49 220.319 Q2247.57 215.018 2249.07 209.786 Q2250.6 204.532 2250.6 199.184 Q2250.6 193.837 2249.07 188.629 Q2247.57 183.421 2244.49 178.097 Z" fill="#000000" fill-rule="nonzero" fill-opacity="1" /><polyline clip-path="url(#clip850)" style="stroke:#3da44d; stroke-linecap:round; stroke-linejoin:round; stroke-width:4; stroke-opacity:1; fill:none" points="1976.55,248.629 2123.02,248.629 "/>
<path clip-path="url(#clip850)" d="M2147.43 255.677 L2147.43 239.983 L2151.69 239.983 L2151.69 255.515 Q2151.69 259.196 2153.12 261.048 Q2154.56 262.876 2157.43 262.876 Q2160.88 262.876 2162.87 260.677 Q2164.88 258.478 2164.88 254.682 L2164.88 239.983 L2169.14 239.983 L2169.14 265.909 L2164.88 265.909 L2164.88 261.927 Q2163.33 264.288 2161.27 265.446 Q2159.23 266.58 2156.52 266.58 Q2152.06 266.58 2149.74 263.802 Q2147.43 261.024 2147.43 255.677 M2158.14 239.358 L2158.14 239.358 Z" fill="#000000" fill-rule="nonzero" fill-opacity="1" /><path clip-path="url(#clip850)" d="M2179.33 261.973 L2186.96 261.973 L2186.96 235.608 L2178.65 237.275 L2178.65 233.015 L2186.92 231.349 L2191.59 231.349 L2191.59 261.973 L2199.23 261.973 L2199.23 265.909 L2179.33 265.909 L2179.33 261.973 Z" fill="#000000" fill-rule="nonzero" fill-opacity="1" /><path clip-path="url(#clip850)" d="M2218.31 229.937 Q2215.2 235.261 2213.7 240.469 Q2212.2 245.677 2212.2 251.024 Q2212.2 256.372 2213.7 261.626 Q2215.23 266.858 2218.31 272.159 L2214.6 272.159 Q2211.13 266.719 2209.39 261.464 Q2207.68 256.21 2207.68 251.024 Q2207.68 245.862 2209.39 240.631 Q2211.11 235.4 2214.6 229.937 L2218.31 229.937 Z" fill="#000000" fill-rule="nonzero" fill-opacity="1" /><path clip-path="url(#clip850)" d="M2230.78 232.622 L2230.78 239.983 L2239.56 239.983 L2239.56 243.293 L2230.78 243.293 L2230.78 257.367 Q2230.78 260.538 2231.64 261.441 Q2232.52 262.344 2235.18 262.344 L2239.56 262.344 L2239.56 265.909 L2235.18 265.909 Q2230.25 265.909 2228.38 264.08 Q2226.5 262.228 2226.5 257.367 L2226.5 243.293 L2223.38 243.293 L2223.38 239.983 L2226.5 239.983 L2226.5 232.622 L2230.78 232.622 Z" fill="#000000" fill-rule="nonzero" fill-opacity="1" /><path clip-path="url(#clip850)" d="M2244.49 229.937 L2248.19 229.937 Q2251.66 235.4 2253.38 240.631 Q2255.11 245.862 2255.11 251.024 Q2255.11 256.21 2253.38 261.464 Q2251.66 266.719 2248.19 272.159 L2244.49 272.159 Q2247.57 266.858 2249.07 261.626 Q2250.6 256.372 2250.6 251.024 Q2250.6 245.677 2249.07 240.469 Q2247.57 235.261 2244.49 229.937 Z" fill="#000000" fill-rule="nonzero" fill-opacity="1" /><polyline clip-path="url(#clip850)" style="stroke:#c271d2; stroke-linecap:round; stroke-linejoin:round; stroke-width:4; stroke-opacity:1; fill:none" points="1976.55,300.469 2123.02,300.469 "/>
<path clip-path="url(#clip850)" d="M2147.43 307.517 L2147.43 291.823 L2151.69 291.823 L2151.69 307.355 Q2151.69 311.036 2153.12 312.888 Q2154.56 314.716 2157.43 314.716 Q2160.88 314.716 2162.87 312.517 Q2164.88 310.318 2164.88 306.522 L2164.88 291.823 L2169.14 291.823 L2169.14 317.749 L2164.88 317.749 L2164.88 313.767 Q2163.33 316.128 2161.27 317.286 Q2159.23 318.42 2156.52 318.42 Q2152.06 318.42 2149.74 315.642 Q2147.43 312.864 2147.43 307.517 M2158.14 291.198 L2158.14 291.198 Z" fill="#000000" fill-rule="nonzero" fill-opacity="1" /><path clip-path="url(#clip850)" d="M2182.54 313.813 L2198.86 313.813 L2198.86 317.749 L2176.92 317.749 L2176.92 313.813 Q2179.58 311.059 2184.16 306.429 Q2188.77 301.776 2189.95 300.434 Q2192.2 297.911 2193.08 296.175 Q2193.98 294.415 2193.98 292.726 Q2193.98 289.971 2192.03 288.235 Q2190.11 286.499 2187.01 286.499 Q2184.81 286.499 2182.36 287.263 Q2179.93 288.027 2177.15 289.577 L2177.15 284.855 Q2179.97 283.721 2182.43 283.142 Q2184.88 282.564 2186.92 282.564 Q2192.29 282.564 2195.48 285.249 Q2198.68 287.934 2198.68 292.425 Q2198.68 294.554 2197.87 296.476 Q2197.08 298.374 2194.97 300.966 Q2194.39 301.638 2191.29 304.855 Q2188.19 308.05 2182.54 313.813 Z" fill="#000000" fill-rule="nonzero" fill-opacity="1" /><path clip-path="url(#clip850)" d="M2218.31 281.777 Q2215.2 287.101 2213.7 292.309 Q2212.2 297.517 2212.2 302.864 Q2212.2 308.212 2213.7 313.466 Q2215.23 318.698 2218.31 323.999 L2214.6 323.999 Q2211.13 318.559 2209.39 313.304 Q2207.68 308.05 2207.68 302.864 Q2207.68 297.702 2209.39 292.471 Q2211.11 287.24 2214.6 281.777 L2218.31 281.777 Z" fill="#000000" fill-rule="nonzero" fill-opacity="1" /><path clip-path="url(#clip850)" d="M2230.78 284.462 L2230.78 291.823 L2239.56 291.823 L2239.56 295.133 L2230.78 295.133 L2230.78 309.207 Q2230.78 312.378 2231.64 313.281 Q2232.52 314.184 2235.18 314.184 L2239.56 314.184 L2239.56 317.749 L2235.18 317.749 Q2230.25 317.749 2228.38 315.92 Q2226.5 314.068 2226.5 309.207 L2226.5 295.133 L2223.38 295.133 L2223.38 291.823 L2226.5 291.823 L2226.5 284.462 L2230.78 284.462 Z" fill="#000000" fill-rule="nonzero" fill-opacity="1" /><path clip-path="url(#clip850)" d="M2244.49 281.777 L2248.19 281.777 Q2251.66 287.24 2253.38 292.471 Q2255.11 297.702 2255.11 302.864 Q2255.11 308.05 2253.38 313.304 Q2251.66 318.559 2248.19 323.999 L2244.49 323.999 Q2247.57 318.698 2249.07 313.466 Q2250.6 308.212 2250.6 302.864 Q2250.6 297.517 2249.07 292.309 Q2247.57 287.101 2244.49 281.777 Z" fill="#000000" fill-rule="nonzero" fill-opacity="1" /></svg>
