<?xml version="1.0" encoding="utf-8"?>
<svg xmlns="http://www.w3.org/2000/svg" xmlns:xlink="http://www.w3.org/1999/xlink" width="600" height="400" viewBox="0 0 2400 1600">
<defs>
  <clipPath id="clip990">
    <rect x="0" y="0" width="2400" height="1600"/>
  </clipPath>
</defs>
<path clip-path="url(#clip990)" d="M0 1600 L2400 1600 L2400 0 L0 0  Z" fill="#ffffff" fill-rule="evenodd" fill-opacity="1"/>
<defs>
  <clipPath id="clip991">
    <rect x="480" y="0" width="1681" height="1600"/>
  </clipPath>
</defs>
<defs>
  <clipPath id="clip992">
    <rect x="203" y="123" width="2150" height="1301"/>
  </clipPath>
</defs>
<path clip-path="url(#clip992)" d="M191.428 1401.25 L191.428 1376.73 L200.605 1364.46 L216.5 1371.54 L216.5 1396.07 L207.323 1408.33 L191.428 1401.25  Z" fill="#ffffff" fill-rule="evenodd" fill-opacity="1"/>
<polyline clip-path="url(#clip992)" style="stroke:#000000; stroke-linecap:round; stroke-linejoin:round; stroke-width:2; stroke-opacity:0.1; fill:none" points="924.786,1212.8 1299.98,887.876 1299.98,238.022 "/>
<polyline clip-path="url(#clip992)" style="stroke:#000000; stroke-linecap:round; stroke-linejoin:round; stroke-width:2; stroke-opacity:0.1; fill:none" points="1083.73,1258.69 1458.93,933.761 1458.93,283.907 "/>
<polyline clip-path="url(#clip992)" style="stroke:#000000; stroke-linecap:round; stroke-linejoin:round; stroke-width:2; stroke-opacity:0.1; fill:none" points="1242.68,1304.57 1617.88,979.645 1617.88,329.791 "/>
<polyline clip-path="url(#clip992)" style="stroke:#000000; stroke-linecap:round; stroke-linejoin:round; stroke-width:2; stroke-opacity:0.1; fill:none" points="1401.63,1350.46 1776.83,1025.53 1776.83,375.676 "/>
<polyline clip-path="url(#clip990)" style="stroke:#000000; stroke-linecap:round; stroke-linejoin:round; stroke-width:4; stroke-opacity:1; fill:none" points="765.836,1166.92 1415.69,1354.51 "/>
<polyline clip-path="url(#clip990)" style="stroke:#000000; stroke-linecap:round; stroke-linejoin:round; stroke-width:4; stroke-opacity:1; fill:none" points="924.786,1212.8 929.288,1208.9 "/>
<polyline clip-path="url(#clip990)" style="stroke:#000000; stroke-linecap:round; stroke-linejoin:round; stroke-width:4; stroke-opacity:1; fill:none" points="1083.73,1258.69 1088.24,1254.79 "/>
<polyline clip-path="url(#clip990)" style="stroke:#000000; stroke-linecap:round; stroke-linejoin:round; stroke-width:4; stroke-opacity:1; fill:none" points="1242.68,1304.57 1247.19,1300.67 "/>
<polyline clip-path="url(#clip990)" style="stroke:#000000; stroke-linecap:round; stroke-linejoin:round; stroke-width:4; stroke-opacity:1; fill:none" points="1401.63,1350.46 1406.14,1346.56 "/>
<path clip-path="url(#clip990)" d="M864.99 1252.46 L881.309 1252.46 L881.309 1256.39 L859.365 1256.39 L859.365 1252.46 Q862.027 1249.7 866.61 1245.07 Q871.217 1240.42 872.397 1239.08 Q874.643 1236.55 875.522 1234.82 Q876.425 1233.06 876.425 1231.37 Q876.425 1228.61 874.481 1226.88 Q872.559 1225.14 869.458 1225.14 Q867.259 1225.14 864.805 1225.91 Q862.374 1226.67 859.597 1228.22 L859.597 1223.5 Q862.421 1222.36 864.874 1221.79 Q867.328 1221.21 869.365 1221.21 Q874.735 1221.21 877.93 1223.89 Q881.124 1226.58 881.124 1231.07 Q881.124 1233.2 880.314 1235.12 Q879.527 1237.02 877.42 1239.61 Q876.842 1240.28 873.74 1243.5 Q870.638 1246.69 864.99 1252.46 Z" fill="#000000" fill-rule="nonzero" fill-opacity="1" /><path clip-path="url(#clip990)" d="M901.124 1224.91 Q897.513 1224.91 895.684 1228.48 Q893.879 1232.02 893.879 1239.15 Q893.879 1246.25 895.684 1249.82 Q897.513 1253.36 901.124 1253.36 Q904.758 1253.36 906.564 1249.82 Q908.393 1246.25 908.393 1239.15 Q908.393 1232.02 906.564 1228.48 Q904.758 1224.91 901.124 1224.91 M901.124 1221.21 Q906.934 1221.21 909.99 1225.81 Q913.068 1230.4 913.068 1239.15 Q913.068 1247.87 909.99 1252.48 Q906.934 1257.06 901.124 1257.06 Q895.314 1257.06 892.235 1252.48 Q889.18 1247.87 889.18 1239.15 Q889.18 1230.4 892.235 1225.81 Q895.314 1221.21 901.124 1221.21 Z" fill="#000000" fill-rule="nonzero" fill-opacity="1" /><path clip-path="url(#clip990)" d="M1032.76 1271.79 L1020.95 1290.24 L1032.76 1290.24 L1032.76 1271.79 M1031.53 1267.72 L1037.41 1267.72 L1037.41 1290.24 L1042.34 1290.24 L1042.34 1294.13 L1037.41 1294.13 L1037.41 1302.28 L1032.76 1302.28 L1032.76 1294.13 L1017.16 1294.13 L1017.16 1289.61 L1031.53 1267.72 Z" fill="#000000" fill-rule="nonzero" fill-opacity="1" /><path clip-path="url(#clip990)" d="M1060.07 1270.79 Q1056.46 1270.79 1054.63 1274.36 Q1052.83 1277.9 1052.83 1285.03 Q1052.83 1292.14 1054.63 1295.7 Q1056.46 1299.24 1060.07 1299.24 Q1063.71 1299.24 1065.51 1295.7 Q1067.34 1292.14 1067.34 1285.03 Q1067.34 1277.9 1065.51 1274.36 Q1063.71 1270.79 1060.07 1270.79 M1060.07 1267.09 Q1065.88 1267.09 1068.94 1271.7 Q1072.02 1276.28 1072.02 1285.03 Q1072.02 1293.76 1068.94 1298.36 Q1065.88 1302.95 1060.07 1302.95 Q1054.26 1302.95 1051.18 1298.36 Q1048.13 1293.76 1048.13 1285.03 Q1048.13 1276.28 1051.18 1271.7 Q1054.26 1267.09 1060.07 1267.09 Z" fill="#000000" fill-rule="nonzero" fill-opacity="1" /><path clip-path="url(#clip990)" d="M1189.44 1329.02 Q1186.29 1329.02 1184.44 1331.17 Q1182.61 1333.32 1182.61 1337.07 Q1182.61 1340.8 1184.44 1342.98 Q1186.29 1345.13 1189.44 1345.13 Q1192.59 1345.13 1194.42 1342.98 Q1196.27 1340.8 1196.27 1337.07 Q1196.27 1333.32 1194.42 1331.17 Q1192.59 1329.02 1189.44 1329.02 M1198.72 1314.36 L1198.72 1318.62 Q1196.96 1317.79 1195.16 1317.35 Q1193.37 1316.91 1191.62 1316.91 Q1186.99 1316.91 1184.53 1320.04 Q1182.1 1323.16 1181.75 1329.48 Q1183.12 1327.47 1185.18 1326.4 Q1187.24 1325.31 1189.72 1325.31 Q1194.93 1325.31 1197.93 1328.49 Q1200.97 1331.63 1200.97 1337.07 Q1200.97 1342.4 1197.82 1345.61 Q1194.67 1348.83 1189.44 1348.83 Q1183.44 1348.83 1180.27 1344.25 Q1177.1 1339.64 1177.1 1330.92 Q1177.1 1322.72 1180.99 1317.86 Q1184.88 1312.98 1191.43 1312.98 Q1193.19 1312.98 1194.97 1313.32 Q1196.78 1313.67 1198.72 1314.36 Z" fill="#000000" fill-rule="nonzero" fill-opacity="1" /><path clip-path="url(#clip990)" d="M1219.02 1316.68 Q1215.41 1316.68 1213.58 1320.24 Q1211.78 1323.79 1211.78 1330.92 Q1211.78 1338.02 1213.58 1341.59 Q1215.41 1345.13 1219.02 1345.13 Q1222.66 1345.13 1224.46 1341.59 Q1226.29 1338.02 1226.29 1330.92 Q1226.29 1323.79 1224.46 1320.24 Q1222.66 1316.68 1219.02 1316.68 M1219.02 1312.98 Q1224.83 1312.98 1227.89 1317.58 Q1230.97 1322.17 1230.97 1330.92 Q1230.97 1339.64 1227.89 1344.25 Q1224.83 1348.83 1219.02 1348.83 Q1213.21 1348.83 1210.13 1344.25 Q1207.08 1339.64 1207.08 1330.92 Q1207.08 1322.17 1210.13 1317.58 Q1213.21 1312.98 1219.02 1312.98 Z" fill="#000000" fill-rule="nonzero" fill-opacity="1" /><path clip-path="url(#clip990)" d="M1347.81 1377.63 Q1344.48 1377.63 1342.56 1379.42 Q1340.66 1381.2 1340.66 1384.32 Q1340.66 1387.45 1342.56 1389.23 Q1344.48 1391.01 1347.81 1391.01 Q1351.14 1391.01 1353.06 1389.23 Q1354.99 1387.43 1354.99 1384.32 Q1354.99 1381.2 1353.06 1379.42 Q1351.17 1377.63 1347.81 1377.63 M1343.13 1375.64 Q1340.13 1374.9 1338.44 1372.84 Q1336.77 1370.78 1336.77 1367.82 Q1336.77 1363.68 1339.71 1361.27 Q1342.67 1358.86 1347.81 1358.86 Q1352.97 1358.86 1355.91 1361.27 Q1358.85 1363.68 1358.85 1367.82 Q1358.85 1370.78 1357.16 1372.84 Q1355.5 1374.9 1352.51 1375.64 Q1355.89 1376.43 1357.76 1378.72 Q1359.66 1381.01 1359.66 1384.32 Q1359.66 1389.35 1356.58 1392.03 Q1353.53 1394.72 1347.81 1394.72 Q1342.09 1394.72 1339.01 1392.03 Q1335.96 1389.35 1335.96 1384.32 Q1335.96 1381.01 1337.86 1378.72 Q1339.75 1376.43 1343.13 1375.64 M1341.42 1368.26 Q1341.42 1370.94 1343.09 1372.45 Q1344.78 1373.95 1347.81 1373.95 Q1350.82 1373.95 1352.51 1372.45 Q1354.22 1370.94 1354.22 1368.26 Q1354.22 1365.57 1352.51 1364.07 Q1350.82 1362.56 1347.81 1362.56 Q1344.78 1362.56 1343.09 1364.07 Q1341.42 1365.57 1341.42 1368.26 Z" fill="#000000" fill-rule="nonzero" fill-opacity="1" /><path clip-path="url(#clip990)" d="M1377.97 1362.56 Q1374.36 1362.56 1372.53 1366.13 Q1370.73 1369.67 1370.73 1376.8 Q1370.73 1383.91 1372.53 1387.47 Q1374.36 1391.01 1377.97 1391.01 Q1381.61 1391.01 1383.41 1387.47 Q1385.24 1383.91 1385.24 1376.8 Q1385.24 1369.67 1383.41 1366.13 Q1381.61 1362.56 1377.97 1362.56 M1377.97 1358.86 Q1383.78 1358.86 1386.84 1363.47 Q1389.92 1368.05 1389.92 1376.8 Q1389.92 1385.53 1386.84 1390.13 Q1383.78 1394.72 1377.97 1394.72 Q1372.16 1394.72 1369.08 1390.13 Q1366.03 1385.53 1366.03 1376.8 Q1366.03 1368.05 1369.08 1363.47 Q1372.16 1358.86 1377.97 1358.86 Z" fill="#000000" fill-rule="nonzero" fill-opacity="1" /><path clip-path="url(#clip990)" d="M905.8 1393.34 L912.23 1393.34 L912.23 1435.45 L935.369 1435.45 L935.369 1440.86 L905.8 1440.86 L905.8 1393.34 Z" fill="#000000" fill-rule="nonzero" fill-opacity="1" /><path clip-path="url(#clip990)" d="M941.862 1405.21 L947.718 1405.21 L947.718 1440.86 L941.862 1440.86 L941.862 1405.21 M941.862 1391.34 L947.718 1391.34 L947.718 1398.75 L941.862 1398.75 L941.862 1391.34 Z" fill="#000000" fill-rule="nonzero" fill-opacity="1" /><path clip-path="url(#clip990)" d="M973.786 1409.32 Q969.075 1409.32 966.338 1413.01 Q963.601 1416.67 963.601 1423.07 Q963.601 1429.47 966.306 1433.16 Q969.044 1436.82 973.786 1436.82 Q978.465 1436.82 981.202 1433.13 Q983.939 1429.43 983.939 1423.07 Q983.939 1416.73 981.202 1413.04 Q978.465 1409.32 973.786 1409.32 M973.786 1404.35 Q981.425 1404.35 985.785 1409.32 Q990.146 1414.28 990.146 1423.07 Q990.146 1431.82 985.785 1436.82 Q981.425 1441.78 973.786 1441.78 Q966.115 1441.78 961.755 1436.82 Q957.426 1431.82 957.426 1423.07 Q957.426 1414.28 961.755 1409.32 Q966.115 1404.35 973.786 1404.35 Z" fill="#000000" fill-rule="nonzero" fill-opacity="1" /><path clip-path="url(#clip990)" d="M1029.49 1419.34 L1029.49 1440.86 L1023.63 1440.86 L1023.63 1419.54 Q1023.63 1414.47 1021.66 1411.96 Q1019.68 1409.45 1015.74 1409.45 Q1010.99 1409.45 1008.26 1412.47 Q1005.52 1415.49 1005.52 1420.71 L1005.52 1440.86 L999.631 1440.86 L999.631 1405.21 L1005.52 1405.21 L1005.52 1410.75 Q1007.62 1407.54 1010.45 1405.94 Q1013.32 1404.35 1017.04 1404.35 Q1023.18 1404.35 1026.33 1408.17 Q1029.49 1411.96 1029.49 1419.34 Z" fill="#000000" fill-rule="nonzero" fill-opacity="1" /><polyline clip-path="url(#clip992)" style="stroke:#000000; stroke-linecap:round; stroke-linejoin:round; stroke-width:2; stroke-opacity:0.1; fill:none" points="1426.31,1345.32 776.455,1157.72 776.455,507.868 "/>
<polyline clip-path="url(#clip992)" style="stroke:#000000; stroke-linecap:round; stroke-linejoin:round; stroke-width:2; stroke-opacity:0.1; fill:none" points="1497.1,1284.01 847.246,1096.42 847.246,446.561 "/>
<polyline clip-path="url(#clip992)" style="stroke:#000000; stroke-linecap:round; stroke-linejoin:round; stroke-width:2; stroke-opacity:0.1; fill:none" points="1567.89,1222.7 918.037,1035.11 918.037,385.254 "/>
<polyline clip-path="url(#clip992)" style="stroke:#000000; stroke-linecap:round; stroke-linejoin:round; stroke-width:2; stroke-opacity:0.1; fill:none" points="1638.68,1161.4 988.828,973.801 988.828,323.947 "/>
<polyline clip-path="url(#clip992)" style="stroke:#000000; stroke-linecap:round; stroke-linejoin:round; stroke-width:2; stroke-opacity:0.1; fill:none" points="1709.47,1100.09 1059.62,912.494 1059.62,262.64 "/>
<polyline clip-path="url(#clip992)" style="stroke:#000000; stroke-linecap:round; stroke-linejoin:round; stroke-width:2; stroke-opacity:0.1; fill:none" points="1780.26,1038.78 1130.41,851.187 1130.41,201.333 "/>
<polyline clip-path="url(#clip990)" style="stroke:#000000; stroke-linecap:round; stroke-linejoin:round; stroke-width:4; stroke-opacity:1; fill:none" points="1415.69,1354.51 1790.88,1029.59 "/>
<polyline clip-path="url(#clip990)" style="stroke:#000000; stroke-linecap:round; stroke-linejoin:round; stroke-width:4; stroke-opacity:1; fill:none" points="1426.31,1345.32 1418.51,1343.07 "/>
<polyline clip-path="url(#clip990)" style="stroke:#000000; stroke-linecap:round; stroke-linejoin:round; stroke-width:4; stroke-opacity:1; fill:none" points="1497.1,1284.01 1489.3,1281.76 "/>
<polyline clip-path="url(#clip990)" style="stroke:#000000; stroke-linecap:round; stroke-linejoin:round; stroke-width:4; stroke-opacity:1; fill:none" points="1567.89,1222.7 1560.09,1220.45 "/>
<polyline clip-path="url(#clip990)" style="stroke:#000000; stroke-linecap:round; stroke-linejoin:round; stroke-width:4; stroke-opacity:1; fill:none" points="1638.68,1161.4 1630.88,1159.15 "/>
<polyline clip-path="url(#clip990)" style="stroke:#000000; stroke-linecap:round; stroke-linejoin:round; stroke-width:4; stroke-opacity:1; fill:none" points="1709.47,1100.09 1701.68,1097.84 "/>
<polyline clip-path="url(#clip990)" style="stroke:#000000; stroke-linecap:round; stroke-linejoin:round; stroke-width:4; stroke-opacity:1; fill:none" points="1780.26,1038.78 1772.47,1036.53 "/>
<path clip-path="url(#clip990)" d="M1461.31 1348.37 Q1457.7 1348.37 1455.87 1351.94 Q1454.06 1355.48 1454.06 1362.61 Q1454.06 1369.72 1455.87 1373.28 Q1457.7 1376.82 1461.31 1376.82 Q1464.94 1376.82 1466.75 1373.28 Q1468.58 1369.72 1468.58 1362.61 Q1468.58 1355.48 1466.75 1351.94 Q1464.94 1348.37 1461.31 1348.37 M1461.31 1344.67 Q1467.12 1344.67 1470.18 1349.28 Q1473.25 1353.86 1473.25 1362.61 Q1473.25 1371.34 1470.18 1375.94 Q1467.12 1380.53 1461.31 1380.53 Q1455.5 1380.53 1452.42 1375.94 Q1449.37 1371.34 1449.37 1362.61 Q1449.37 1353.86 1452.42 1349.28 Q1455.5 1344.67 1461.31 1344.67 Z" fill="#000000" fill-rule="nonzero" fill-opacity="1" /><path clip-path="url(#clip990)" d="M1520.83 1314.61 L1528.47 1314.61 L1528.47 1288.25 L1520.16 1289.91 L1520.16 1285.66 L1528.42 1283.99 L1533.1 1283.99 L1533.1 1314.61 L1540.74 1314.61 L1540.74 1318.55 L1520.83 1318.55 L1520.83 1314.61 Z" fill="#000000" fill-rule="nonzero" fill-opacity="1" /><path clip-path="url(#clip990)" d="M1560.18 1287.07 Q1556.57 1287.07 1554.74 1290.63 Q1552.93 1294.17 1552.93 1301.3 Q1552.93 1308.41 1554.74 1311.97 Q1556.57 1315.52 1560.18 1315.52 Q1563.81 1315.52 1565.62 1311.97 Q1567.45 1308.41 1567.45 1301.3 Q1567.45 1294.17 1565.62 1290.63 Q1563.81 1287.07 1560.18 1287.07 M1560.18 1283.36 Q1565.99 1283.36 1569.05 1287.97 Q1572.12 1292.55 1572.12 1301.3 Q1572.12 1310.03 1569.05 1314.64 Q1565.99 1319.22 1560.18 1319.22 Q1554.37 1319.22 1551.29 1314.64 Q1548.24 1310.03 1548.24 1301.3 Q1548.24 1292.55 1551.29 1287.97 Q1554.37 1283.36 1560.18 1283.36 Z" fill="#000000" fill-rule="nonzero" fill-opacity="1" /><path clip-path="url(#clip990)" d="M1596.57 1253.31 L1612.89 1253.31 L1612.89 1257.24 L1590.95 1257.24 L1590.95 1253.31 Q1593.61 1250.55 1598.19 1245.92 Q1602.8 1241.27 1603.98 1239.93 Q1606.23 1237.4 1607.11 1235.67 Q1608.01 1233.91 1608.01 1232.22 Q1608.01 1229.46 1606.06 1227.73 Q1604.14 1225.99 1601.04 1225.99 Q1598.84 1225.99 1596.39 1226.76 Q1593.96 1227.52 1591.18 1229.07 L1591.18 1224.35 Q1594 1223.21 1596.46 1222.64 Q1598.91 1222.06 1600.95 1222.06 Q1606.32 1222.06 1609.51 1224.74 Q1612.71 1227.43 1612.71 1231.92 Q1612.71 1234.05 1611.9 1235.97 Q1611.11 1237.87 1609 1240.46 Q1608.43 1241.13 1605.32 1244.35 Q1602.22 1247.54 1596.57 1253.31 Z" fill="#000000" fill-rule="nonzero" fill-opacity="1" /><path clip-path="url(#clip990)" d="M1632.71 1225.76 Q1629.1 1225.76 1627.27 1229.33 Q1625.46 1232.87 1625.46 1240 Q1625.46 1247.1 1627.27 1250.67 Q1629.1 1254.21 1632.71 1254.21 Q1636.34 1254.21 1638.15 1250.67 Q1639.98 1247.1 1639.98 1240 Q1639.98 1232.87 1638.15 1229.33 Q1636.34 1225.76 1632.71 1225.76 M1632.71 1222.06 Q1638.52 1222.06 1641.57 1226.66 Q1644.65 1231.25 1644.65 1240 Q1644.65 1248.72 1641.57 1253.33 Q1638.52 1257.91 1632.71 1257.91 Q1626.9 1257.91 1623.82 1253.33 Q1620.76 1248.72 1620.76 1240 Q1620.76 1231.25 1623.82 1226.66 Q1626.9 1222.06 1632.71 1222.06 Z" fill="#000000" fill-rule="nonzero" fill-opacity="1" /><path clip-path="url(#clip990)" d="M1677.36 1177.3 Q1680.72 1178.02 1682.6 1180.29 Q1684.49 1182.56 1684.49 1185.89 Q1684.49 1191 1680.98 1193.81 Q1677.46 1196.61 1670.98 1196.61 Q1668.8 1196.61 1666.48 1196.17 Q1664.19 1195.75 1661.74 1194.89 L1661.74 1190.38 Q1663.68 1191.51 1666 1192.09 Q1668.31 1192.67 1670.84 1192.67 Q1675.23 1192.67 1677.53 1190.93 Q1679.84 1189.2 1679.84 1185.89 Q1679.84 1182.83 1677.69 1181.12 Q1675.56 1179.38 1671.74 1179.38 L1667.71 1179.38 L1667.71 1175.54 L1671.92 1175.54 Q1675.37 1175.54 1677.2 1174.18 Q1679.03 1172.79 1679.03 1170.19 Q1679.03 1167.53 1677.13 1166.12 Q1675.26 1164.68 1671.74 1164.68 Q1669.82 1164.68 1667.62 1165.1 Q1665.42 1165.52 1662.78 1166.4 L1662.78 1162.23 Q1665.44 1161.49 1667.76 1161.12 Q1670.1 1160.75 1672.16 1160.75 Q1677.48 1160.75 1680.58 1163.18 Q1683.68 1165.59 1683.68 1169.71 Q1683.68 1172.58 1682.04 1174.57 Q1680.4 1176.54 1677.36 1177.3 Z" fill="#000000" fill-rule="nonzero" fill-opacity="1" /><path clip-path="url(#clip990)" d="M1703.36 1164.45 Q1699.75 1164.45 1697.92 1168.02 Q1696.11 1171.56 1696.11 1178.69 Q1696.11 1185.8 1697.92 1189.36 Q1699.75 1192.9 1703.36 1192.9 Q1706.99 1192.9 1708.8 1189.36 Q1710.63 1185.8 1710.63 1178.69 Q1710.63 1171.56 1708.8 1168.02 Q1706.99 1164.45 1703.36 1164.45 M1703.36 1160.75 Q1709.17 1160.75 1712.23 1165.36 Q1715.3 1169.94 1715.3 1178.69 Q1715.3 1187.42 1712.23 1192.02 Q1709.17 1196.61 1703.36 1196.61 Q1697.55 1196.61 1694.47 1192.02 Q1691.42 1187.42 1691.42 1178.69 Q1691.42 1169.94 1694.47 1165.36 Q1697.55 1160.75 1703.36 1160.75 Z" fill="#000000" fill-rule="nonzero" fill-opacity="1" /><path clip-path="url(#clip990)" d="M1748.13 1104.14 L1736.33 1122.59 L1748.13 1122.59 L1748.13 1104.14 M1746.91 1100.07 L1752.79 1100.07 L1752.79 1122.59 L1757.72 1122.59 L1757.72 1126.48 L1752.79 1126.48 L1752.79 1134.63 L1748.13 1134.63 L1748.13 1126.48 L1732.53 1126.48 L1732.53 1121.97 L1746.91 1100.07 Z" fill="#000000" fill-rule="nonzero" fill-opacity="1" /><path clip-path="url(#clip990)" d="M1775.45 1103.15 Q1771.84 1103.15 1770.01 1106.71 Q1768.2 1110.25 1768.2 1117.38 Q1768.2 1124.49 1770.01 1128.05 Q1771.84 1131.6 1775.45 1131.6 Q1779.08 1131.6 1780.89 1128.05 Q1782.72 1124.49 1782.72 1117.38 Q1782.72 1110.25 1780.89 1106.71 Q1779.08 1103.15 1775.45 1103.15 M1775.45 1099.44 Q1781.26 1099.44 1784.31 1104.05 Q1787.39 1108.63 1787.39 1117.38 Q1787.39 1126.11 1784.31 1130.72 Q1781.26 1135.3 1775.45 1135.3 Q1769.64 1135.3 1766.56 1130.72 Q1763.5 1126.11 1763.5 1117.38 Q1763.5 1108.63 1766.56 1104.05 Q1769.64 1099.44 1775.45 1099.44 Z" fill="#000000" fill-rule="nonzero" fill-opacity="1" /><path clip-path="url(#clip990)" d="M1804.78 1038.76 L1823.14 1038.76 L1823.14 1042.7 L1809.06 1042.7 L1809.06 1051.17 Q1810.08 1050.82 1811.1 1050.66 Q1812.12 1050.47 1813.14 1050.47 Q1818.92 1050.47 1822.3 1053.65 Q1825.68 1056.82 1825.68 1062.23 Q1825.68 1067.81 1822.21 1070.91 Q1818.74 1073.99 1812.42 1073.99 Q1810.24 1073.99 1807.97 1073.62 Q1805.73 1073.25 1803.32 1072.51 L1803.32 1067.81 Q1805.41 1068.95 1807.63 1069.5 Q1809.85 1070.06 1812.33 1070.06 Q1816.33 1070.06 1818.67 1067.95 Q1821.01 1065.84 1821.01 1062.23 Q1821.01 1058.62 1818.67 1056.52 Q1816.33 1054.41 1812.33 1054.41 Q1810.45 1054.41 1808.58 1054.83 Q1806.72 1055.24 1804.78 1056.12 L1804.78 1038.76 Z" fill="#000000" fill-rule="nonzero" fill-opacity="1" /><path clip-path="url(#clip990)" d="M1844.9 1041.84 Q1841.28 1041.84 1839.46 1045.4 Q1837.65 1048.95 1837.65 1056.08 Q1837.65 1063.18 1839.46 1066.75 Q1841.28 1070.29 1844.9 1070.29 Q1848.53 1070.29 1850.34 1066.75 Q1852.16 1063.18 1852.16 1056.08 Q1852.16 1048.95 1850.34 1045.4 Q1848.53 1041.84 1844.9 1041.84 M1844.9 1038.14 Q1850.71 1038.14 1853.76 1042.74 Q1856.84 1047.33 1856.84 1056.08 Q1856.84 1064.8 1853.76 1069.41 Q1850.71 1073.99 1844.9 1073.99 Q1839.09 1073.99 1836.01 1069.41 Q1832.95 1064.8 1832.95 1056.08 Q1832.95 1047.33 1836.01 1042.74 Q1839.09 1038.14 1844.9 1038.14 Z" fill="#000000" fill-rule="nonzero" fill-opacity="1" /><path clip-path="url(#clip990)" d="M1647.81 1349.92 Q1649.87 1350.62 1651.82 1352.91 Q1653.79 1355.2 1655.76 1359.21 L1662.29 1372.2 L1655.38 1372.2 L1649.3 1360 Q1646.95 1355.23 1644.72 1353.67 Q1642.52 1352.11 1638.7 1352.11 L1631.7 1352.11 L1631.7 1372.2 L1625.27 1372.2 L1625.27 1324.68 L1639.79 1324.68 Q1647.93 1324.68 1651.94 1328.08 Q1655.95 1331.49 1655.95 1338.36 Q1655.95 1342.85 1653.85 1345.81 Q1651.78 1348.77 1647.81 1349.92 M1631.7 1329.96 L1631.7 1346.83 L1639.79 1346.83 Q1644.43 1346.83 1646.79 1344.7 Q1649.17 1342.53 1649.17 1338.36 Q1649.17 1334.19 1646.79 1332.09 Q1644.43 1329.96 1639.79 1329.96 L1631.7 1329.96 Z" fill="#000000" fill-rule="nonzero" fill-opacity="1" /><path clip-path="url(#clip990)" d="M1685.08 1354.28 Q1677.98 1354.28 1675.24 1355.9 Q1672.51 1357.52 1672.51 1361.44 Q1672.51 1364.56 1674.54 1366.4 Q1676.61 1368.22 1680.14 1368.22 Q1685.01 1368.22 1687.94 1364.78 Q1690.9 1361.31 1690.9 1355.58 L1690.9 1354.28 L1685.08 1354.28 M1696.76 1351.86 L1696.76 1372.2 L1690.9 1372.2 L1690.9 1366.78 Q1688.9 1370.03 1685.9 1371.59 Q1682.91 1373.12 1678.58 1373.12 Q1673.11 1373.12 1669.86 1370.06 Q1666.65 1366.98 1666.65 1361.82 Q1666.65 1355.8 1670.66 1352.75 Q1674.7 1349.69 1682.69 1349.69 L1690.9 1349.69 L1690.9 1349.12 Q1690.9 1345.08 1688.23 1342.88 Q1685.59 1340.65 1680.78 1340.65 Q1677.72 1340.65 1674.83 1341.39 Q1671.93 1342.12 1669.26 1343.58 L1669.26 1338.17 Q1672.47 1336.93 1675.5 1336.32 Q1678.52 1335.69 1681.39 1335.69 Q1689.12 1335.69 1692.94 1339.7 Q1696.76 1343.71 1696.76 1351.86 Z" fill="#000000" fill-rule="nonzero" fill-opacity="1" /><path clip-path="url(#clip990)" d="M1734.41 1354.4 Q1734.41 1347.94 1731.74 1344.28 Q1729.1 1340.59 1724.45 1340.59 Q1719.8 1340.59 1717.13 1344.28 Q1714.49 1347.94 1714.49 1354.4 Q1714.49 1360.86 1717.13 1364.56 Q1719.8 1368.22 1724.45 1368.22 Q1729.1 1368.22 1731.74 1364.56 Q1734.41 1360.86 1734.41 1354.4 M1714.49 1341.96 Q1716.33 1338.78 1719.13 1337.25 Q1721.97 1335.69 1725.88 1335.69 Q1732.37 1335.69 1736.42 1340.84 Q1740.49 1346 1740.49 1354.4 Q1740.49 1362.81 1736.42 1367.96 Q1732.37 1373.12 1725.88 1373.12 Q1721.97 1373.12 1719.13 1371.59 Q1716.33 1370.03 1714.49 1366.85 L1714.49 1372.2 L1708.6 1372.2 L1708.6 1322.67 L1714.49 1322.67 L1714.49 1341.96 Z" fill="#000000" fill-rule="nonzero" fill-opacity="1" /><path clip-path="url(#clip990)" d="M1775.79 1354.4 Q1775.79 1347.94 1773.12 1344.28 Q1770.47 1340.59 1765.83 1340.59 Q1761.18 1340.59 1758.51 1344.28 Q1755.86 1347.94 1755.86 1354.4 Q1755.86 1360.86 1758.51 1364.56 Q1761.18 1368.22 1765.83 1368.22 Q1770.47 1368.22 1773.12 1364.56 Q1775.79 1360.86 1775.79 1354.4 M1755.86 1341.96 Q1757.71 1338.78 1760.51 1337.25 Q1763.34 1335.69 1767.26 1335.69 Q1773.75 1335.69 1777.79 1340.84 Q1781.87 1346 1781.87 1354.4 Q1781.87 1362.81 1777.79 1367.96 Q1773.75 1373.12 1767.26 1373.12 Q1763.34 1373.12 1760.51 1371.59 Q1757.71 1370.03 1755.86 1366.85 L1755.86 1372.2 L1749.98 1372.2 L1749.98 1322.67 L1755.86 1322.67 L1755.86 1341.96 Z" fill="#000000" fill-rule="nonzero" fill-opacity="1" /><path clip-path="url(#clip990)" d="M1791.58 1336.55 L1797.43 1336.55 L1797.43 1372.2 L1791.58 1372.2 L1791.58 1336.55 M1791.58 1322.67 L1797.43 1322.67 L1797.43 1330.09 L1791.58 1330.09 L1791.58 1322.67 Z" fill="#000000" fill-rule="nonzero" fill-opacity="1" /><path clip-path="url(#clip990)" d="M1815.48 1326.43 L1815.48 1336.55 L1827.54 1336.55 L1827.54 1341.1 L1815.48 1341.1 L1815.48 1360.45 Q1815.48 1364.81 1816.66 1366.05 Q1817.87 1367.29 1821.53 1367.29 L1827.54 1367.29 L1827.54 1372.2 L1821.53 1372.2 Q1814.75 1372.2 1812.17 1369.68 Q1809.59 1367.13 1809.59 1360.45 L1809.59 1341.1 L1805.29 1341.1 L1805.29 1336.55 L1809.59 1336.55 L1809.59 1326.43 L1815.48 1326.43 Z" fill="#000000" fill-rule="nonzero" fill-opacity="1" /><polyline clip-path="url(#clip992)" style="stroke:#000000; stroke-linecap:round; stroke-linejoin:round; stroke-width:2; stroke-opacity:0.1; fill:none" points="765.836,1148.53 1141.03,823.599 1790.88,1011.2 "/>
<polyline clip-path="url(#clip992)" style="stroke:#000000; stroke-linecap:round; stroke-linejoin:round; stroke-width:2; stroke-opacity:0.1; fill:none" points="765.836,995.259 1141.03,670.332 1790.88,857.928 "/>
<polyline clip-path="url(#clip992)" style="stroke:#000000; stroke-linecap:round; stroke-linejoin:round; stroke-width:2; stroke-opacity:0.1; fill:none" points="765.836,841.991 1141.03,517.064 1790.88,704.661 "/>
<polyline clip-path="url(#clip992)" style="stroke:#000000; stroke-linecap:round; stroke-linejoin:round; stroke-width:2; stroke-opacity:0.1; fill:none" points="765.836,688.724 1141.03,363.797 1790.88,551.393 "/>
<polyline clip-path="url(#clip992)" style="stroke:#000000; stroke-linecap:round; stroke-linejoin:round; stroke-width:2; stroke-opacity:0.1; fill:none" points="765.836,535.456 1141.03,210.529 1790.88,398.126 "/>
<polyline clip-path="url(#clip990)" style="stroke:#000000; stroke-linecap:round; stroke-linejoin:round; stroke-width:4; stroke-opacity:1; fill:none" points="765.836,1166.92 765.836,517.064 "/>
<polyline clip-path="url(#clip990)" style="stroke:#000000; stroke-linecap:round; stroke-linejoin:round; stroke-width:4; stroke-opacity:1; fill:none" points="765.836,1148.53 770.338,1144.63 "/>
<polyline clip-path="url(#clip990)" style="stroke:#000000; stroke-linecap:round; stroke-linejoin:round; stroke-width:4; stroke-opacity:1; fill:none" points="765.836,995.259 770.338,991.359 "/>
<polyline clip-path="url(#clip990)" style="stroke:#000000; stroke-linecap:round; stroke-linejoin:round; stroke-width:4; stroke-opacity:1; fill:none" points="765.836,841.991 770.338,838.092 "/>
<polyline clip-path="url(#clip990)" style="stroke:#000000; stroke-linecap:round; stroke-linejoin:round; stroke-width:4; stroke-opacity:1; fill:none" points="765.836,688.724 770.338,684.825 "/>
<polyline clip-path="url(#clip990)" style="stroke:#000000; stroke-linecap:round; stroke-linejoin:round; stroke-width:4; stroke-opacity:1; fill:none" points="765.836,535.456 770.338,531.557 "/>
<path clip-path="url(#clip990)" d="M725.092 1134.32 Q721.481 1134.32 719.652 1137.89 Q717.846 1141.43 717.846 1148.56 Q717.846 1155.67 719.652 1159.23 Q721.481 1162.77 725.092 1162.77 Q728.726 1162.77 730.532 1159.23 Q732.36 1155.67 732.36 1148.56 Q732.36 1141.43 730.532 1137.89 Q728.726 1134.32 725.092 1134.32 M725.092 1130.62 Q730.902 1130.62 733.957 1135.23 Q737.036 1139.81 737.036 1148.56 Q737.036 1157.29 733.957 1161.89 Q730.902 1166.48 725.092 1166.48 Q719.282 1166.48 716.203 1161.89 Q713.147 1157.29 713.147 1148.56 Q713.147 1139.81 716.203 1135.23 Q719.282 1130.62 725.092 1130.62 Z" fill="#000000" fill-rule="nonzero" fill-opacity="1" /><path clip-path="url(#clip990)" d="M716.133 977.979 L734.49 977.979 L734.49 981.914 L720.416 981.914 L720.416 990.386 Q721.434 990.039 722.453 989.877 Q723.471 989.691 724.49 989.691 Q730.277 989.691 733.657 992.863 Q737.036 996.034 737.036 1001.45 Q737.036 1007.03 733.564 1010.13 Q730.092 1013.21 723.772 1013.21 Q721.596 1013.21 719.328 1012.84 Q717.083 1012.47 714.675 1011.73 L714.675 1007.03 Q716.758 1008.16 718.981 1008.72 Q721.203 1009.27 723.68 1009.27 Q727.684 1009.27 730.022 1007.17 Q732.36 1005.06 732.36 1001.45 Q732.36 997.84 730.022 995.733 Q727.684 993.627 723.68 993.627 Q721.805 993.627 719.93 994.043 Q718.078 994.46 716.133 995.34 L716.133 977.979 Z" fill="#000000" fill-rule="nonzero" fill-opacity="1" /><path clip-path="url(#clip990)" d="M685.74 855.336 L693.379 855.336 L693.379 828.97 L685.069 830.637 L685.069 826.378 L693.333 824.711 L698.009 824.711 L698.009 855.336 L705.647 855.336 L705.647 859.271 L685.74 859.271 L685.74 855.336 Z" fill="#000000" fill-rule="nonzero" fill-opacity="1" /><path clip-path="url(#clip990)" d="M725.092 827.79 Q721.481 827.79 719.652 831.355 Q717.846 834.896 717.846 842.026 Q717.846 849.132 719.652 852.697 Q721.481 856.239 725.092 856.239 Q728.726 856.239 730.532 852.697 Q732.36 849.132 732.36 842.026 Q732.36 834.896 730.532 831.355 Q728.726 827.79 725.092 827.79 M725.092 824.086 Q730.902 824.086 733.957 828.693 Q737.036 833.276 737.036 842.026 Q737.036 850.753 733.957 855.359 Q730.902 859.942 725.092 859.942 Q719.282 859.942 716.203 855.359 Q713.147 850.753 713.147 842.026 Q713.147 833.276 716.203 828.693 Q719.282 824.086 725.092 824.086 Z" fill="#000000" fill-rule="nonzero" fill-opacity="1" /><path clip-path="url(#clip990)" d="M686.736 702.069 L694.374 702.069 L694.374 675.703 L686.064 677.37 L686.064 673.11 L694.328 671.444 L699.004 671.444 L699.004 702.069 L706.643 702.069 L706.643 706.004 L686.736 706.004 L686.736 702.069 Z" fill="#000000" fill-rule="nonzero" fill-opacity="1" /><path clip-path="url(#clip990)" d="M716.133 671.444 L734.49 671.444 L734.49 675.379 L720.416 675.379 L720.416 683.851 Q721.434 683.504 722.453 683.342 Q723.471 683.157 724.49 683.157 Q730.277 683.157 733.657 686.328 Q737.036 689.499 737.036 694.916 Q737.036 700.494 733.564 703.596 Q730.092 706.675 723.772 706.675 Q721.596 706.675 719.328 706.305 Q717.083 705.934 714.675 705.194 L714.675 700.494 Q716.758 701.629 718.981 702.184 Q721.203 702.74 723.68 702.74 Q727.684 702.74 730.022 700.633 Q732.36 698.527 732.36 694.916 Q732.36 691.305 730.022 689.198 Q727.684 687.092 723.68 687.092 Q721.805 687.092 719.93 687.508 Q718.078 687.925 716.133 688.805 L716.133 671.444 Z" fill="#000000" fill-rule="nonzero" fill-opacity="1" /><path clip-path="url(#clip990)" d="M688.958 548.801 L705.277 548.801 L705.277 552.736 L683.333 552.736 L683.333 548.801 Q685.995 546.047 690.578 541.417 Q695.185 536.764 696.365 535.422 Q698.61 532.898 699.49 531.162 Q700.393 529.403 700.393 527.713 Q700.393 524.959 698.448 523.223 Q696.527 521.486 693.425 521.486 Q691.226 521.486 688.773 522.25 Q686.342 523.014 683.564 524.565 L683.564 519.843 Q686.388 518.709 688.842 518.13 Q691.296 517.551 693.333 517.551 Q698.703 517.551 701.897 520.236 Q705.092 522.922 705.092 527.412 Q705.092 529.542 704.282 531.463 Q703.495 533.361 701.388 535.954 Q700.81 536.625 697.708 539.843 Q694.606 543.037 688.958 548.801 Z" fill="#000000" fill-rule="nonzero" fill-opacity="1" /><path clip-path="url(#clip990)" d="M725.092 521.255 Q721.481 521.255 719.652 524.82 Q717.846 528.361 717.846 535.491 Q717.846 542.597 719.652 546.162 Q721.481 549.704 725.092 549.704 Q728.726 549.704 730.532 546.162 Q732.36 542.597 732.36 535.491 Q732.36 528.361 730.532 524.82 Q728.726 521.255 725.092 521.255 M725.092 517.551 Q730.902 517.551 733.957 522.158 Q737.036 526.741 737.036 535.491 Q737.036 544.218 733.957 548.824 Q730.902 553.408 725.092 553.408 Q719.282 553.408 716.203 548.824 Q713.147 544.218 713.147 535.491 Q713.147 526.741 716.203 522.158 Q719.282 517.551 725.092 517.551 Z" fill="#000000" fill-rule="nonzero" fill-opacity="1" /><path clip-path="url(#clip990)" d="M619.097 896.02 L606.334 896.02 L606.334 906.523 L601.05 906.523 L601.05 889.654 L621.453 889.654 Q624.094 893.378 625.463 897.866 Q626.8 902.354 626.8 907.447 Q626.8 918.586 620.307 924.889 Q613.782 931.159 602.164 931.159 Q590.515 931.159 584.022 924.889 Q577.497 918.586 577.497 907.447 Q577.497 902.8 578.643 898.63 Q579.789 894.429 582.017 890.896 L588.86 890.896 Q585.836 894.46 584.309 898.471 Q582.781 902.481 582.781 906.905 Q582.781 915.626 587.651 920.019 Q592.52 924.379 602.164 924.379 Q611.777 924.379 616.646 920.019 Q621.516 915.626 621.516 906.905 Q621.516 903.5 620.943 900.826 Q620.339 898.153 619.097 896.02 Z" fill="#000000" fill-rule="nonzero" fill-opacity="1" /><path clip-path="url(#clip990)" d="M595.703 857.508 Q595.13 858.494 594.876 859.672 Q594.589 860.818 594.589 862.218 Q594.589 867.183 597.836 869.857 Q601.05 872.499 607.098 872.499 L625.877 872.499 L625.877 878.387 L590.229 878.387 L590.229 872.499 L595.767 872.499 Q592.52 870.653 590.961 867.693 Q589.369 864.733 589.369 860.499 Q589.369 859.895 589.465 859.163 Q589.529 858.431 589.688 857.539 L595.703 857.508 Z" fill="#000000" fill-rule="nonzero" fill-opacity="1" /><path clip-path="url(#clip990)" d="M607.957 835.164 Q607.957 842.262 609.581 844.999 Q611.204 847.736 615.119 847.736 Q618.238 847.736 620.084 845.699 Q621.898 843.63 621.898 840.097 Q621.898 835.228 618.461 832.299 Q614.991 829.339 609.262 829.339 L607.957 829.339 L607.957 835.164 M605.538 823.483 L625.877 823.483 L625.877 829.339 L620.466 829.339 Q623.712 831.344 625.272 834.336 Q626.8 837.328 626.8 841.657 Q626.8 847.131 623.744 850.378 Q620.657 853.593 615.501 853.593 Q609.485 853.593 606.43 849.582 Q603.374 845.54 603.374 837.551 L603.374 829.339 L602.801 829.339 Q598.759 829.339 596.563 832.013 Q594.335 834.655 594.335 839.461 Q594.335 842.516 595.067 845.413 Q595.799 848.309 597.263 850.983 L591.852 850.983 Q590.611 847.768 590.006 844.744 Q589.369 841.721 589.369 838.856 Q589.369 831.122 593.38 827.302 Q597.39 823.483 605.538 823.483 Z" fill="#000000" fill-rule="nonzero" fill-opacity="1" /><path clip-path="url(#clip990)" d="M591.279 788.694 L596.817 788.694 Q595.544 791.177 594.908 793.85 Q594.271 796.524 594.271 799.389 Q594.271 803.749 595.608 805.945 Q596.945 808.11 599.618 808.11 Q601.655 808.11 602.833 806.55 Q603.979 804.99 605.029 800.28 L605.475 798.275 Q606.811 792.036 609.262 789.426 Q611.681 786.785 616.042 786.785 Q621.007 786.785 623.903 790.731 Q626.8 794.646 626.8 801.521 Q626.8 804.386 626.227 807.505 Q625.686 810.592 624.572 814.03 L618.524 814.03 Q620.211 810.783 621.071 807.632 Q621.898 804.481 621.898 801.394 Q621.898 797.256 620.498 795.028 Q619.065 792.8 616.487 792.8 Q614.1 792.8 612.827 794.423 Q611.554 796.015 610.376 801.457 L609.899 803.495 Q608.753 808.937 606.398 811.356 Q604.011 813.775 599.873 813.775 Q594.844 813.775 592.107 810.21 Q589.369 806.646 589.369 800.089 Q589.369 796.842 589.847 793.978 Q590.324 791.113 591.279 788.694 Z" fill="#000000" fill-rule="nonzero" fill-opacity="1" /><path clip-path="url(#clip990)" d="M591.279 754.733 L596.817 754.733 Q595.544 757.216 594.908 759.889 Q594.271 762.563 594.271 765.428 Q594.271 769.788 595.608 771.984 Q596.945 774.149 599.618 774.149 Q601.655 774.149 602.833 772.589 Q603.979 771.029 605.029 766.319 L605.475 764.314 Q606.811 758.075 609.262 755.465 Q611.681 752.823 616.042 752.823 Q621.007 752.823 623.903 756.77 Q626.8 760.685 626.8 767.56 Q626.8 770.425 626.227 773.544 Q625.686 776.631 624.572 780.069 L618.524 780.069 Q620.211 776.822 621.071 773.671 Q621.898 770.52 621.898 767.433 Q621.898 763.295 620.498 761.067 Q619.065 758.839 616.487 758.839 Q614.1 758.839 612.827 760.462 Q611.554 762.054 610.376 767.496 L609.899 769.533 Q608.753 774.976 606.398 777.395 Q604.011 779.814 599.873 779.814 Q594.844 779.814 592.107 776.249 Q589.369 772.684 589.369 766.128 Q589.369 762.881 589.847 760.017 Q590.324 757.152 591.279 754.733 Z" fill="#000000" fill-rule="nonzero" fill-opacity="1" /><path clip-path="url(#clip990)" d="M655.331 18.8205 L655.331 41.5461 L665.62 41.5461 Q671.332 41.5461 674.451 38.5889 Q677.57 35.6318 677.57 30.163 Q677.57 24.7348 674.451 21.7777 Q671.332 18.8205 665.62 18.8205 L655.331 18.8205 M647.148 12.096 L665.62 12.096 Q675.788 12.096 680.973 16.714 Q686.199 21.2916 686.199 30.163 Q686.199 39.1155 680.973 43.6931 Q675.788 48.2706 665.62 48.2706 L655.331 48.2706 L655.331 72.576 L647.148 72.576 L647.148 12.096 Z" fill="#000000" fill-rule="nonzero" fill-opacity="1" /><path clip-path="url(#clip990)" d="M721.684 34.1734 Q720.429 33.4443 718.93 33.1202 Q717.472 32.7556 715.689 32.7556 Q709.37 32.7556 705.967 36.8875 Q702.605 40.9789 702.605 48.6757 L702.605 72.576 L695.111 72.576 L695.111 27.2059 L702.605 27.2059 L702.605 34.2544 Q704.954 30.1225 708.722 28.1376 Q712.489 26.1121 717.877 26.1121 Q718.646 26.1121 719.578 26.2337 Q720.51 26.3147 721.644 26.5172 L721.684 34.1734 Z" fill="#000000" fill-rule="nonzero" fill-opacity="1" /><path clip-path="url(#clip990)" d="M766.487 48.0275 L766.487 51.6733 L732.217 51.6733 Q732.703 59.3701 736.835 63.421 Q741.007 67.4314 748.42 67.4314 Q752.714 67.4314 756.725 66.3781 Q760.776 65.3249 764.746 63.2184 L764.746 70.267 Q760.735 71.9684 756.522 72.8596 Q752.309 73.7508 747.975 73.7508 Q737.118 73.7508 730.759 67.4314 Q724.439 61.1119 724.439 50.3365 Q724.439 39.1965 730.434 32.6746 Q736.47 26.1121 746.679 26.1121 Q755.834 26.1121 761.14 32.0264 Q766.487 37.9003 766.487 48.0275 M759.034 45.84 Q758.953 39.7232 755.591 36.0774 Q752.269 32.4315 746.76 32.4315 Q740.521 32.4315 736.754 35.9558 Q733.027 39.4801 732.46 45.8805 L759.034 45.84 Z" fill="#000000" fill-rule="nonzero" fill-opacity="1" /><path clip-path="url(#clip990)" d="M808.576 34.0924 L808.576 9.54393 L816.03 9.54393 L816.03 72.576 L808.576 72.576 L808.576 65.7705 Q806.227 69.8214 802.622 71.8063 Q799.057 73.7508 794.034 73.7508 Q785.81 73.7508 780.625 67.1883 Q775.48 60.6258 775.48 49.9314 Q775.48 39.2371 780.625 32.6746 Q785.81 26.1121 794.034 26.1121 Q799.057 26.1121 802.622 28.0971 Q806.227 30.0415 808.576 34.0924 M783.177 49.9314 Q783.177 58.1548 786.539 62.8538 Q789.942 67.5124 795.857 67.5124 Q801.771 67.5124 805.174 62.8538 Q808.576 58.1548 808.576 49.9314 Q808.576 41.7081 805.174 37.0496 Q801.771 32.3505 795.857 32.3505 Q789.942 32.3505 786.539 37.0496 Q783.177 41.7081 783.177 49.9314 Z" fill="#000000" fill-rule="nonzero" fill-opacity="1" /><path clip-path="url(#clip990)" d="M852.002 49.7694 Q842.969 49.7694 839.485 51.8354 Q836.001 53.9013 836.001 58.8839 Q836.001 62.8538 838.594 65.2034 Q841.227 67.5124 845.723 67.5124 Q851.921 67.5124 855.648 63.1374 Q859.415 58.7219 859.415 51.4303 L859.415 49.7694 L852.002 49.7694 M866.869 46.6907 L866.869 72.576 L859.415 72.576 L859.415 65.6895 Q856.863 69.8214 853.055 71.8063 Q849.247 73.7508 843.738 73.7508 Q836.771 73.7508 832.639 69.8619 Q828.547 65.9325 828.547 59.3701 Q828.547 51.7138 833.651 47.825 Q838.796 43.9361 848.964 43.9361 L859.415 43.9361 L859.415 43.2069 Q859.415 38.0623 856.012 35.2672 Q852.65 32.4315 846.533 32.4315 Q842.644 32.4315 838.958 33.3632 Q835.272 34.295 831.869 36.1584 L831.869 29.2718 Q835.96 27.692 839.809 26.9223 Q843.657 26.1121 847.303 26.1121 Q857.147 26.1121 862.008 31.2163 Q866.869 36.3204 866.869 46.6907 Z" fill="#000000" fill-rule="nonzero" fill-opacity="1" /><path clip-path="url(#clip990)" d="M889.594 14.324 L889.594 27.2059 L904.947 27.2059 L904.947 32.9987 L889.594 32.9987 L889.594 57.6282 Q889.594 63.1779 891.093 64.7578 Q892.633 66.3376 897.291 66.3376 L904.947 66.3376 L904.947 72.576 L897.291 72.576 Q888.663 72.576 885.382 69.3758 Q882.1 66.1351 882.1 57.6282 L882.1 32.9987 L876.632 32.9987 L876.632 27.2059 L882.1 27.2059 L882.1 14.324 L889.594 14.324 Z" fill="#000000" fill-rule="nonzero" fill-opacity="1" /><path clip-path="url(#clip990)" d="M932.332 32.4315 Q926.336 32.4315 922.852 37.1306 Q919.369 41.7891 919.369 49.9314 Q919.369 58.0738 922.812 62.7728 Q926.296 67.4314 932.332 67.4314 Q938.286 67.4314 941.77 62.7323 Q945.254 58.0333 945.254 49.9314 Q945.254 41.8701 941.77 37.1711 Q938.286 32.4315 932.332 32.4315 M932.332 26.1121 Q942.054 26.1121 947.603 32.4315 Q953.153 38.7509 953.153 49.9314 Q953.153 61.0714 947.603 67.4314 Q942.054 73.7508 932.332 73.7508 Q922.569 73.7508 917.019 67.4314 Q911.51 61.0714 911.51 49.9314 Q911.51 38.7509 917.019 32.4315 Q922.569 26.1121 932.332 26.1121 Z" fill="#000000" fill-rule="nonzero" fill-opacity="1" /><path clip-path="url(#clip990)" d="M991.799 34.1734 Q990.543 33.4443 989.044 33.1202 Q987.586 32.7556 985.803 32.7556 Q979.484 32.7556 976.081 36.8875 Q972.719 40.9789 972.719 48.6757 L972.719 72.576 L965.225 72.576 L965.225 27.2059 L972.719 27.2059 L972.719 34.2544 Q975.069 30.1225 978.836 28.1376 Q982.603 26.1121 987.991 26.1121 Q988.761 26.1121 989.692 26.2337 Q990.624 26.3147 991.758 26.5172 L991.799 34.1734 Z" fill="#000000" fill-rule="nonzero" fill-opacity="1" /><path clip-path="url(#clip990)" d="M990.543 46.5287 L1012.38 46.5287 L1012.38 53.1722 L990.543 53.1722 L990.543 46.5287 Z" fill="#000000" fill-rule="nonzero" fill-opacity="1" /><path clip-path="url(#clip990)" d="M1032.75 18.8205 L1032.75 41.5461 L1043.04 41.5461 Q1048.75 41.5461 1051.87 38.5889 Q1054.99 35.6318 1054.99 30.163 Q1054.99 24.7348 1051.87 21.7777 Q1048.75 18.8205 1043.04 18.8205 L1032.75 18.8205 M1024.57 12.096 L1043.04 12.096 Q1053.21 12.096 1058.4 16.714 Q1063.62 21.2916 1063.62 30.163 Q1063.62 39.1155 1058.4 43.6931 Q1053.21 48.2706 1043.04 48.2706 L1032.75 48.2706 L1032.75 72.576 L1024.57 72.576 L1024.57 12.096 Z" fill="#000000" fill-rule="nonzero" fill-opacity="1" /><path clip-path="url(#clip990)" d="M1099.11 34.1734 Q1097.85 33.4443 1096.35 33.1202 Q1094.89 32.7556 1093.11 32.7556 Q1086.79 32.7556 1083.39 36.8875 Q1080.03 40.9789 1080.03 48.6757 L1080.03 72.576 L1072.53 72.576 L1072.53 27.2059 L1080.03 27.2059 L1080.03 34.2544 Q1082.38 30.1225 1086.14 28.1376 Q1089.91 26.1121 1095.3 26.1121 Q1096.07 26.1121 1097 26.2337 Q1097.93 26.3147 1099.07 26.5172 L1099.11 34.1734 Z" fill="#000000" fill-rule="nonzero" fill-opacity="1" /><path clip-path="url(#clip990)" d="M1143.91 48.0275 L1143.91 51.6733 L1109.64 51.6733 Q1110.13 59.3701 1114.26 63.421 Q1118.43 67.4314 1125.84 67.4314 Q1130.14 67.4314 1134.15 66.3781 Q1138.2 65.3249 1142.17 63.2184 L1142.17 70.267 Q1138.16 71.9684 1133.95 72.8596 Q1129.73 73.7508 1125.4 73.7508 Q1114.54 73.7508 1108.18 67.4314 Q1101.86 61.1119 1101.86 50.3365 Q1101.86 39.1965 1107.86 32.6746 Q1113.89 26.1121 1124.1 26.1121 Q1133.26 26.1121 1138.56 32.0264 Q1143.91 37.9003 1143.91 48.0275 M1136.46 45.84 Q1136.38 39.7232 1133.01 36.0774 Q1129.69 32.4315 1124.18 32.4315 Q1117.94 32.4315 1114.18 35.9558 Q1110.45 39.4801 1109.88 45.8805 L1136.46 45.84 Z" fill="#000000" fill-rule="nonzero" fill-opacity="1" /><path clip-path="url(#clip990)" d="M1175.02 76.7889 Q1171.86 84.8907 1168.86 87.3618 Q1165.87 89.8329 1160.84 89.8329 L1154.89 89.8329 L1154.89 83.5945 L1159.26 83.5945 Q1162.34 83.5945 1164.04 82.1361 Q1165.74 80.6778 1167.81 75.2496 L1169.15 71.8468 L1150.8 27.2059 L1158.7 27.2059 L1172.87 62.6918 L1187.05 27.2059 L1194.95 27.2059 L1175.02 76.7889 Z" fill="#000000" fill-rule="nonzero" fill-opacity="1" /><path clip-path="url(#clip990)" d="M1200.02 46.5287 L1221.85 46.5287 L1221.85 53.1722 L1200.02 53.1722 L1200.02 46.5287 Z" fill="#000000" fill-rule="nonzero" fill-opacity="1" /><path clip-path="url(#clip990)" d="M1242.23 18.8205 L1242.23 41.5461 L1252.51 41.5461 Q1258.23 41.5461 1261.35 38.5889 Q1264.47 35.6318 1264.47 30.163 Q1264.47 24.7348 1261.35 21.7777 Q1258.23 18.8205 1252.51 18.8205 L1242.23 18.8205 M1234.04 12.096 L1252.51 12.096 Q1262.68 12.096 1267.87 16.714 Q1273.09 21.2916 1273.09 30.163 Q1273.09 39.1155 1267.87 43.6931 Q1262.68 48.2706 1252.51 48.2706 L1242.23 48.2706 L1242.23 72.576 L1234.04 72.576 L1234.04 12.096 Z" fill="#000000" fill-rule="nonzero" fill-opacity="1" /><path clip-path="url(#clip990)" d="M1283.75 9.54393 L1291.2 9.54393 L1291.2 72.576 L1283.75 72.576 L1283.75 9.54393 Z" fill="#000000" fill-rule="nonzero" fill-opacity="1" /><path clip-path="url(#clip990)" d="M1327.42 49.7694 Q1318.38 49.7694 1314.9 51.8354 Q1311.42 53.9013 1311.42 58.8839 Q1311.42 62.8538 1314.01 65.2034 Q1316.64 67.5124 1321.14 67.5124 Q1327.34 67.5124 1331.06 63.1374 Q1334.83 58.7219 1334.83 51.4303 L1334.83 49.7694 L1327.42 49.7694 M1342.28 46.6907 L1342.28 72.576 L1334.83 72.576 L1334.83 65.6895 Q1332.28 69.8214 1328.47 71.8063 Q1324.66 73.7508 1319.15 73.7508 Q1312.18 73.7508 1308.05 69.8619 Q1303.96 65.9325 1303.96 59.3701 Q1303.96 51.7138 1309.07 47.825 Q1314.21 43.9361 1324.38 43.9361 L1334.83 43.9361 L1334.83 43.2069 Q1334.83 38.0623 1331.43 35.2672 Q1328.06 32.4315 1321.95 32.4315 Q1318.06 32.4315 1314.37 33.3632 Q1310.69 34.295 1307.28 36.1584 L1307.28 29.2718 Q1311.37 27.692 1315.22 26.9223 Q1319.07 26.1121 1322.72 26.1121 Q1332.56 26.1121 1337.42 31.2163 Q1342.28 36.3204 1342.28 46.6907 Z" fill="#000000" fill-rule="nonzero" fill-opacity="1" /><path clip-path="url(#clip990)" d="M1395.35 45.1919 L1395.35 72.576 L1387.9 72.576 L1387.9 45.4349 Q1387.9 38.994 1385.38 35.7938 Q1382.87 32.5936 1377.85 32.5936 Q1371.81 32.5936 1368.33 36.4419 Q1364.85 40.2903 1364.85 46.9338 L1364.85 72.576 L1357.35 72.576 L1357.35 27.2059 L1364.85 27.2059 L1364.85 34.2544 Q1367.52 30.163 1371.13 28.1376 Q1374.77 26.1121 1379.51 26.1121 Q1387.33 26.1121 1391.34 30.9732 Q1395.35 35.7938 1395.35 45.1919 Z" fill="#000000" fill-rule="nonzero" fill-opacity="1" /><path clip-path="url(#clip990)" d="M1417.59 14.324 L1417.59 27.2059 L1432.94 27.2059 L1432.94 32.9987 L1417.59 32.9987 L1417.59 57.6282 Q1417.59 63.1779 1419.09 64.7578 Q1420.63 66.3376 1425.29 66.3376 L1432.94 66.3376 L1432.94 72.576 L1425.29 72.576 Q1416.66 72.576 1413.38 69.3758 Q1410.1 66.1351 1410.1 57.6282 L1410.1 32.9987 L1404.63 32.9987 L1404.63 27.2059 L1410.1 27.2059 L1410.1 14.324 L1417.59 14.324 Z" fill="#000000" fill-rule="nonzero" fill-opacity="1" /><path clip-path="url(#clip990)" d="M1471.67 28.5427 L1471.67 35.5912 Q1468.51 33.9709 1465.11 33.1607 Q1461.7 32.3505 1458.06 32.3505 Q1452.51 32.3505 1449.71 34.0519 Q1446.96 35.7533 1446.96 39.156 Q1446.96 41.7486 1448.94 43.2475 Q1450.93 44.7058 1456.92 46.0426 L1459.48 46.6097 Q1467.42 48.3111 1470.74 51.4303 Q1474.1 54.509 1474.1 60.0587 Q1474.1 66.3781 1469.08 70.0644 Q1464.09 73.7508 1455.34 73.7508 Q1451.7 73.7508 1447.73 73.0216 Q1443.8 72.3329 1439.42 70.9151 L1439.42 63.2184 Q1443.56 65.3654 1447.57 66.4591 Q1451.58 67.5124 1455.51 67.5124 Q1460.77 67.5124 1463.61 65.73 Q1466.44 63.9071 1466.44 60.6258 Q1466.44 57.5877 1464.38 55.9673 Q1462.35 54.3469 1455.42 52.8481 L1452.83 52.2405 Q1445.91 50.7821 1442.83 47.7845 Q1439.75 44.7463 1439.75 39.4801 Q1439.75 33.0797 1444.28 29.5959 Q1448.82 26.1121 1457.17 26.1121 Q1461.3 26.1121 1464.94 26.7198 Q1468.59 27.3274 1471.67 28.5427 Z" fill="#000000" fill-rule="nonzero" fill-opacity="1" /><path clip-path="url(#clip990)" d="M1520.85 18.8205 L1520.85 65.8515 L1530.73 65.8515 Q1543.25 65.8515 1549.04 60.1802 Q1554.87 54.509 1554.87 42.2752 Q1554.87 30.1225 1549.04 24.4918 Q1543.25 18.8205 1530.73 18.8205 L1520.85 18.8205 M1512.66 12.096 L1529.48 12.096 Q1547.06 12.096 1555.28 19.4281 Q1563.5 26.7198 1563.5 42.2752 Q1563.5 57.9117 1555.24 65.2439 Q1546.98 72.576 1529.48 72.576 L1512.66 72.576 L1512.66 12.096 Z" fill="#000000" fill-rule="nonzero" fill-opacity="1" /><path clip-path="url(#clip990)" d="M1595.1 76.7889 Q1591.94 84.8907 1588.94 87.3618 Q1585.94 89.8329 1580.92 89.8329 L1574.97 89.8329 L1574.97 83.5945 L1579.34 83.5945 Q1582.42 83.5945 1584.12 82.1361 Q1585.82 80.6778 1587.89 75.2496 L1589.23 71.8468 L1570.88 27.2059 L1578.77 27.2059 L1592.95 62.6918 L1607.13 27.2059 L1615.03 27.2059 L1595.1 76.7889 Z" fill="#000000" fill-rule="nonzero" fill-opacity="1" /><path clip-path="url(#clip990)" d="M1663.03 45.1919 L1663.03 72.576 L1655.58 72.576 L1655.58 45.4349 Q1655.58 38.994 1653.07 35.7938 Q1650.56 32.5936 1645.53 32.5936 Q1639.5 32.5936 1636.01 36.4419 Q1632.53 40.2903 1632.53 46.9338 L1632.53 72.576 L1625.04 72.576 L1625.04 27.2059 L1632.53 27.2059 L1632.53 34.2544 Q1635.2 30.163 1638.81 28.1376 Q1642.46 26.1121 1647.19 26.1121 Q1655.01 26.1121 1659.02 30.9732 Q1663.03 35.7938 1663.03 45.1919 Z" fill="#000000" fill-rule="nonzero" fill-opacity="1" /><path clip-path="url(#clip990)" d="M1698.52 49.7694 Q1689.49 49.7694 1686 51.8354 Q1682.52 53.9013 1682.52 58.8839 Q1682.52 62.8538 1685.11 65.2034 Q1687.74 67.5124 1692.24 67.5124 Q1698.44 67.5124 1702.17 63.1374 Q1705.93 58.7219 1705.93 51.4303 L1705.93 49.7694 L1698.52 49.7694 M1713.39 46.6907 L1713.39 72.576 L1705.93 72.576 L1705.93 65.6895 Q1703.38 69.8214 1699.57 71.8063 Q1695.76 73.7508 1690.26 73.7508 Q1683.29 73.7508 1679.16 69.8619 Q1675.06 65.9325 1675.06 59.3701 Q1675.06 51.7138 1680.17 47.825 Q1685.31 43.9361 1695.48 43.9361 L1705.93 43.9361 L1705.93 43.2069 Q1705.93 38.0623 1702.53 35.2672 Q1699.17 32.4315 1693.05 32.4315 Q1689.16 32.4315 1685.48 33.3632 Q1681.79 34.295 1678.39 36.1584 L1678.39 29.2718 Q1682.48 27.692 1686.33 26.9223 Q1690.17 26.1121 1693.82 26.1121 Q1703.66 26.1121 1708.53 31.2163 Q1713.39 36.3204 1713.39 46.6907 Z" fill="#000000" fill-rule="nonzero" fill-opacity="1" /><path clip-path="url(#clip990)" d="M1764.06 35.9153 Q1766.86 30.8922 1770.75 28.5022 Q1774.64 26.1121 1779.9 26.1121 Q1786.99 26.1121 1790.84 31.0947 Q1794.69 36.0368 1794.69 45.1919 L1794.69 72.576 L1787.19 72.576 L1787.19 45.4349 Q1787.19 38.913 1784.88 35.7533 Q1782.58 32.5936 1777.84 32.5936 Q1772.04 32.5936 1768.68 36.4419 Q1765.32 40.2903 1765.32 46.9338 L1765.32 72.576 L1757.82 72.576 L1757.82 45.4349 Q1757.82 38.8725 1755.52 35.7533 Q1753.21 32.5936 1748.39 32.5936 Q1742.67 32.5936 1739.31 36.4824 Q1735.95 40.3308 1735.95 46.9338 L1735.95 72.576 L1728.46 72.576 L1728.46 27.2059 L1735.95 27.2059 L1735.95 34.2544 Q1738.5 30.082 1742.07 28.0971 Q1745.63 26.1121 1750.53 26.1121 Q1755.48 26.1121 1758.92 28.6237 Q1762.4 31.1352 1764.06 35.9153 Z" fill="#000000" fill-rule="nonzero" fill-opacity="1" /><path clip-path="url(#clip990)" d="M1809.55 27.2059 L1817.01 27.2059 L1817.01 72.576 L1809.55 72.576 L1809.55 27.2059 M1809.55 9.54393 L1817.01 9.54393 L1817.01 18.9825 L1809.55 18.9825 L1809.55 9.54393 Z" fill="#000000" fill-rule="nonzero" fill-opacity="1" /><path clip-path="url(#clip990)" d="M1865.25 28.9478 L1865.25 35.9153 Q1862.1 34.1734 1858.89 33.3227 Q1855.74 32.4315 1852.49 32.4315 Q1845.24 32.4315 1841.23 37.0496 Q1837.22 41.6271 1837.22 49.9314 Q1837.22 58.2358 1841.23 62.8538 Q1845.24 67.4314 1852.49 67.4314 Q1855.74 67.4314 1858.89 66.5807 Q1862.1 65.6895 1865.25 63.9476 L1865.25 70.8341 Q1862.14 72.2924 1858.77 73.0216 Q1855.45 73.7508 1851.68 73.7508 Q1841.44 73.7508 1835.4 67.3098 Q1829.36 60.8689 1829.36 49.9314 Q1829.36 38.832 1835.44 32.472 Q1841.56 26.1121 1852.17 26.1121 Q1855.61 26.1121 1858.89 26.8413 Q1862.18 27.5299 1865.25 28.9478 Z" fill="#000000" fill-rule="nonzero" fill-opacity="1" /><path clip-path="url(#clip990)" d="M1907.14 28.5427 L1907.14 35.5912 Q1903.98 33.9709 1900.58 33.1607 Q1897.18 32.3505 1893.53 32.3505 Q1887.98 32.3505 1885.19 34.0519 Q1882.43 35.7533 1882.43 39.156 Q1882.43 41.7486 1884.42 43.2475 Q1886.4 44.7058 1892.4 46.0426 L1894.95 46.6097 Q1902.89 48.3111 1906.21 51.4303 Q1909.57 54.509 1909.57 60.0587 Q1909.57 66.3781 1904.55 70.0644 Q1899.57 73.7508 1890.82 73.7508 Q1887.17 73.7508 1883.2 73.0216 Q1879.27 72.3329 1874.9 70.9151 L1874.9 63.2184 Q1879.03 65.3654 1883.04 66.4591 Q1887.05 67.5124 1890.98 67.5124 Q1896.24 67.5124 1899.08 65.73 Q1901.92 63.9071 1901.92 60.6258 Q1901.92 57.5877 1899.85 55.9673 Q1897.82 54.3469 1890.9 52.8481 L1888.3 52.2405 Q1881.38 50.7821 1878.3 47.7845 Q1875.22 44.7463 1875.22 39.4801 Q1875.22 33.0797 1879.76 29.5959 Q1884.29 26.1121 1892.64 26.1121 Q1896.77 26.1121 1900.42 26.7198 Q1904.06 27.3274 1907.14 28.5427 Z" fill="#000000" fill-rule="nonzero" fill-opacity="1" /><polyline clip-path="url(#clip992)" style="stroke:#009af9; stroke-linecap:round; stroke-linejoin:round; stroke-width:4; stroke-opacity:1; fill:none" points="1527.78,334.437 1365.18,1199.57 1353.14,1203.3 1337.66,1202.91 1320.5,1200.39 1302.62,1196.73 1284.59,1192.45 1266.73,1187.88 1249.23,1183.2 1232.19,1178.52 1215.67,1173.9 1199.68,1169.38 1184.23,1164.98 1169.33,1160.71 1154.95,1156.59 1141.1,1152.6 1127.74,1148.76 1114.87,1145.05 1102.47,1141.47 1090.52,1138.03 1079.01,1134.71 1067.92,1131.51 1057.24,1128.42 1046.95,1125.45 1037.04,1122.59 1027.49,1119.84 1018.28,1117.18 1009.42,1114.62 1000.88,1112.16 992.657,1109.78 984.732,1107.49 977.098,1105.29 969.744,1103.17 962.66,1101.12 955.835,1099.15 949.26,1097.25 942.926,1095.43 936.825,1093.66 930.947,1091.97 925.284,1090.33 919.829,1088.76 914.574,1087.24 909.512,1085.78 904.635,1084.37 899.936,1083.02 895.411,1081.71 891.051,1080.45 886.85,1079.24 882.804,1078.07 878.906,1076.94 875.151,1075.86 871.533,1074.82 868.049,1073.81 864.691,1072.84 861.457,1071.91 858.342,1071.01 855.34,1070.14 852.449,1069.31 849.664,1068.5 846.98,1067.73 844.395,1066.98 841.905,1066.26 839.506,1065.57 837.195,1064.9 834.969,1064.26 832.824,1063.64 830.758,1063.05 828.768,1062.47 826.85,1061.92 825.003,1061.38 823.224,1060.87 821.509,1060.38 819.858,1059.9 818.267,1059.44 816.735,1059 815.258,1058.57 813.836,1058.16 812.466,1057.76 811.146,1057.38 809.875,1057.02 808.65,1056.66 807.47,1056.32 806.333,1055.99 805.238,1055.68 804.183,1055.37 803.166,1055.08 802.187,1054.8 801.244,1054.53 800.335,1054.26 799.46,1054.01 798.617,1053.77 797.805,1053.53 797.022,1053.31 796.269,1053.09 795.543,1052.88 794.843,1052.68 794.17,1052.48 793.523,1052.3 792.903,1052.12 792.313,1051.95 791.765,1051.8 791.292,1051.68 790.969,1051.64 791.029,1051.77 791.982,1052.33 795.122,1053.97 802.399,1057.82 814.415,1065.11 826.399,1075.47 831.894,1086.91 830.596,1097.77 825.692,1107.02 819.823,1114.15 814.29,1119.13 809.532,1122.19 805.629,1123.63 802.514,1123.73 800.104,1122.7 798.339,1120.68 797.196,1117.83 796.69,1114.35 796.88,1110.53 797.854,1106.75 799.668,1103.51 802.262,1101.18 805.389,1100.06 808.54,1100.18 811.141,1101.37 812.767,1103.34 813.248,1105.76 812.737,1108.35 811.539,1110.88 809.915,1113.22 808.093,1115.27 806.242,1116.96 804.478,1118.29 802.875,1119.24 801.462,1119.83 800.272,1120.07 799.32,1119.99 798.614,1119.62 798.161,1119 797.965,1118.15 798.027,1117.15 798.343,1116.06 798.898,1114.94 799.664,1113.89 800.594,1112.96 801.626,1112.22 802.682,1111.71 803.679,1111.45 804.537,1111.42 805.202,1111.62 805.639,1112 805.846,1112.52 805.832,1113.15 805.621,1113.85 805.247,1114.58 804.755,1115.32 804.181,1116.05 803.551,1116.75 802.895,1117.4 802.234,1118 801.587,1118.53 800.967,1119 800.388,1119.4 799.857,1119.72 799.382,1119.96 798.967,1120.14 798.614,1120.25 798.326,1120.29 798.105,1120.26 797.952,1120.17 797.866,1120.03 797.846,1119.85 797.89,1119.62 797.994,1119.35 798.154,1119.06 798.365,1118.76 798.621,1118.44 798.913,1118.13 799.233,1117.83 799.57,1117.55 799.915,1117.29 800.259,1117.06 800.591,1116.87 800.903,1116.72 801.19,1116.6 801.443,1116.52 801.658,1116.47 801.834,1116.46 801.969,1116.49 802.063,1116.54 802.118,1116.62 802.135,1116.72 802.119,1116.84 802.071,1116.97 801.997,1117.12 801.898,1117.28 801.779,1117.45 801.643,1117.62 801.493,1117.8 801.331,1117.97 801.161,1118.15 800.986,1118.33 800.806,1118.5 800.624,1118.67 800.443,1118.83 800.262,1118.99 800.084,1119.15 799.91,1119.29 799.741,1119.43 799.577,1119.56 799.419,1119.69 799.267,1119.81 799.123,1119.92 798.986,1120.02 798.857,1120.11 798.736,1120.2 798.623,1120.27 798.519,1120.34 798.423,1120.41 798.335,1120.46 798.255,1120.51 798.184,1120.55 798.121,1120.58 798.065,1120.61 798.018,1120.63 797.978,1120.64 797.946,1120.65 797.921,1120.65 797.903,1120.65 797.892,1120.64 797.888,1120.63 797.89,1120.61 797.898,1120.59 797.912,1120.56 797.931,1120.53 797.956,1120.5 797.985,1120.46 798.019,1120.42 798.058,1120.38 798.1,1120.33 798.145,1120.28 798.194,1120.23 798.246,1120.18 798.3,1120.13 798.357,1120.08 798.415,1120.03 798.475,1119.98 798.536,1119.92 798.598,1119.87 798.661,1119.82 798.723,1119.77 798.786,1119.71 798.849,1119.66 798.911,1119.62 798.972,1119.57 799.033,1119.52 799.092,1119.48 799.15,1119.43 799.206,1119.39 799.261,1119.35 799.315,1119.31 799.366,1119.28 799.416,1119.24 799.463,1119.21 799.509,1119.18 799.552,1119.15 799.593,1119.12 799.633,1119.1 799.67,1119.07 799.705,1119.05 799.738,1119.03 799.769,1119.01 799.798,1118.99 799.826,1118.97 799.851,1118.96 799.874,1118.95 799.896,1118.93 799.916,1118.92 799.934,1118.91 799.95,1118.9 799.966,1118.9 799.979,1118.89 799.992,1118.88 800.003,1118.88 800.012,1118.88 800.021,1118.87 800.028,1118.87 800.034,1118.87 800.04,1118.87 800.044,1118.87 800.047,1118.87 800.05,1118.87 800.052,1118.87 800.053,1118.87 800.053,1118.87 800.053,1118.88 800.052,1118.88 800.051,1118.88 800.049,1118.89 800.047,1118.89 800.044,1118.89 800.041,1118.9 800.037,1118.9 800.033,1118.91 800.029,1118.91 800.025,1118.92 800.02,1118.92 800.015,1118.93 800.01,1118.93 800.005,1118.94 800,1118.94 799.994,1118.95 799.988,1118.96 799.983,1118.96 799.977,1118.97 799.971,1118.97 799.965,1118.98 799.959,1118.98 799.953,1118.99 799.947,1118.99 799.941,1119 799.935,1119.01 799.929,1119.01 799.922,1119.02 799.916,1119.02 799.91,1119.03 799.904,1119.03 799.898,1119.04 799.893,1119.04 799.887,1119.05 799.881,1119.05 799.875,1119.06 799.869,1119.06 799.864,1119.07 799.858,1119.07 799.853,1119.08 799.847,1119.08 799.842,1119.09 799.837,1119.09 799.832,1119.1 799.826,1119.1 799.821,1119.1 799.816,1119.11 799.812,1119.11 799.807,1119.12 799.802,1119.12 799.797,1119.12 799.793,1119.13 799.788,1119.13 799.784,1119.14 799.78,1119.14 799.775,1119.14 799.771,1119.15 799.767,1119.15 799.763,1119.15 799.759,1119.16 799.755,1119.16 799.752,1119.16 799.748,1119.17 799.744,1119.17 799.741,1119.17 799.737,1119.17 799.734,1119.18 799.731,1119.18 799.727,1119.18 799.724,1119.19 799.721,1119.19 799.718,1119.19 799.715,1119.19 799.712,1119.2 799.709,1119.2 799.706,1119.2 799.704,1119.2 799.701,1119.2 799.698,1119.21 799.696,1119.21 799.693,1119.21 799.691,1119.21 799.689,1119.21 799.686,1119.22 799.684,1119.22 799.682,1119.22 799.68,1119.22 799.677,1119.22 799.675,1119.23 799.673,1119.23 799.671,1119.23 799.669,1119.23 799.668,1119.23 799.666,1119.23 799.664,1119.23 799.662,1119.24 799.661,1119.24 799.659,1119.24 799.657,1119.24 799.656,1119.24 799.654,1119.24 799.653,1119.24 799.651,1119.24 799.65,1119.25 799.648,1119.25 799.647,1119.25 799.646,1119.25 799.644,1119.25 799.643,1119.25 799.642,1119.25 799.641,1119.25 799.639,1119.25 799.638,1119.26 799.637,1119.26 799.636,1119.26 799.635,1119.26 799.634,1119.26 799.633,1119.26 799.632,1119.26 799.631,1119.26 799.63,1119.26 799.629,1119.26 799.628,1119.26 799.627,1119.26 799.626,1119.26 799.626,1119.27 799.625,1119.27 799.624,1119.27 799.623,1119.27 799.623,1119.27 799.622,1119.27 799.621,1119.27 799.62,1119.27 799.62,1119.27 799.619,1119.27 799.618,1119.27 799.618,1119.27 799.617,1119.27 799.617,1119.27 799.616,1119.27 799.615,1119.27 799.615,1119.27 799.614,1119.27 799.614,1119.27 799.613,1119.28 799.613,1119.28 799.612,1119.28 799.612,1119.28 799.611,1119.28 799.611,1119.28 799.611,1119.28 799.61,1119.28 799.61,1119.28 799.609,1119.28 799.609,1119.28 799.609,1119.28 799.608,1119.28 799.608,1119.28 799.607,1119.28 799.607,1119.28 799.607,1119.28 799.606,1119.28 799.606,1119.28 799.606,1119.28 799.606,1119.28 799.605,1119.28 799.605,1119.28 799.605,1119.28 799.604,1119.28 799.604,1119.28 799.604,1119.28 799.604,1119.28 799.603,1119.28 799.603,1119.28 799.603,1119.28 799.603,1119.28 799.603,1119.28 799.602,1119.28 799.602,1119.28 799.602,1119.28 799.602,1119.28 799.602,1119.28 799.601,1119.28 799.601,1119.29 799.601,1119.29 799.601,1119.29 799.601,1119.29 799.6,1119.29 799.6,1119.29 799.6,1119.29 799.6,1119.29 799.6,1119.29 799.6,1119.29 799.6,1119.29 799.599,1119.29 799.599,1119.29 799.599,1119.29 799.599,1119.29 799.599,1119.29 799.599,1119.29 799.599,1119.29 799.599,1119.29 799.598,1119.29 799.598,1119.29 799.598,1119.29 799.598,1119.29 799.598,1119.29 799.598,1119.29 799.598,1119.29 799.598,1119.29 799.598,1119.29 799.598,1119.29 799.598,1119.29 799.597,1119.29 799.597,1119.29 799.597,1119.29 799.597,1119.29 799.597,1119.29 799.597,1119.29 799.597,1119.29 799.597,1119.29 799.597,1119.29 799.597,1119.29 799.597,1119.29 799.597,1119.29 799.597,1119.29 799.597,1119.29 799.597,1119.29 799.596,1119.29 799.596,1119.29 799.596,1119.29 799.596,1119.29 799.596,1119.29 799.596,1119.29 799.596,1119.29 799.596,1119.29 799.596,1119.29 799.596,1119.29 799.596,1119.29 799.596,1119.29 799.596,1119.29 799.596,1119.29 799.596,1119.29 799.596,1119.29 799.596,1119.29 799.596,1119.29 799.596,1119.29 799.596,1119.29 799.596,1119.29 799.596,1119.29 799.596,1119.29 799.596,1119.29 799.596,1119.29 799.595,1119.29 799.595,1119.29 799.595,1119.29 799.595,1119.29 799.595,1119.29 799.595,1119.29 799.595,1119.29 799.595,1119.29 799.595,1119.29 799.595,1119.29 799.595,1119.29 799.595,1119.29 799.595,1119.29 799.595,1119.29 799.595,1119.29 799.595,1119.29 799.595,1119.29 799.595,1119.29 799.595,1119.29 799.595,1119.29 799.595,1119.29 799.595,1119.29 799.595,1119.29 799.595,1119.29 799.595,1119.29 799.595,1119.29 799.595,1119.29 799.595,1119.29 799.595,1119.29 799.595,1119.29 799.595,1119.29 799.595,1119.29 799.595,1119.29 799.595,1119.29 799.595,1119.29 799.595,1119.29 799.595,1119.29 799.595,1119.29 799.595,1119.29 799.595,1119.29 799.595,1119.29 799.595,1119.29 799.595,1119.29 799.595,1119.29 799.595,1119.29 799.595,1119.29 799.595,1119.29 799.595,1119.29 799.595,1119.29 799.595,1119.29 799.595,1119.29 799.595,1119.29 799.595,1119.29 799.595,1119.29 799.595,1119.29 799.595,1119.29 799.595,1119.29 799.595,1119.29 799.595,1119.29 799.595,1119.29 799.595,1119.29 799.595,1119.29 799.595,1119.29 799.595,1119.29 799.595,1119.29 799.595,1119.29 799.595,1119.29 799.595,1119.29 799.595,1119.29 799.595,1119.29 799.595,1119.29 799.595,1119.29 799.595,1119.29 799.595,1119.29 799.595,1119.29 799.595,1119.29 799.595,1119.29 799.595,1119.29 799.595,1119.29 799.595,1119.29 799.595,1119.29 799.595,1119.29 799.595,1119.29 799.595,1119.29 799.595,1119.29 799.595,1119.29 799.595,1119.29 799.595,1119.29 799.595,1119.29 799.595,1119.29 799.595,1119.29 799.595,1119.29 799.595,1119.29 799.595,1119.29 799.595,1119.29 799.595,1119.29 799.595,1119.29 799.595,1119.29 799.595,1119.29 799.595,1119.29 799.595,1119.29 799.595,1119.29 799.595,1119.29 799.595,1119.29 799.595,1119.29 799.595,1119.29 799.595,1119.29 799.595,1119.29 799.595,1119.29 799.595,1119.29 799.595,1119.29 799.595,1119.29 799.595,1119.29 799.595,1119.29 799.595,1119.29 799.595,1119.29 799.595,1119.29 799.595,1119.29 799.595,1119.29 799.595,1119.29 799.595,1119.29 799.595,1119.29 799.595,1119.29 799.595,1119.29 799.595,1119.29 799.595,1119.29 799.595,1119.29 799.595,1119.29 799.595,1119.29 799.595,1119.29 799.595,1119.29 799.595,1119.29 799.595,1119.29 799.595,1119.29 799.595,1119.29 799.595,1119.29 799.595,1119.29 799.595,1119.29 799.595,1119.29 799.595,1119.29 799.595,1119.29 799.595,1119.29 799.595,1119.29 799.594,1119.29 799.594,1119.29 799.594,1119.29 799.594,1119.29 799.594,1119.29 799.594,1119.29 799.594,1119.29 799.594,1119.29 799.594,1119.29 799.594,1119.29 799.594,1119.29 799.594,1119.29 799.594,1119.29 799.594,1119.29 799.594,1119.29 799.594,1119.29 799.594,1119.29 799.594,1119.29 799.594,1119.29 799.594,1119.29 799.594,1119.29 799.594,1119.29 799.594,1119.29 799.594,1119.29 799.594,1119.29 799.594,1119.29 799.594,1119.29 799.594,1119.29 799.594,1119.29 799.594,1119.29 799.594,1119.29 799.594,1119.29 799.594,1119.29 799.594,1119.29 799.594,1119.29 799.594,1119.29 799.594,1119.29 799.594,1119.29 799.594,1119.29 799.594,1119.29 799.594,1119.29 799.594,1119.29 799.594,1119.29 799.594,1119.29 799.594,1119.29 799.594,1119.29 799.594,1119.29 799.594,1119.29 799.594,1119.29 799.594,1119.29 799.594,1119.29 799.594,1119.29 799.594,1119.29 799.594,1119.29 799.594,1119.29 799.594,1119.29 799.594,1119.29 799.594,1119.29 799.594,1119.29 799.594,1119.29 799.594,1119.29 799.594,1119.29 799.594,1119.29 799.594,1119.29 799.594,1119.29 799.594,1119.29 799.594,1119.29 799.594,1119.29 799.594,1119.29 799.594,1119.29 799.594,1119.29 799.594,1119.29 799.594,1119.29 799.594,1119.29 799.594,1119.29 799.594,1119.29 799.594,1119.29 799.594,1119.29 799.594,1119.29 799.594,1119.29 799.594,1119.29 799.594,1119.29 799.594,1119.29 799.594,1119.29 799.594,1119.29 799.594,1119.29 799.594,1119.29 799.594,1119.29 799.594,1119.29 799.594,1119.29 799.594,1119.29 799.594,1119.29 799.594,1119.29 799.594,1119.29 799.594,1119.29 799.594,1119.29 799.594,1119.29 799.594,1119.29 799.594,1119.29 799.594,1119.29 799.594,1119.29 799.594,1119.29 799.594,1119.29 799.594,1119.29 799.594,1119.29 799.594,1119.29 799.594,1119.29 799.594,1119.29 799.594,1119.29 799.594,1119.29 799.594,1119.29 799.594,1119.29 799.594,1119.29 799.594,1119.29 799.594,1119.29 799.594,1119.29 799.594,1119.29 799.594,1119.29 799.594,1119.29 799.594,1119.29 799.594,1119.29 799.594,1119.29 "/>
<polyline clip-path="url(#clip992)" style="stroke:#009af9; stroke-linecap:round; stroke-linejoin:round; stroke-width:4; stroke-opacity:1; fill:none" points="799.594,1119.29 799.594,1119.29 799.594,1119.29 799.594,1119.29 799.594,1119.29 799.594,1119.29 799.594,1119.29 799.594,1119.29 799.594,1119.29 799.594,1119.29 799.594,1119.29 799.594,1119.29 799.594,1119.29 799.594,1119.29 799.594,1119.29 799.594,1119.29 799.594,1119.29 799.594,1119.29 799.594,1119.29 799.594,1119.29 799.594,1119.29 799.594,1119.29 799.594,1119.29 799.594,1119.29 799.594,1119.29 799.594,1119.29 799.594,1119.29 799.594,1119.29 799.594,1119.29 799.594,1119.29 799.594,1119.29 799.594,1119.29 799.594,1119.29 799.594,1119.29 799.594,1119.29 799.594,1119.29 799.594,1119.29 799.594,1119.29 799.594,1119.29 799.594,1119.29 799.594,1119.29 799.594,1119.29 799.594,1119.29 799.594,1119.29 799.594,1119.29 799.594,1119.29 799.594,1119.29 799.594,1119.29 799.594,1119.29 799.594,1119.29 799.594,1119.29 799.594,1119.29 799.594,1119.29 799.594,1119.29 799.594,1119.29 799.594,1119.29 "/>
<polyline clip-path="url(#clip992)" style="stroke:#009af9; stroke-linecap:round; stroke-linejoin:round; stroke-width:4; stroke-opacity:1; fill:none" points="799.594,1119.29 799.594,1119.29 799.594,1119.29 799.594,1119.29 799.594,1119.29 799.594,1119.29 799.594,1119.29 799.594,1119.29 799.594,1119.29 799.594,1119.29 799.594,1119.29 799.594,1119.29 799.594,1119.29 799.594,1119.29 799.594,1119.29 799.594,1119.29 799.594,1119.29 799.594,1119.29 799.594,1119.29 799.594,1119.29 799.594,1119.29 799.594,1119.29 799.594,1119.29 799.594,1119.29 799.594,1119.29 799.594,1119.29 799.594,1119.29 799.594,1119.29 799.594,1119.29 799.594,1119.29 799.594,1119.29 799.594,1119.29 799.594,1119.29 799.594,1119.29 799.594,1119.29 799.594,1119.29 799.594,1119.29 799.594,1119.29 799.594,1119.29 799.594,1119.29 799.594,1119.29 799.594,1119.29 799.594,1119.29 799.594,1119.29 799.594,1119.29 799.594,1119.29 799.594,1119.29 799.594,1119.29 799.594,1119.29 799.594,1119.29 799.595,1119.29 799.595,1119.29 799.595,1119.29 799.595,1119.29 799.595,1119.29 799.595,1119.29 799.595,1119.29 "/>
<polyline clip-path="url(#clip992)" style="stroke:#009af9; stroke-linecap:round; stroke-linejoin:round; stroke-width:4; stroke-opacity:1; fill:none" points="799.594,1119.29 799.594,1119.29 799.594,1119.29 799.594,1119.29 799.594,1119.29 799.594,1119.29 799.594,1119.29 799.594,1119.29 799.594,1119.29 799.594,1119.29 799.594,1119.29 799.594,1119.29 799.594,1119.29 799.594,1119.29 799.594,1119.29 799.594,1119.29 799.594,1119.29 799.594,1119.29 799.594,1119.29 799.594,1119.29 799.594,1119.29 799.594,1119.29 799.594,1119.29 799.594,1119.29 799.594,1119.29 799.594,1119.29 799.594,1119.29 799.594,1119.29 799.594,1119.29 799.594,1119.29 799.594,1119.29 799.594,1119.29 799.594,1119.29 799.594,1119.29 799.594,1119.29 799.594,1119.29 799.594,1119.29 799.594,1119.29 799.594,1119.29 799.594,1119.29 799.594,1119.29 799.594,1119.29 799.594,1119.29 799.594,1119.29 799.594,1119.29 799.594,1119.29 799.594,1119.29 799.594,1119.29 799.594,1119.29 799.594,1119.29 799.594,1119.29 799.594,1119.29 799.594,1119.29 799.594,1119.29 799.594,1119.29 799.594,1119.29 799.594,1119.29 799.594,1119.29 799.595,1119.29 799.595,1119.29 799.595,1119.29 799.595,1119.29 799.595,1119.29 799.595,1119.29 799.595,1119.29 799.595,1119.29 799.595,1119.29 799.595,1119.29 799.595,1119.29 799.595,1119.29 799.595,1119.29 799.595,1119.29 799.595,1119.29 799.595,1119.29 799.595,1119.29 799.595,1119.29 799.595,1119.29 799.595,1119.29 799.595,1119.29 799.595,1119.29 799.595,1119.29 799.595,1119.29 799.595,1119.29 799.595,1119.29 799.595,1119.29 799.595,1119.29 799.595,1119.29 799.595,1119.29 799.595,1119.29 799.595,1119.29 799.595,1119.29 799.595,1119.29 799.595,1119.29 799.595,1119.29 799.595,1119.29 799.595,1119.29 799.595,1119.29 799.595,1119.29 799.595,1119.29 799.595,1119.29 799.595,1119.29 799.595,1119.29 799.595,1119.29 799.595,1119.29 799.595,1119.29 799.595,1119.29 799.595,1119.29 799.595,1119.29 799.595,1119.29 799.594,1119.29 799.594,1119.29 799.594,1119.29 799.594,1119.29 799.594,1119.29 799.594,1119.29 799.594,1119.29 799.594,1119.29 799.594,1119.29 799.594,1119.29 799.594,1119.29 799.594,1119.29 799.594,1119.29 799.594,1119.29 799.594,1119.29 799.594,1119.29 799.594,1119.29 799.594,1119.29 799.594,1119.29 799.594,1119.29 799.594,1119.29 799.594,1119.29 799.594,1119.29 799.594,1119.29 799.594,1119.29 799.594,1119.29 799.594,1119.29 799.594,1119.29 799.594,1119.29 799.594,1119.29 799.594,1119.29 799.594,1119.29 799.594,1119.29 799.594,1119.29 799.594,1119.29 799.594,1119.29 799.594,1119.29 799.594,1119.29 799.594,1119.29 799.594,1119.29 799.594,1119.29 799.594,1119.29 799.594,1119.29 799.594,1119.29 799.594,1119.29 799.594,1119.29 799.594,1119.29 799.594,1119.29 799.594,1119.29 799.594,1119.29 799.594,1119.29 799.595,1119.29 799.595,1119.29 799.595,1119.29 799.595,1119.29 799.595,1119.29 799.595,1119.29 799.595,1119.29 799.595,1119.29 799.595,1119.29 799.595,1119.29 799.595,1119.29 799.595,1119.29 799.595,1119.29 799.595,1119.29 799.595,1119.29 799.595,1119.29 799.595,1119.29 799.595,1119.29 799.595,1119.29 799.595,1119.29 799.595,1119.29 799.595,1119.29 799.595,1119.29 799.595,1119.29 799.595,1119.29 799.595,1119.29 799.595,1119.29 799.595,1119.29 799.594,1119.29 799.594,1119.29 799.594,1119.29 799.594,1119.29 799.594,1119.29 799.594,1119.29 799.594,1119.29 799.594,1119.29 799.594,1119.29 799.594,1119.29 799.594,1119.29 799.594,1119.29 799.594,1119.29 799.594,1119.29 799.594,1119.29 799.594,1119.29 799.594,1119.29 799.594,1119.29 799.594,1119.29 799.594,1119.29 799.594,1119.29 799.594,1119.29 799.594,1119.29 799.594,1119.29 799.594,1119.29 799.594,1119.29 799.594,1119.29 "/>
</svg>
